/* XPM */
static char *result[] = {
/* columns rows colors chars-per-pixel */
"64 64 224 2 ",
"   c #3F2A1E",
".  c #2D2F22",
"X  c #373C2B",
"o  c #4B3828",
"O  c #543826",
"+  c #543B2B",
"@  c #5B3D2A",
"#  c #523F32",
"$  c #344F37",
"%  c #52402D",
"&  c #5A412D",
"*  c #444832",
"=  c #5B4231",
"-  c #5B4A33",
";  c #49583C",
":  c #55583D",
">  c #63422D",
",  c #6A452D",
"<  c #744A2F",
"1  c #644631",
"2  c #644C35",
"3  c #6A4833",
"4  c #6C4A33",
"5  c #744C33",
"6  c #7A4E33",
"7  c #724F38",
"8  c #68573A",
"9  c #755034",
"0  c #7C5135",
"q  c #74523A",
"w  c #7C5439",
"e  c #765C3D",
"r  c #69633E",
"t  c #78633E",
"y  c #3A6C48",
"u  c #3C724D",
"i  c #2F7E55",
"p  c #3D7A52",
"a  c #475D40",
"s  c #6C5E41",
"d  c #486645",
"f  c #556D4A",
"g  c #5A6A48",
"h  c #48734D",
"j  c #5C754E",
"k  c #497C53",
"l  c #577C53",
"z  c #666A46",
"x  c #766A45",
"c  c #68754C",
"v  c #75744C",
"b  c #79744C",
"n  c #667952",
"m  c #767950",
"M  c #777478",
"N  c #824F36",
"B  c #815436",
"V  c #895535",
"C  c #8B5A36",
"Z  c #845639",
"A  c #85593C",
"S  c #8C5C3B",
"D  c #935E3A",
"F  c #8A633D",
"G  c #94613F",
"H  c #9C643E",
"J  c #A3663D",
"K  c #A5693F",
"L  c #AB693E",
"P  c #AA733F",
"I  c #C46C3F",
"U  c #865E41",
"Y  c #8C5E41",
"T  c #826342",
"R  c #8D6241",
"E  c #846B45",
"W  c #946342",
"Q  c #9C6642",
"!  c #946C45",
"~  c #9D6942",
"^  c #9B6749",
"/  c #88764A",
"(  c #997449",
")  c #9F7F52",
"_  c #A36B43",
"`  c #A56A44",
"'  c #AB6D43",
"]  c #B26E45",
"[  c #AD7145",
"{  c #AC734A",
"}  c #A37849",
"|  c #B37345",
" . c #BA7545",
".. c #B4754B",
"X. c #B47B4D",
"o. c #BB7848",
"O. c #BD7A4A",
"+. c #BE7E52",
"@. c #C87745",
"#. c #C37A46",
"$. c #C47D4B",
"%. c #CA7E4A",
"&. c #D47C48",
"*. c #E17D4A",
"=. c #3A8357",
"-. c #3C9464",
";. c #3FA66F",
":. c #498257",
">. c #428558",
",. c #438C5C",
"<. c #4B8C5E",
"1. c #578659",
"2. c #528C5D",
"3. c #45905F",
"4. c #66895A",
"5. c #788556",
"6. c #69905F",
"7. c #578E61",
"8. c #469463",
"9. c #4A9563",
"0. c #4B9B66",
"q. c #429A69",
"w. c #4C9E69",
"e. c #569866",
"r. c #45A36C",
"t. c #4EA46D",
"y. c #53A36C",
"u. c #57A76F",
"i. c #4CAD73",
"p. c #54AC71",
"a. c #5BAE73",
"s. c #4AB477",
"d. c #54B376",
"f. c #59B477",
"g. c #54B779",
"h. c #53BC7D",
"j. c #5ABB7B",
"k. c #58C17F",
"l. c #8B8353",
"z. c #978955",
"x. c #A48953",
"c. c #B78752",
"v. c #B39155",
"b. c #A7A35A",
"n. c #B7AC5D",
"m. c #B1B55E",
"M. c #B99E7A",
"N. c #BBB464",
"B. c #C6854D",
"V. c #CC824C",
"C. c #D3854C",
"Z. c #D7864C",
"A. c #DA854B",
"S. c #DC894E",
"D. c #C88350",
"F. c #D68652",
"G. c #D58952",
"H. c #DC8B52",
"J. c #C79355",
"K. c #D59B55",
"L. c #E18246",
"P. c #E4864B",
"I. c #E58C4D",
"U. c #EA8D4D",
"Y. c #F18A4C",
"T. c #EB914F",
"R. c #F3924E",
"E. c #F9984F",
"W. c #E38D51",
"Q. c #EA8E51",
"!. c #E69153",
"~. c #EC9151",
"^. c #EF9658",
"/. c #F39452",
"(. c #FA9652",
"). c #F59855",
"_. c #FB9B54",
"`. c #D8A35B",
"'. c #EBAE56",
"]. c #E7AC59",
"[. c #FFA156",
"{. c #EDB058",
"}. c #F4B457",
"|. c #F2B35A",
" X c #FAB95F",
".X c #C39360",
"XX c #C3B860",
"oX c #FFBE61",
"OX c #CFC55F",
"+X c #CBC464",
"@X c #DACE66",
"#X c #D8D46B",
"$X c #FFC562",
"%X c #E3DD6D",
"&X c #ECE76E",
"*X c #F2ED6E",
"=X c #F5F16F",
"-X c #E6E571",
";X c #EAE572",
":X c #EEEB72",
">X c #F0E571",
",X c #F3EE71",
"<X c #F5F171",
"1X c #FAF472",
"2X c #FEFB75",
"3X c #FFFE79",
"4X c #55C582",
"5X c #5CC481",
"6X c #56C985",
"7X c #5ACA85",
"8X c #55CE88",
"9X c #5DCF88",
"0X c #5DD28A",
"qX c #60C783",
"wX c #62CB86",
"eX c #64CF88",
"rX c #65D18A",
"tX c #68D58D",
"yX c #65D98F",
"uX c #69D98F",
"iX c #66DB91",
"pX c #69DC91",
"aX c #81838E",
"sX c #B1A498",
/* pixels */
"rXrXrXrXrXrXrXrXrXrXrXrXrXrXrXrXrXrXrXrXrXrXrXrXrXrXrXrXrXrXrXrXrXtXrXrXrXrXrXrXrXrXrXrXrXrXrXrXrXrXrXrXrXrXrXrXeXtXrXeXrXeXrXrX",
"rXrXrXrXrXrXrXrXrXrXrXrXrXrXrXrXrXrXrXrXrXrXrXrXrXrXrXrXrXrXrXrXrXrXrXrXrXrXrXrXrXrXrXrXrXrXrXrXrXrXrXtXeXrXeXeXyXk.wXtXrXrXrXrX",
"rXrXrXrXrXrXrXrXrXrXrXrXrXrXrXrXrXrXrXrXrXrXrXrXeXtXrXrXrXrXrXrXrXrXrXrXrXrXrXrXrXrXrXrXrXrXrXrXrXrXrXrXeXrXeXiX9.T e.pXeXeXrXeX",
"rXrXrXrXrXrXrXrXrXrXrXrXrXtXrXrXrXrXrXrXrXrXrXrXeXrXrXrXrXrXrXrXrXrXrXrXrXrXeXtXrXrXrXrXrXrXrXrXrXrXrXeXeXeXiXi.^ F.e.4X5XyXrXrX",
"rXrXrXrXrXrXrXrXrXrXrXtXrXrXrXrXrXrXrXrXrXrXrXrXrXrXrXrXrXrXeXrXrXrXrXrXrXrXrXrXrXrXrXrXrXrXrXrXrXrXeXrXeXrX9Xz T.F =.s l iXeXeX",
"rXrXrXrXrXrXrXrXrXrXrXrXrXrXrXrXrXrXrXrXrXrXrXrXrXrXrXrXrXrXtXrXtXrXrXrXrXrXrXrXrXrXrXrXrXrXrXrXrXrXrXrXeXuX8.] ~.* z *.l iXeXeX",
"rXrXrXrXrXrXrXrXrXrXrXrXrXrXrXrXrXrXrXrXrXrXrXrXrXrXrXeXrXrXrXrXeXeXrXrXeXtXrXrXrXrXrXrXrXrXrXrXrXrXeXeXtX7Xx Y.[ o ~.$.y.pXeXrX",
"rXrXrXrXrXrXrXrXrXrXrXrXrXrXrXrXuXrXrXrXrXrXrXrXrXrXrXtXrXrXrXrXrXrXrXrXeXrXrXrXrXrXrXrXrXrXrXrXrXrXrXeXtXe...^.5 #.).= =.rXrXeX",
"rXrXrXrXrXrXrXrXrXrXrXrXrXrXrXrXrXrXrXrXrXrXrXrXrXrXrXrXrXrXrXrXrXrXrXrXrXrXrXrXrXrXtXeXrXrXrXrXrXeXeXrX7X; W.' K E.[ 9 2 g.yXrX",
"rXrXrXrXrXrXrXrXrXrXrXrXrXrXrXrXrXrXrXrXrXrXrXrXrXrXrXrXrXrXrXrXrXrXrXrXrXrXrXrXrXrXrXrXrXrXrXrXrXrXeXyX7.1 $.D U.#.G Q.z 6XrXrX",
"rXrXrXrXrXeXrXrXrXrXrXeXrXrXrXrXrXrXrXrXrXrXrXrXrXrXrXrXrXrXrXrXrXrXtXeXrXrXrXrXrXrXrXrXrXrXrXeXeXrXrXk.x ' Q $.H.w ~.H r.uXwXrX",
"rXrXeXrXrXeXeXeXeXrXeXrXrXrXrXrXrXrXrXrXrXrXrXrXrXrXrXrXrXrXrXrXrXrXrXrXrXrXrXrXrXrXrXrXrXrXrXrXrXeXiXy 6 ` _ Q.w S.#.=.uXeXrXrX",
"rXrXrXrXrXtX0XyXuXeXeXeXeXeXeXrXrXrXrXrXrXrXrXrXrXtXrXrXrXrXrXrXrXrXeXrXrXrXrXrXrXrXrXrXrXrXeXrXeXuXp.o Y Q D.Y V.V.+ 8 j.rXrXrX",
"rXrXeXeXtXu.j k t.9XpXeXeXrXrXeXeXeXrXrXrXrXrXrXrXrXrXrXrXrXrXrXrXrXeXtXrXrXrXrXrXrXrXrXrXrXeXrXrX9Xm Q q $.Q $.Z.9 C.x g.yXeXrX",
"rXrXrXrXpXk @.A...m w.9XuXrXeXeXrXrXrXrXrXrXrXrXrXrXrXrXrXrXrXrXrXrXrXrXrXrXrXrXrXrXrXrXrXrXrXeXpX8.  # X._ D.$.G !.V.:.yXeXrXrX",
"eXrXrXj.k.h.E Q.~.P.#.m w.9XuXtXeXrXeXrXeXrXrXrXrXrXrXrXrXrXrXrXrXrXrXrXrXrXtXeXrXrXrXrXeXrXeXtXg.T + 3 ..V.' ~ U.U.r k.rXrXrXeX",
"eXuXp.~ { 4.-.x P.R.U.P.o.v w.4XyXtXrXeXeXrXrXeXeXrXeXrXrXrXrXrXrXrXrXrXrXrXrXrXrXrXrXrXrXrXrX0Xf A 7 ` %.W ] ~.~.e i.uXeXrXeXrX",
"eXuXy.| E.A.( d $ | ~.U.U.P.O./ 2.g.0XiXtXrXeXeXeXeXrXeXrXrXrXrXrXrXrXrXrXrXrXrXrXrXeXrXrXrXrX7.6 U q ' ~ %./.Z.5 $ tXrXrXrXrXrX",
"eXeXrXl &.I.P.S.F   w $.Q.U.I.I.A.( d e.d.8XiXtXtXeXeXrXrXeXrXeXrXrXrXrXrXrXrXrXrXrXrXrXeXiXy.' ' A 4 $.Q.W.[ _ ] l 0XeXrXrXrXrX",
"rXrXeX;.g H.T.P.T.S. .A G $.I.I.U.I.V &.! c e.d.6XyXyXrXeXrXrXrXrXrXrXrXrXrXrXrXrXeXrXwXuXs.8 | o 0 G ~.[ Y $.A.x h.yXeXrXrXrXwX",
"eXpX:.D f X | ~.I.I.U.U.o.A H | V.~., ' _.Y. .- m e.j.rXyXrXeXeXrXrXrXrXrXrXrXrXrXrXeXrX6Xc 6 ` _ 2 U W ' W.$.> >.pXeXyXj.9.uXeX",
"eXpX<.@.T.H > W  .I.T.I.T.I.V.K B _ @ 7 G  .0 C.P.C.+ j u.7XuXeXrXeXeXrXrXrXrXeXeXrXrX0Xl W.W ' 7 1 ..!.C.` Q U e.rXeXrXf.,.pXeX",
"eXrX4Xz U./.U.B.D H L P C.I.R.E.T.W.9 O.V.B & %.^.{ H /.G d j.tXeXrXrXeXrXrXeXrXrXeXyXy.U o.< e ` 6 Z.` R Q v t.iXrXrXyXf.y.tXrX",
"rXrXuXi.x &.U.U.T.A.] 0 F ~ H J H #.6 @ | ^...@ { 4 ] H.6 U.: i.tXeXrXrXrXeXrXrXrXtX4Xb G + #.t U 1 7 X._ X 4XiXrXrXrXyXp g.tXrX",
"rXrXeXuXh.l G @.A.T././.I.C.B.P _ H O ..K W = %.U.S.V = , O.B x 7XrXeXrXrXrXrXeXrXyXu ! ( } F F 3 & { Q : k.yXeXrXwXpXt.3.uXeXeX",
"eXrXrXeXyXrXh.<.5./ H c.H.!.U.T.R._.H.A I.~.' 0 _ B.S [ S.A 1 ` u pXeXrXeXrXrXrX7X4.J.|.}.'.$X'.e 1 ..0 3.uXwXeXrXpXp.>.eXrXrXrX",
"rXrXrXeXeXrXy.<.>.p h $   & 6 V V V S   6 S W o ` L D S V.~ B B 2 d.iXeXrXeXrXrX1.!. X].M.sXB.$X} 1 H 2.rXeXeXuXrX8.,.rXrXeXrXeX",
"rXrXeXrXtXk.- &.@.%.V.C.I V.V.V.#.o. .< [ W.G.V | G.D.4 H G V 4 B z 6XrXrXeXuXd.x. X'.K.M aXJ.J.z.l.* k.uXeXeXp.,.t.yXeXrXrXrXrX",
"rXrXrXeXrXrX2.H R./.P.U.U.I.I.I.T.T.R.W.A G C.B.@ D ' B V.[._ 6 G.@ 2.iXeXeXpXk K.}.'.|.( ( K.U J.C >.tXeXrXj.t.k.yXrXeXrXrXeXrX",
"rXrXrXrXrXrX0Xt.z H F.A.I.T.I.I.A.A.V.G.S & ..| 0 B.(.~.S 6 0 A ` 1 ! 9.0XpX0X5.{.'.'.{. X$Xc.` J &.1.rXeXeXrXuXuXeXeXrXrXrXrXrX",
"rXrXrXeXrXrXrXuX8Xi.<.g o O > > < G ~ { _ w Z.~.W.1 < D & S C.$.# w { + n 0.p c.}.}.'.'.'.'.]./ h : u.tXeXrXrXeXrXrXeXrXrXrXrXrX",
"rXrXrXrXrXrXeXwXuXe.l.z.H L  .B.Z.S.!.U.R.V.O < Z 1 Z  . .A @ ' D.A W $.B w z.l.c.`. X{.}.]. Xz.h.rXrXeXrXrXrXeXrXrXrXrXrXrXrXrX",
"rXrXrXrXrXrXrXwXuX<.L Y.(.R.R.Y.T.~.U.~.S.F., ` S.Q.O.> ` X.Z _ | Z 0 #.~ +.%X-Xb./ ( K.K.oX XB.y pXeXeXeXrXrXrXrXrXrXrXrXrXrXrX",
"rXrXrXrXrXrXrXrXrXrXt.j E ) X.c.] H ~ W S ~ | B G ' Q 1 ' V.X.= W Z.` o.| S XX1X2X:XXXz.E ) t z.f 7XrXrXrXrXrXrXrXrXrXrXrXrXrXrX",
"rXrXrXrXrXrXrXrXrXeXuX9X6Xs.3.j o < _ $.A.I.U.).7 ' H.Q.O.# ..Z.W + ..Q { !.+X1X&X*X2X1X:XN.#X<Xm.=.pXeXeXrXrXrXrXrXrXrXrXrXrXrX",
"rXrXrXrXrXrXrXeXrXrXeXtXp.x c.Z.I.~.T.U.T.T.C.] A 9 _ _ Q 0 G { ` B 0 U X.W @X1X,X,X,X,X<X2X<X<X@Xh yXeXrXrXrXrXrXrXrXrXrXrXrXrX",
"rXrXrXrXrXrXrXrXrXeXeXuXt.F I A.I.L.~.V.P ` 0 G ~.#.& G.S.).B.o | @.A > 5 s >X1X,X,X,X,X,X,X,X=X*X6.9XrXeXrXrXrXrXrXrXrXrXrXrXrX",
"rXrXrXrXrXrXrXrXrXrXrXeXyXk.=.f 5.5.= 1 0 $.U./.%.H q ~ K ~ G J o w D.^ 6 ) >X,X,X,X,X,X,X,X,X<X>X4.eXrXeXrXrXrXrXrXrXrXrXrXrXrX",
"rXrXrXrXeXrXrXeXeXrXrXrXeXrXyXyX6Xd K Q._.S.[ ~ V [ _.w A G.Z...Y 5 @ Z ] n.2X,X<X<X<X,X,X,X,X<X%Xk rXrXrXrXrXrXrXrXrXrXrXrXrXrX",
"rXrXrXrXrXrXrXrXrXrXrXeXrXrXeXrX7Xl l.5.- q C V.T./.$.q D A 3 Q { Z N 6 x -X<X,X,X<X,X,X,X,X,X2XOX:.uXrXeXrXrXrXrXrXtXrXrXrXrXrX",
"rXrXrXrXrXrXrXrXtXrXrXrXeXrXeXeXrXtX8Xp ` ~._.~.V.G A W.Z.7 , & 3 W { ' n.2X,X*X<X<X,X,X,X<X*X2Xm.h.uXeXrXrXrXrXrXrXrXrXrXrXrXrX",
"rXrXrXrXrXeXtXt.k.tXrXrXeXrXrXrXrXeXrXe./ ! 9 7 W O.).#.w $.0 H > = > / %X<X,X,X,X<X,X<X<X,X*X1Xc <.qXrXrXeXrXrXrXrXrXrXrXrXrXrX",
"rXrXrXrXrXeXtXp.>.yXtXeXeXrXeXrXeXrXeXrX9Xq.-  .U.G.S _ G.w C.#._ D.e :X1X*X,X,X,X,X<X,X,X,X3XXX- G 1.rXeXrXrXrXrXrXrXrXrXrXrXrX",
"rXrXrXrXrXrXeXiXy.>.k.tXuXuXyXuXtXeXrXeXtXk.4.b n o ' F.4 V.#.4 ).6 b.2X*X,X,X<X<X,X<X<X,X,X,Xx.J.E w.pXeXeXrXrXrXrXrXrXrXrXrXrX",
"rXrXrXrXrXrXrXeXuXd.0.>.,.9.0.0.g.yXrXrXeXtXrX6X6X; x $ Q D.X %.#.. #X<X*X<X<X<X,X,X<X*X*X2XN.s X.2 i.tXeXrXrXrXrXrXrXrXrXrXrXrX",
"rXrXrXrXrXeXrXrXeXuXuXk.d.p.u.a.k.rXeXrXrXeXrXrXrXqX7Xf.z 9.f ' y 6.1X:X,X,X,X,X,X,X*X&X2X#Xh 9.d h rXeXrXeXrXrXrXrXrXrXrXrXrXrX",
"rXrXrXrXrXrXrXrXrXeXeXrXuXyXpXpXtXrXrXrXeXrXrXrXrXrXrXeX9XpXu.d.9.OX2X,X,X*X,X*X<X3X:X2X#Xx n 5X9XeXtXrXrXrXtXrXrXrXrXrXrXrXrXrX",
"rXrXrXrXrXrXrXeXrXuXeXeXrXuXk.k.tXeXeXrXrXeXeXeXrXrXuXtXpX9X7Xq.5.2X,X<X,X,X=X;X#Xb.l.l.) v.^ g 0XrXeXrXrXrXrXrXrXrXrXrXrXrXrXrX",
"rXrXrXrXrXeXrXuXj.f.uXeXj.y.0.7XrXeXrXrXrXyXpXiX0X6Xh.s.9.j / $./ -X=X*X,X,X*X:Xz.T # x ) v.( :.tXrXrXeXrXrXrXrXrXrXrXrXrXrXrXrX",
"rXrXrXrXrXrXeXrX5Xp ,.9.0.f.rXrXrXrXrXrX0Xd.e.6.5.v E } %.P.P.$.3 b.3X*X<X1X2X,X/ c.K.v.d ( j eXrXrXrXrXrXrXrXrXrXrXrXrXrXrXrXrX",
"rXrXrXrXrXrXrXrXtXtX5X7XyXtXrXrXrXrXrXj.n { A.L.P.R./.H..._ S G Q q b.-X%X@Xn.s 3 T .X7.j.l 5XrXeXrXrXrXrXrXrXrXrXrXrXrXrXrXrXrX",
"rXrXrXrXrXrXeXrXeXrXrXrXrXrXrXrXrXrXuXt.G S.V.o.' ' ` Z D $.o.Q | _ 5 q 8 o 7 W D ` * 6XtXrXtXeXrXrXrXrXrXrXrXrXrXrXrXrXrXrXrXrX",
"rXrXrXrXrXrXrXeXrXeXrXrXrXrXeXrXrXrXeXyXq.$ O , V B.H.S.V.` _ W.~ _ o.` D ` $.D ` F.} i.tXrXrXrXrXeXrXrXrXrXrXrXrXrXrXrXrXrXrXrX",
"rXrXrXrXrXrXrXrXrXrXrXrXrXrXrXrXeX0XrXf.x B.!.(.(.A.' ~ ~ !.Q.C ` Z.Z W.S V.X.C ` A z h.rXrXrXrXrXrXrXrXrXrXrXrXrXrXtXrXrXrXrXrX",
"rXrXrXrXrXrXrXrXrXrXrXrXrXrXrXrXrXrXyXd L U.C.H W R ' I.).#.B $.!.B S.O.` A...D  .d 4XeXeXrXrXrXrXrXrXrXrXrXrXrXrXrXrXrXrXrXrXrX",
"rXrXrXrXrXrXrXrXrXrXrXrXrXrXrXrXrXrXrXqX1.7.a B $.W.R.S.~ W H.Q.B $./.V A.' ] C 4 a.pXeXrXrXrXrXrXrXrXrXrXrXrXrXrXrXrXrXrXrXrXrX",
"rXrXrXrXrXrXrXtXrXrXrXrXrXrXrXrXrXrXeXrXpX0.o.~.U.Q. .Y  .!.T.w  .R.$.G _.B #.< i rXrXrXeXeXrXrXrXrXrXrXrXrXrXrXrXrXrXrXrXrXrXrX",
"rXrXrXrXrXrXrXrXrXrXrXrXrXrXrXrXrXrXrXrXh.T (.U.C.C _ S.T.!.4 ` T.!.W %.Q.0 &.z tXrXrXrXrXrXrXrXrXrXrXrXrXrXrXrXrXrXrXrXrXrXrXrX",
"rXrXrXrXrXrXrXrXrXrXrXrXrXrXrXrXrXeXrXrX6Xg J e % o.~.U.W.& 6 ~.~.` C (.o.; z p.tXeXrXeXeXrXrXrXrXrXeXrXrXrXrXrXrXrXrXrXrXrXrXrX",
"rXtXrXrXrXrXrXrXrXrXrXrXrXrXrXrXrXrXrXrXuX4Xi.s.z U.U.o.j ; S.Q.Z.X W H.j 7X6XrXeXrXrXrXrXrXrXrXrXrXtXrXrXrXrXrXrXrXrXrXrXrXrXrX",
"rXrXrXrXrXrXrXrXrXrXrXrXrXrXrXrXrXrXeXrXrXrXuXpXu.8 z e.;.9 /.@.f h.e.e.5XuXrXeXrXrXrXrXrXrXrXrXrXrXrXrXrXrXrXeXtXrXrXrXrXrXrXrX",
"rXrXrXrXrXrXrXrXrXrXrXrXrXrXrXrXrXrXrXeXrXeXeXeXrX4X6XpX9X1.v 1.7XuXrXiXrXrXrXeXrXrXrXrXrXrXrXrXrXrXrXrXrXrXrXtXeXrXrXrXtXrXrXrX",
"rXrXrXrXrXrXrXrXrXrXrXrXrXrXrXrXrXrXrXrXrXeXrXrXrXrXuXeXrXtX7XiXrXeXeXeXrXrXeXrXrXrXrXrXrXrXrXrXrXrXrXrXrXrXrXrXrXrXrXrXrXrXrXrX",
"rXrXrXrXrXrXrXrXrXrXrXrXrXrXrXrXrXrXrXrXrXrXeXrXrXrXeXrXeXeXrXeXrXrXrXeXrXrXeXrXrXrXrXrXrXrXrXrXrXrXrXrXrXrXrXrXrXrXrXrXrXrXrXrX"
};
