/* XPM */
static char *result[] = {
/* columns rows colors chars-per-pixel */
"64 64 220 2 ",
"   c #2B582D",
".  c #315D2E",
"X  c #2E5B32",
"o  c #2E662E",
"O  c #2C6D2D",
"+  c #35642E",
"@  c #346C2E",
"#  c #3B6D2E",
"$  c #34732F",
"%  c #3A742E",
"&  c #3F7D2F",
"*  c #346531",
"=  c #3A6532",
"-  c #346B31",
";  c #3C6C32",
":  c #377133",
">  c #3C7433",
",  c #3D7B32",
"<  c #3E7339",
"1  c #3E7A38",
"2  c #426F2E",
"3  c #40762B",
"4  c #427E2F",
"5  c #426C34",
"6  c #496C38",
"7  c #437434",
"8  c #497435",
"9  c #447B34",
"0  c #4B7D35",
"q  c #43753A",
"w  c #4B7539",
"e  c #447C3A",
"r  c #4B7C3B",
"t  c #5B7734",
"y  c #537D36",
"u  c #537E3B",
"i  c #587E3C",
"p  c #477941",
"a  c #547E41",
"s  c #3B812E",
"d  c #3F8232",
"f  c #3E8039",
"g  c #41832E",
"h  c #49862E",
"j  c #448A2E",
"k  c #508F2F",
"l  c #4F952F",
"z  c #5B9E2F",
"x  c #448334",
"c  c #4B8435",
"v  c #458B33",
"b  c #4C8B34",
"n  c #45823A",
"m  c #4C843B",
"M  c #458A3A",
"N  c #4C8B3B",
"B  c #528435",
"V  c #5B8535",
"C  c #538C35",
"Z  c #5B8C35",
"A  c #53843B",
"S  c #5A853A",
"D  c #548C3B",
"F  c #5B8C3C",
"G  c #4C9234",
"H  c #4D923B",
"J  c #539335",
"K  c #5A9436",
"L  c #559B35",
"P  c #5B9B36",
"I  c #54933B",
"U  c #5B943C",
"Y  c #559A3B",
"T  c #5C9B3C",
"R  c #63883A",
"E  c #638C3C",
"W  c #629537",
"Q  c #639B35",
"!  c #6A9E36",
"~  c #62943C",
"^  c #6B953E",
"/  c #639C3C",
"(  c #6A9D3D",
")  c #729A3B",
"_  c #719D3D",
"`  c #5CA235",
"'  c #5DA13C",
"]  c #63A336",
"[  c #6AA436",
"{  c #63A23D",
"}  c #6BA33C",
"|  c #64A93B",
" . c #6CAB3D",
".. c #76A539",
"X. c #74A33E",
"o. c #73A93D",
"O. c #7BAB3D",
"+. c #6CB035",
"@. c #6EB03F",
"#. c #79B03F",
"$. c #4D8442",
"%. c #4E8B42",
"&. c #538340",
"*. c #5A8542",
"=. c #538C42",
"-. c #5B8C43",
";. c #568B4A",
":. c #5C8B4A",
">. c #4E9242",
",. c #549342",
"<. c #5B9343",
"1. c #569A42",
"2. c #5C9B42",
"3. c #579148",
"4. c #5C9349",
"5. c #559849",
"6. c #5D9C4B",
"7. c #5F8F53",
"8. c #5D9C51",
"9. c #638643",
"0. c #638D44",
"q. c #6D8D42",
"w. c #638D49",
"e. c #639443",
"r. c #6C9544",
"t. c #639B43",
"y. c #6B9C44",
"u. c #63954B",
"i. c #6B944A",
"p. c #649B4A",
"a. c #6B9C4B",
"s. c #729542",
"d. c #709D43",
"f. c #739C4B",
"g. c #7A9D4D",
"h. c #639551",
"j. c #6E9554",
"k. c #629D51",
"l. c #6C9D53",
"z. c #6D9C5A",
"x. c #739C53",
"c. c #70945A",
"v. c #5DA243",
"b. c #5FA844",
"n. c #5DA249",
"m. c #64A344",
"M. c #6BA344",
"N. c #65A944",
"B. c #6BAB43",
"V. c #64A34A",
"C. c #6BA44B",
"Z. c #65A94A",
"A. c #6CAB4B",
"S. c #72A443",
"D. c #78A445",
"F. c #73AB44",
"G. c #7AAB44",
"H. c #73A44B",
"J. c #7CA54D",
"K. c #74AC4C",
"L. c #7CAC4C",
"P. c #6DB145",
"I. c #74B244",
"U. c #7BB443",
"Y. c #7DBD45",
"T. c #74B34C",
"R. c #7BB34C",
"E. c #74BA4B",
"W. c #7ABB4B",
"Q. c #65A453",
"!. c #6CA453",
"~. c #67AB54",
"^. c #6DAC53",
"/. c #6BAA5A",
"(. c #74A453",
"). c #7CA354",
"_. c #73AD53",
"`. c #7BAD54",
"'. c #72A45B",
"]. c #7EA65C",
"[. c #73AB5A",
"{. c #7BAB5C",
"}. c #6FB251",
"|. c #74B353",
" X c #7BB353",
".X c #75BB54",
"XX c #7BB953",
"oX c #76B55B",
"OX c #7CB45C",
"+X c #7DBA5A",
"@X c #6EAD62",
"#X c #7DB667",
"$X c #8AAE3E",
"%X c #85A941",
"&X c #82A54C",
"*X c #80AA4B",
"=X c #82B34C",
"-X c #85B94A",
";X c #84A356",
":X c #82AD51",
">X c #8AAE51",
",X c #82AF5D",
"<X c #83B553",
"1X c #83BA53",
"2X c #8BB853",
"3X c #83B55C",
"4X c #83BB5A",
"5X c #8CBC5C",
"6X c #82AC66",
"7X c #83B363",
"8X c #85BC64",
"9X c #8DBA62",
"0X c #95BB6D",
"qX c #94BA75",
"wX c #82C54A",
"eX c #84C353",
"rX c #84C15C",
"tX c #86C95E",
"yX c #89C265",
"uX c #9BC26D",
/* pixels */
"9 T 2.H T.1.F.D 8 7 N | ' ( T m e / Y P T I D ' S.7 u F N N A.1.s G T v L 1.m. XU J.} T Y K D B b x J c 9 / K.U e.r > b L b C } ",
"H n 1 m 1.T B.t.9 n T N I K M.b T M.B.N.C K / / K b A m.N 2.m.Z.I b / b v G N.} y.L.=Xi.8 b W ( > @ v j K / K Z S D x L P Z t.D.",
"m m t H.5.N T T 9 v m w d P.-.8 C U b P./ b I Y x 1 T / b .XV.N I 1.L.` C N m h Q X.*Xd.W / ( ..c $ % ` F 7 Z.e.S U I J T b / ( ",
"m I B / ,.v.Y N x N e A c ( D - c N d ,.m.T 9 > 2.x ] J > ,.b.2.b B o.! / r.R B W ! ! +.! K K J ] P b } r.7 Y Y Y I x C M./ W B ",
"w e.<.I Y b v.Z.M.e >.I <.D U t.T r n v L n 8 <.2.T t.b A 5 N Y Z % M.o.*XP Y b Q J P Q [ C m.K F =.N T 9 2.v.L G G T M.C c S.0.",
"6 &.U =.<.; I ' F.J v b t.Z M.T T / Q.U x Y D S.K.' K.f.R > > I B.V y.{ T L  .} J G b.T.Q U 6._.<.x b x , P L v l v b K._.t./ / ",
"^ <.e T.m.%.m.K ' T b 0 c { B.L b g L m.I I T Q m.P D R W F r n F.e.v v G | `  .T V.oX=X/ b A.=.c I K l b C K D D c I t.4X XT P ",
"F I I N f x N D b ' D q.F a.i.U & i b K r.K Q b L P E F ^ E l.G =Xy.d k C P ' T Y 5.( ] T J b 7 @ b  .P M.c A E r.i.C 2.K / f.W ",
"m.H.A.m 9 > . K 8 F M.0 A.OX`.C.-.R J v.M.K J C j b c v.N N I n I b l K m.M.T / L L ` Y P b v I C k B.l.0.i 2 V a. XC D b Q ( f.",
"`.<.( ~ y c e Z.M.S.8 A R.=X`.T.=.G T.v.B.I.D @ % x ' I c 6.c c x v C v G K.{ l L { ] P J W Q J J  .R.p.D D.e 7 / K.M.Q C K E r.",
"R.e.t.0.D ,.N I ' / w.i.` m.F V ( ,.n.U p.{ U B c U M.9 , N b x I D D 9 O G F.{ } ^ P | C Z Z q 5 <.=X .U m $ - L B.N J ( F r.E ",
"C.I /.^.<.$.e % =.D V.<.{ A.4.7 C n b L <.m b B S.L.D 1.I n = c M.V 9 7 < 0 / T B.~ Q U ` D &.Y D 1.<.U U <.m > I N b P B U  .K ",
"Z.0 B t.m.,.%.> m I t.F N T eX2.g t.C.N.,.- , j L m.m D T G ; v U A y K 7 c b j { 2.T K / Y ,.Y C.t.v M =.p.<.v T 2.Y F.F I  . .",
"/ F i./ b <.^.^.6.> F I.( 7 c Y b n U t.v , x G I t.F F b c v 1 d t.E F 8 I G k P T V.{ C x Y t.!.D N = > e w H T -.9 ~ H.).]  .",
",.F 2.|.F U p.p.m < m.F.G.t.Y I e % e.s.U 1.,  .~ C.^ E 9 % L N & ( / b c m.P I } O.P D Y d P L._.I m 9 t.> 0 H.~ F ; b ' t.Q @.",
"Y G e.<.T }.R.1.J Z.B.U U ' A.t.p.m ~ C.m.I x I / Q B.,.M v v T Y J } B c C ~ U H ' Q S.C.J L ` Y 2.G T H.T { I } / M ' M D B.T.",
"d C F u 9 A R.Y.@. .N r I 1.A.1XU p.H.D c x b C I L N.I M N T ' <.I m.i.<.m 0 h W { H T C.D I v Y S.C / XXI x G F.t.t.n e m.N.T ",
"4X+Xi.0.C m m B.T P m.e ,.T e.`.f.y./.#X8.m T / J ' B.( <.= m t.m.B.m.U M.d.V D o.S J { m.2.N x G D M.-X} g 7 i b 2.p.o I N.p.B.",
",.2.<.I v 1.N I N.N.6.b G ^.!.6.w H.A.[.r e n.b N I ' m.r.U <.1.V.`.K.K K K H { #.( Q U 2.B.m , Y J  .a.C.Q W c n I : =.`.M.;.C.",
"r n %.$.x & N e.B C.n.Z.6.6.v.x S K.M.=.<.F U @ : v ` D b { F.u m t.M.K b C ` v z -X2.T A D , v I H ` K F.T n U <.2.Y p.K.H.r b ",
"n <.Q.5 9 >.A.A + K M.v.m M L v.m.M.y.e I T Y N , L U D ~ ~ `.a.u.m x b ,.T D G v  .! y.( 0.c Z 2.C J K P { { T.C.v.A.m.' F y R ",
"7 A F D H XXXXb o <.~ ' D C ' 2.T K D ,.x N v.{ v.L T /.<.Z ,.n.n., c = M T b % 9 L X.} K K C ` L h b , 0 T ` m.N.b T B.T c F S ",
"1 , H m./ ~ F C G D ^ / y Z T Y ' L Z y./ c & / _.N n.V.m.S.N T x L F A b A 2 n t.O.#.( K } b T K G v 9 N L { t.c P ` P.K 0 *.K.",
"2.<.2.B.S.w * e K.( F e.Z 8 ; Y N.N I U 5Xe v N t.L D q 6.=.,.m.H Y D m V M.D K.R.c v C G.G.e.,.n v Y Y / P X.H.D r./ P.] D :.<.",
"p.u.2.I.1XC.&.7 A T 1.C.+Xm - Y Z c K B.e.r D I L.7 , c : - N I v.Y x m B.`.<.C.1.+ - B ( Q ..t.G G P Q c 4 Y t.m.m.T c | ` V.,.",
"t.C.2.C.#X.Xp.t.e n M.s.f.e.A x n P b I K./ 9 B.J y $.I e > > A.A.2.Y n.p.e.e.p.N N c > b Q D 7 , b / F t.c M.V.&.K Z C T P.Y I ",
"2.p.4.e k.,.m.2.c v U.d.S > e H N C t.4.T.` D U V b 1 N m 7 7 C.V.J D -.9 N ' U -.I U I x K - % , M b :./ b L T.(.# c K C T m.Y ",
"<.A !.m m H m.c -.I  .5X}.1 : , t.y.p.4.,.7 m.D 9 { T a.p.9 i e U m.-.e N I I A.|.4.<.2.L -.r n r %.m.=.Y & O ` ..D K K 9 > t.m.",
"r.m Q.1 x ' C.i (.eXt.B.2.- * > C.,XV.4.&.b Y ~ A e.B.e.t.b N T I <.x b m U { / F.1.d I N I I K T H.C.Y m.t.n N  .} { m.L % b b ",
"].u I / v.,.9 ;. XL.}.C.A o - 7 I 3X_.m.1.^.v.I D m.I D v H H t.1.A.u Z q U S.*XP ] U 9 D p.I G T H.!.k.p.m m N Y T | m.T T | c ",
"i.0.N N.n.n v m.m B V.c c 9 F C.m b v.V.K.1XC.2.b H n m D Y A 2.V.,.R ~ ; b F.H.I M.( A e.M.m & L V.p.p.U > 9 K { | P C u.,.t.<.",
"G D 2.T.<.w A K.=.U x T 9 r p.<XT > N !.'.S.K.I b x > I | 2.2.m.B.T T b x , D.r.S Z B V K F { i.n G G K T c J F.t.{ e S 0.D D 9 ",
"D U y.j.].).i.1.I m H Y e.6Xp.p.<.%.v.B.v.n D =.T T y Z.D D m.J m I Y A C 0 D  XT.S ^ T C A F.M.t.T C.D U Y J W C.K.u.D 7 b t.m ",
"S } F -.u.OX<Xv m 0 U ' <.l.<.q 4.~.|.N N m.N N D I } I.m > v | o.m b U S e.<.T 4X`.J J D.E ~ ( M./ x.w.r c g L X.{ U c N ' V.<.",
"1.~ -.4.!.6.,.d Y =.x m.M v H.Q.m.c p.p.> i.m.m.,.N M.B.=.=.' 2.t.H.m.N 9 M.C./ M.B.c b Q Q C I H.3X-.q + D 2.P K ` Q F t.c m C ",
"A.^ N n e 2.e N L Y N m.2.t.J T oXt.%.D 9 <.tXQ.- ,.m m.V.B.|.n m T.v.d 4 Q N.T L G B c T K.M.L.).).0.> m I I m b Q K W / b c b ",
"Z.=.H m.3.%.<.m t.OX<.D m.t.t.D m.2.2.b e.<XV.X o M I b.2.f +X<.- =.I x m.t.T ( Y d Y / / A.H.} d.r.qX;.r 2.v., g b ] X.0 U C V ",
"_.M %.B.-.<.I =.`. X!.4.m.N.T A Y ,.=.p.T T - . b v v.N.f ; I ^.L n I D y.F.Q / F.m.M.=XB./ U F.&Xf.uX0X{.rX X0.m L [ K 5 A e 5 ",
"yX,.,.2.,.K.e v.Z.%.z.p Y wXY N 1.;.C.K.<.N > %.U 2./ b x 2.H P.Y H 9 I <.~ } F.A.B.G.r.M U } M.^ s.s.0X(.{ { <.D C / K 0 y e <.",
"<.2.T 2.A.M.d Q.$.- :.8.v.B.<.D I =._.<XQ.e ; e ;.4X#Xp 2.2.' T x n b Y / y.-XG.M.W c n J Z r.Z R t r f.).' T B.m.J 0 m V e.K B ",
"A e n I n.K V..Xv.H Y I m.' <.D C Z W B.p.w 3.8.,.4XV.I m.U Y b , n P C / / G./ y.D * -.( I b J Z m > c a.9XH 0 { Q 8 F y.*XX.y ",
"V.e m I Z B.V.=.%.6.n.0 ,.N.m.r.Q m.H.e.A.8X/.b ;.8XY x U  .n U 9 > K H.K d.P P 8Xa.<.C.-.m Z t.t.r X - D 4X|.K ! Q V ! ....r.8 ",
"C.< > N N E.}.I 0 6.N n 2.e. X9Xf.B.*Xx.p.-.D b 7Xz.~ M.<.t.U C.t.F <.x.y._ ( m.H.&.b ( J Z F A 9.u q u.4.;.V. XL.Z [ $X..J X.=X",
"A > q $.1.<.,.| C.|.-.D S.]._.{.K.F.^ -.M.7 A m.).H.7XS m.t.w m F m.y.9.p.r.d.y.R 5 I T.N 2.K Z 6 r <.t.K.e.K { T } F...O.> z t.",
"t.4.6.8.T < I ,.| L.f.I ^.:.c 3 G } u.c e.U I F =.oX(.Z T t.A a 6 n x m <.K W S 7 0. X<.D N 9 V u *.t.{ ] _.<.Z T L M.T I.C t.D ",
"m.;.,.,.m 8.2.m <XU C.I <.m B.F F o.U B 2.2.9 F 6.B.T D I q u 0 T ,.9 U P P 9 = c 1Xa.N 2.$.w ~ K M.A.T y.-.{. XD.H.' > J +.X.a.",
"e <.V.M ,.}.N I t.I U = r M.R.o.J.) u y T I t.p.u.|.I.F.v.1 9 I N.5.r OXXXR.D B A 4X2.%.D 2.c Z m N Z.t.t.F f.U T F t.x 9 Q J J ",
"A H.p.M 6.S I I y.2.<.5 I F t.U.q.i *.i.g.M.A.e !..X5XrXe.U F } I ,.`.7X3XF.<.D C.t.-.V.T 0 + D m 2.2.U B.H I A j C I =.p.T U b ",
"V < Q.>.c 1.y.-.K.'.m w N , t.F.d.2.e.S g.).N <.u.l.B. Xu.N E y.7 V M.T -.2.- a H.F ;.t./ m I 2.2.p.T K D L | ~ T U G J K.H Y T ",
"=.^.~.U F T a.&.Z.=.< 4.D I B.P.R.p.F i *.' J D ; $.N U V.2.; l.u.F 2.B.s.w   w r 1 2.m.M./ D C 9 1 H $.m ] } B & $ v l L d G U ",
"+XK.e.V.C.x.r q ,.V.:.D T I.Y.T.XXoX<.;.;.E f.-.1 I 7 b 2.' q a ^.t.m.B.C.D + e 1 9 N K B.V.A b x H A.h.p.n F ; c G j v.T I P Q ",
"Y.r.y.t.<.m.N C = 1 N t.~ J E..XI V./.@X%.S j.t.U e.N Y , U K b m..XR.#Xr < 1 %.4.%.;.I y.<.H h b e.0.t.<.> S F I ' K 2.0.T 2.F ",
"1.M.N.! V > 9 / 7 - N.<.=.I V.8.N ,.M N r D <.<.R.~ m.I : r T r.B.T.6.l.=.6 r t.D m ,.C V G <.p.i.e.2.m c Z | T 6.p.m N b T m.T ",
"/ t.,.J 9 , <.F 7 b K.<.2.N >.5.2.1 G 5.2.m B A T B.p.b 7 c S  .T.C.r m &.m e Y L q x y.0XC.^ D.H.D D x v F.U.4 V.V.7 Q ~ ]._.^ ",
"0 < >.M n v B.,.b =.p.E.2.b Y ,.H d ( N 4.'.y.> H }.A.P ( g.K K.!.r %.n n n 2.N.I m D K 9X5X(.M.T 9 Z I b ).&Xh N m w | B y V / ",
"$.: e p.,.I ;.U { N 4.Z.I H Y 1 N I e.n 3.(.D 1 t.m.V.M.^ f.T A.;.> 1.> n I n.^.t.D / t.>X<XH.B m c v Y c D.J.M.= ; =.Y 9 9 D { ",
"%.4.a A.~./.2.U H H Y B.D x M r -.t.,.<.<.m e _.B.U D p.D D F 7X#Xa.u.D 3.V.[.!.C./ U A.:XH. Xy ; * v H d U !.H.e 7 > b b Y m.C.",
"=.*.U b.,.< t.F c p.V.m.!.p.T M.K H.-.8 *.c 2.V.H D 2.6.e n D |.[.l.a.4.V.6X7.m.F F c b { R.F A r D , , v A.V.F Z K G y.E D.} 0.",
"i.} I b.%.; b T / H._./.5.B.{.i.D 2.*.; <.B.r.T.b I e.<.b 9 2.2.7 [.6XD T -.1 Y B ' S.T ~ e.<.<.T B.m @ v ).c.:.C.K F 2.7 t./ u ",
"<.D $.4.m D c U Y D A.=.v M.3X;X0.&.2.D t.`.2XW.m.C.u.%.B.a.4.e 1 ,.e.Z 2.I x m.y.B.:X%Xd.i.w S  .T <.-.<.T c q u.!.(.6.J { b { ",
"<.=.6.m r 2.m a.y.p.t.<.H.m.S H.e.m u r u.e.m.K K m.V.m 2.,.k.:.q D S.p.y.I c  .y.x.3X&Xy.I 9 C N.Q C N I r m c e A t._.U.L.-.J ",
"&.r T <.,.I w.j.:.u.a.S.J.K.=.q U D 8 r I D M.D r.m > 9 v.>.4.4.-.a.F.-.p.y.J T D t.D.q.B K c A / Y I D I m.,.e b T a.d.X.).*.~ ",
"9.S.I M l._.-.u A t.^.V.V./.t.1 <.m.,.S &.2.2.l.t.4.h.p.-.`.C.e.m <.,.n D m.M./ A V ~ 3X`.R.t.F t.N T m.B.D * * L U C.^ X.d.F V ",
"&Xt.;.n $.@XN K F a.r t.^.=.=.I ; m K J.9.f.2.9.x.OX#X,.D H.C.V.I A = 3 Y D B.T m <.`.l.i.M.D H M.S 2.' ;.w e a.Z U A.y.| S K T "
};
