/* XPM */
static char *result[] = {
/* columns rows colors chars-per-pixel */
"64 64 225 2 ",
"   c #060304",
".  c #0D0A0B",
"X  c #140B09",
"o  c #140D0D",
"O  c #16100E",
"+  c #1A110E",
"@  c #1C1412",
"#  c #23160B",
"$  c #201613",
"%  c #241A15",
"&  c #291D16",
"*  c #251C18",
"=  c #2A1E19",
"-  c #311E19",
";  c #2D2117",
":  c #2D221B",
">  c #33251D",
",  c #38251D",
"<  c #36291F",
"1  c #3A2A1E",
"2  c #221F20",
"3  c #2D2922",
"4  c #322722",
"5  c #362A22",
"6  c #3C2D22",
"7  c #342D2B",
"8  c #3A2E29",
"9  c #3E3125",
"0  c #39352B",
"q  c #3C342C",
"w  c #3C3530",
"e  c #412F23",
"r  c #443325",
"t  c #493526",
"y  c #4C3925",
"u  c #45352A",
"i  c #4A3629",
"p  c #47392A",
"a  c #4C3A2B",
"s  c #523D2C",
"d  c #5A3D2E",
"f  c #443B34",
"g  c #463A36",
"h  c #4D3D32",
"j  c #523E31",
"k  c #633F2D",
"l  c #394536",
"z  c #4F412E",
"x  c #5A4524",
"c  c #55412E",
"v  c #59432E",
"b  c #4B443A",
"n  c #4B4839",
"m  c #544232",
"M  c #5B4533",
"N  c #5B4637",
"B  c #5E4935",
"V  c #544639",
"C  c #554C3C",
"Z  c #5C4C3C",
"A  c #56513C",
"S  c #735A2A",
"D  c #634B35",
"F  c #674D38",
"G  c #644D3A",
"H  c #6A5137",
"J  c #66523D",
"K  c #6B533B",
"L  c #71563D",
"P  c #74583E",
"I  c #7C642D",
"U  c #7B6333",
"Y  c #4B4841",
"T  c #564C43",
"R  c #455642",
"E  c #595647",
"W  c #644E43",
"Q  c #625444",
"!  c #665948",
"~  c #745A43",
"^  c #7A5D44",
"/  c #725C49",
"(  c #665C55",
")  c #486B4D",
"_  c #59644C",
"`  c #596B53",
"'  c #497E58",
"]  c #5E775A",
"[  c #64634D",
"{  c #7A674C",
"}  c #686657",
"|  c #646C55",
" . c #756856",
".. c #7A6C5C",
"X. c #68745B",
"o. c #75775D",
"O. c #6C6761",
"+. c #736C64",
"@. c #786E66",
"#. c #687C62",
"$. c #777868",
"%. c #787676",
"&. c #93701D",
"*. c #A37B1E",
"=. c #886B27",
"-. c #987829",
";. c #866C32",
":. c #967939",
">. c #A57F26",
",. c #8E7749",
"<. c #816D55",
"1. c #83775B",
"2. c #867A67",
"3. c #847C77",
"4. c #4E855C",
"5. c #55885F",
"6. c #579467",
"7. c #5C916A",
"8. c #6D8265",
"9. c #678968",
"0. c #6A8C6B",
"q. c #75886B",
"w. c #66956C",
"e. c #798B72",
"r. c #699A73",
"t. c #769876",
"y. c #50A26C",
"u. c #5AAA74",
"i. c #5AB679",
"p. c #69A87A",
"a. c #74A67D",
"s. c #67B47D",
"d. c #5EC07F",
"f. c #A78226",
"g. c #A5812C",
"h. c #AA842C",
"j. c #A68433",
"k. c #B08E3F",
"l. c #9E8A4D",
"z. c #99855A",
"x. c #AB9256",
"c. c #8F876E",
"v. c #898379",
"b. c #84987B",
"n. c #AC996C",
"m. c #BEA871",
"M. c #C2AC72",
"N. c #7E8F81",
"B. c #76A982",
"V. c #7BAC84",
"C. c #6CB280",
"Z. c #6CBD85",
"A. c #76B887",
"S. c #7BBB8C",
"D. c #7EBE91",
"F. c #5EC782",
"G. c #65C685",
"H. c #6BC286",
"J. c #62CE87",
"K. c #6DC589",
"L. c #65CF88",
"P. c #6BCC8B",
"I. c #74C38D",
"U. c #79C08D",
"Y. c #74C98E",
"T. c #62D187",
"R. c #64D189",
"E. c #6AD28E",
"W. c #65D98D",
"Q. c #7BC692",
"!. c #74CB91",
"~. c #7BCB94",
"^. c #6CD690",
"/. c #6ADA91",
"(. c #76D294",
"). c #6CE497",
"_. c #8A8683",
"`. c #938D89",
"'. c #9C948C",
"]. c #9C9693",
"[. c #A59887",
"{. c #A89E94",
"}. c #85A686",
"|. c #82B78E",
" X c #83B890",
".X c #BDAF87",
"XX c #ABA496",
"oX c #ABA49C",
"OX c #BBAF95",
"+X c #9DA2A4",
"@X c #ACA6A1",
"#X c #A9A8A5",
"$X c #B5AEA7",
"%X c #BAB4AA",
"&X c #AEB4B8",
"*X c #B9B7B5",
"=X c #C4B389",
"-X c #C3B793",
";X c #C3BFB9",
":X c #85C998",
">X c #D1C9AF",
",X c #CBC4BB",
"<X c #B8BEC2",
"1X c #C8C9C8",
"2X c #D1CECB",
"3X c #D7D4CA",
"4X c #CACDD0",
"5X c #CED2D3",
"6X c #D8DAD9",
"7X c #E4E3DC",
"8X c #D5DDE0",
"9X c #DBE2E5",
"0X c #D8E4EB",
"qX c #DCE6EB",
"wX c #D6EAF3",
"eX c #DDEDF4",
"rX c #DEF1FA",
"tX c #E6E8E9",
"yX c #F1F1EC",
"uX c #E6EDF3",
"iX c #E9F3F6",
"pX c #E4F3FB",
"aX c #ECFAFE",
"sX c #F6F9FB",
"dX c #F4FBFD",
/* pixels */
"R.R.R.R.R.R.R.R.R.R.R.R.R.R.R.R.T.R.R.R.R.R.R.R.R.R.R.R.R.R.R.R.R.R.R.R.R.R.R.R.R.R.R.R.R.R.R.R.R.R.R.R.R.R.R.R.R.R.R.R.R.R.E.T.",
"R.R.R.R.R.R.R.R.R.R.R.R.R.R.R.R.T.E.R.R.R.R.R.R.R.R.R.R.R.R.R.R.R.R.T.E.R.R.R.R.R.R.R.R.R.R.R.R.E.T.R.R.R.L.R.R.R.R.R.R.R.R.R.T.",
"R.R.R.R.R.R.E.R.R.R.R.R.R.R.R.R.R.R.R.R.E.R.R.R.R.R.R.R.R.R.R.R.R.R.R.R.R.R.R.R.R.R.R.R.R.R.R.R.R.R.R.R.R.W.R.R.R.R.E.R.R.R.R.R.",
"R.R.R.R.R.R.R.R.R.R.R.R.R.R.R.R.R.R.R.R.T.R.R.R.R.R.R.R.R.R.R.R.R.R.R.R.R.R.R.R.R.R.R.R.R.R.R.R.R.R.R.R.R.R.R.R.R.R.T.T.R.R.R.R.",
"R.R.R.R.R.R.R.R.R.R.R.R.E.R.R.R.R.R.E.R.R.R.T.T.R.E.R.R.R.R.E.T.R.R.R.R.R.R.R.R.R.R.R.R.R.R.R.R.R.R.E.T.R.R.R.R.R.R.R.R.E.R.R.R.",
"R.R.R.R.R.R.R.R.R.R.R.R.R.R.R.R.R.R.T.T.R.R.R.E.R.T.R.R.R.R.R.R.R.R.R.R.R.R.R.R.R.R.R.R.R.R.R.R.R.R.R.R.R.R.R.R.R.R.R.R.T.T.R.R.",
"R.R.R.R.R.R.R.R.R.R.R.R.R.R.R.R.R.R.T.T.R.R.R.R.R.R.R.R.R.R.R.R.R.R.R.R.R.R.R.E.R.R.R.R.R.R.R.R.R.R.R.R.R.R.R.R.R.R.R.R.R.T.R.R.",
"R.R.R.R.R.R.R.R.R.R.R.R.R.R.R.R.R.R.R.E.R.R.R.R.R.R.R.R.R.R.R.R.R.R.R.R.R.R.R.T.R.R.E.R.R.R.R.R.R.R.R.R.R.R.R.R.R.R.R.R.R.E.R.R.",
"R.R.R.R.R.R.R.R.R.R.E.R.R.R.R.R.T.T.R.R.R.R.T.T.R.R.R.R.R.R.R.R.R.R.R.R.T.T.E.R.R.R.R.R.R.R.R.R.R.R.R.R.T.E.R.R.R.R.R.R.R.R.R.E.",
"R.R.R.R.R.R.R.R.R.R.R.R.R.R.R.R.E.R.R.R.R.R.E.T.R.R.R.R.R.R.R.R.R.R.T.E.E.T.T.T.R.R.E.R.R.R.R.R.R.R.R.R.R.R.R.R.R.R.R.R.R.R.R.T.",
"R.R.R.R.E.R.R.R.R.R.R.R.R.R.R.R.R.R.R.T.R.W.T.T.R.R.R.R.R.R.R.L.L.T.R.T.E.T.T.T.R.R.T.T.R.R.R.R.R.R.R.R.R.R.R.R.R.R.R.T.R.R.R.R.",
"R.R.R.R.R.R.R.R.R.R.R.R.R.R.R.R.R.R.R.T.E.F.T.E.R.R.T.L.R.R.R.R.T.E.T.R.L.T.R.T.R.R.R.R.R.R.R.R.R.R.R.R.R.R.R.R.R.R.E.T.R.R.R.R.",
"R.R.R.R.R.R.R.R.R.R.R.R.R.R.R.T.T.T.E.E.R.L.R.R.L.L.T.R.L.L.L.T.T.L.F.T.R.R.W.L.T.R.T.T.R.L.R.R.R.R.R.R.R.R.R.R.T.E.R.R.R.R.R.R.",
"R.R.R.R.R.R.R.R.R.R.R.T.R.R.R.R.T.T.T.T.R.R.R.R.R.W.T.T.W.R.R.W.W.E.E./.R.T.F.L.L.L.L.L.L.R.R.L.R.R.T.E.R.R.R.R.T.R.R.R.R.R.R.R.",
"R.R.R.R.R.R.R.R.R.R.R.R.T.T.R.R.T.E.L.L.L.R.E.Y.V.B.H.P.K.p.9.] ` ` [ v.Q./.W.W.W.R.R.T.R.T.R.R.T.L.R.L.R.R.R.R.R.R.R.R.R.R.R.R.",
"R.R.R.R.R.R.R.R.R.R.R.T.T.W.s.J.R.L.L.T.W.R./.:X}.$.E E Q Z m M ( ( W h T ` w.s.i.i.i.G.R.E.T.R.R.R.T.R.R.R.R.L.R.R.R.R.R.R.R.R.",
"R.R.R.R.R.R.R.R.L.T.R.R.J.W.' 4.d.T.W.P.Z.I.B.#.E A p c D c e  .;X} ..! j y 1 9 b n ) r.Z.V.L.T.R.L.R.T.L.R.R.L.R.R.J.R.T.R.L.R.",
"R.R.R.R.R.R.R.R.R.T.L.J.R.H.) p.I.Y.r.l q b p 6 s v m B B B d 3.{.].m r a c a , 5 t Q o.$.} t.^.L.L.L.E.R.R.R.T.T.L.W.T.R.T.R.R.",
"R.R.R.R.T.R.R.L.R.R.R.^.Y.[ X.t.o.T @ , a 1 a / K B t e u d u @X<.oXn.x u i p u a J v a Z a r r.^.K.T.T.R.R.T.Y.P.T.Y.P.T.R.R.R.",
"R.R.R.R.R.R.R.R.R.T.E.t.{ r n a > ; u r s D p r i z M W J y 1.[.W XX,.U s r u a c a c 6 : u : = 8.w.F.W.T.T.R.V.Z.W.N.H.W.L.R.R.",
"R.T.R.R.R.R.J.s.E.E.e.K r : v p 6 D K K F 6 + = * = $ +.6X#X;XOX;XM.>.;.u 6 6 6 ; 9 M B m 1 r > : T ` i.W.R./.q.s.W.8.i.T.R.R.R.",
"R.L.R.T.T./.4.9.(.e.D 1 & s K s D K D 6 X _.T @ > = > : 2.M.-Xm.x.k.h.k   O @ @ % % : r M B y s = 3 r z ] t.a.` p.~.X.s.E.T.R.R.",
"R.R.T.R./.i.b |.b.{ a 6 a v a v F e O o O '.*Xq @ $ $ & & =.>.>.>.-.x - 7 4 * $ @ o X X @ 6 j B s , 5 1 4 m G 6 | }.[ V.E.T.R.R.",
"R.L.T.I.Q.5.[  X{ a 1 c t p u s % X % 4 & _.[.$Xe - % % @ y h.h.h.S 4 # '.v.< f b w 8 : * @ = r D M M m a 9 Z i b  .J C.R.L.T.L.",
"R.L.W.B.a.[ t.8.t : p 1 9 6 r : $ % = 4 % ].{ $Xx.d  .8 o * -.h.>.c @.E @X2Xg u g g f f 5 = % = 6 M L D s y D { 6 u N G.T.R.R.T.",
"T.R.u.8.` p } c , y 1 r 6 6 5 % = * = 5 u ;X/ {.c.<.[.3.@ 5 :.h.-.<.@XoX3.@XO.g g f q u 5 % @ o $ > F B 1 a , c a v i b.Q.L.R.L.",
"T.W.6._ , ~ t 6 6 t r m : : : @ o $ 7 X Q c...OX-.U '.1X`.1.-.g.=.2.$X1XoX'.,.I e = = 5 w 9 > % o . : a 6 d 6 6 > s Q +.}.(.T.R.",
"L.W.6.h C M a > , z s < @ + > : = X `.1X;X,X3X-X&.l.4XrX4Xn.l.k.-.;XtX,X4X%X,.j.S & 4 = - 5 > = @ . @ 6 1 m 6 < r r E 0.u./.L.L.",
"J./.7.0 1.m z u a 9 p : @ @ 8 4 : $ g ;X>XM.>.g.:.*XrXeXuXdX>X=Xn.yXyXz.OXx.<.z.-.6 $ % = > : 4 * . @ 6 a M 9 ; a 6 } 0.B.R.L.L.",
"T.E.X.5 [ D D i D D r 6 % . : @ @ $ @ e =.f.g.-.{ iXwXeXiXdXtXtX6XyXtX-.*.f.U :.;.% O @ @ @ % % @ . 5 6 D r 6 u m : n E C.R.F.R.",
"J.W.7.1 1 a K 1 s D c , u @ O w 7 % % $ x g.g.=.n eXwXwXqXtXsXsXyXuX6Xl.h.h.h.j.x . * : * * % * @ $ u r H < < B D 6 q Y !.T.R.W.",
"L.W.s.i c ; B c r c K e 5 @   _.&X%.g o # =.g.=.p 8X9X9X0X9X7X6X6X3X1Xn.g.j.h.I o   o @ % : > 5 @ : < i M < u D t 5 4 | E.T.R.L.",
"R.T.Z.} t t m v r p v D c @   _.pX1X*X* 5 ;.>.=...9X5X8XrX8X1X1X@X*X'.v.,.h.h.# %.3.O +X%.q 4 = % r 6 M a < M m ; : g r.E.A.I.T.",
"R.R.K.S.E , D { v , B D L s $ %.+X&XwX].].,.-.&.c.aX9X0XpX4X@XpX<X8X#X{.z.f.:.2.uX9X&XaX8X7 O = e D c D r u L r r m p 9.q.B.P.R.",
"R.R.R.~._ r m H P a m d d K s E %.5XiX1X@X,.-.,.7XsXpXwXaX#Xv.aXeXrXqXtX=Xn.l.yXdXiXpXeX1X2 @ u m D H G : c K a a 6 6 #.Z.W.T.R.",
"R.R.L.E.r.d p M D v D ~ 6 : t m T @.v.*X6X$X.X=XsXuXrXpXdX%.( dXwXeXiXdX7X3X>XsXdXiX0X&X#X3 u i a D p e 6 d s r : 0 e.^.W.L.R.R.",
"R.R.L.W.p.j , G H v s v J y u v { Q / .. . .3.oX2X1X_.+X8Xg Y pXwXeXiXsXsXsXsXtX4X*X`.} @.r 1 6 t e m F d D s i r E V.!.L.L.R.L.",
"R.R.R.G.t.r.9 d K D D m i c p 1 6 r 1 e s Z T 2.{.`.3.*X#X= w 8XqXuXuXuX7X%X3.( ! Y g W G r e p 5 r K L P K B a u +.V.Q.L.L.L.R.",
"R.R.T.I.A.).8.i a a d D H r s B s s s e a / ~  .v.( ( ( m r r v.*X5X].@.g 5 r h 6 m { W r 6 r y D v s m u > , % q C.W.R.R.L.R.R.",
"P.R.R.R.W.u.f y p , p r i G H D D B B s p t a < ; , 1 r r j D T } +.T T C M K i s ~ K e p m u a i i s B s 1 9 6.s.i.R.L.R.R.R.R.",
"T.R.R.T.H.E d z 6 a s u u i a M s s c i t < : t m B K ~ ~ G F M m 8 m G B B v B K D v c r > > r a 1 6 5 % : M 8.^.R.L.R.R.R.L.R.",
"R.R.R.T.t.c.| r 6 r 6 4 > e s 1 p u s K K D a 6 r d B m G G B > i i p D M c B a u t 9 < 1 s m H D r r T 9.l -  .S.T.T.T.R.R.R.R.",
"T.R.L.R.K.^.0.y 9 ; u > 1 p a i > % & a m P ^ L D r > c K D r F ^ P F m B 1 1 t a c t s m p r m s p r 6 #.7.R #.Y.T.R.L.R.R.R.R.",
"R.T.R.R.T.R.| D C D K u c s v c % @ > 4 , p c D H D K D D e m ^ P P M 6 ; r c c v c c t > < 9 > & < a E R ) ^.r.A.T.T.E.R.R.R.R.",
"R.L.L.R.T.P.$.e.}.1.N p s a p & = = > 6 < 1 > : 5 j u > = s D c y i r s 4 r p 6 > < 9 s M c K B s s K c.D.p.F.E.P.R.R.R.R.R.R.R.",
"R.R.T.R.W.G.t.P.D.S.| r 6 a s : = O 6 r = u M % * 6 > a u 6 D D > % > 6 * = r B a ; ; u M t c K M s M X.!.E.T.R.R.L.R.R.R.R.R.R.",
"R.R.R.R.T.P.I.P.P.E.| C h m r , 3 : r > % r c & @ = 1 6 r : @ > 6 : = 6 % > 6 6 6 9 9 > p n 3 % V [ } t.Y.L.R.L.L.R.T.L.R.R.R.E.",
"R.R.R.T.R.T.T.L.W.K.t.V.q.K p q n 7 > : = > 9 ; % % > > ; & & $ 6 6 : r 9 & a u % : r t | ^.' ' R B.~.D.P.R.L.R.L.R.R.T.R.R.R.R.",
"R.R.R.R.R.L.R.T.R.P.E.W.V.G 6 } V ; 5 9 > 9 > , q 3 6 B r % 5 , * : u 1 r > 5 : p 9 6 , T D.u.6.G.F.R.R.R.R.R.R.R.R.R.R.R.R.R.R.",
"R.R.R.L.T.R.R.L.R.T.T.T.S.X.T ..J p 9 y 5 1 l w q q > K s 4 f E 5 % p r c p 5 9 u E E ! } V.T.F.R.R.T.R.L.R.L.R.R.R.R.R.R.R.R.R.",
"R.R.R.R.R.R.T.E.T.R.R.L.P.|.e.a.c.A m B > : 5.) V C 4 D K e ` S.Z > p c c ! 9 z p Q C t.q.V.E.T.T.L.R.R.R.R.R.R.R.R.R.R.R.R.R.R.",
"R.R.R.R.R.R.R.R.R.R.T.E.T.R.Y.I.b.! { n : p 9.y.8.| V a G / B.W.0.h 1 a v  .#.R | H.9.q.I.R.L.R.L.R.R.R.R.R.R.R.R.R.R.R.R.R.R.R.",
"R.R.R.R.R.R.R.R.R.R.R.R.R.R.T.P. Xt.q.Y n t.w.y.Z. .0.A x b.!.T.Y._ m 9 s o.|.r.a.W.W.Z.K.R.T.R.R.R.R.R.R.R.R.R.R.R.R.R.R.R.R.R.",
"E.R.R.R.R.R.R.R.R.L.R.R.T.R.T.P.Q.Q.r.t.p.I.a.i./.s.a.0.x e.^.T.J._ 8.n h X.I.Y.I.F.T.T.R.T.R.T.R.R.R.R.R.R.R.R.R.R.R.R.R.R.R.R.",
"T.R.R.R.R.R.R.R.R.R.R.R.T.R.T.R.~.K.t.L.T.P.P.R.R.R.I.S...c.E.T.T._ a._ r.#.H.E.L.T.T.T.R.R.L.R.R.R.R.R.R.R.R.R.R.R.R.R.R.R.R.R.",
"R.R.R.R.R.R.R.R.R.R.R.R.R.P.R.R.E.P.!.T.L.L.L.R.R.R.R.P.U.|.L.T.T.` Z.p.C.K.}.E.T.E.T.T.L.R.R.R.R.R.R.R.R.R.R.R.R.R.R.R.E.R.R.R.",
"R.R.R.R.R.R.R.R.R.R.R.R.R.R.R.R.T.R.R.R.L.T.L.T.R.R.R.T.E.P.T.R.J.9.H.E.P.T.P.P.R.R.L.R.R.R.R.R.R.R.R.R.R.T.R.R.R.R.R.R.R.R.R.R.",
"R.R.R.R.R.R.R.R.R.R.R.R.R.R.T.L.R.R.L.R.R.L.R.R.R.T.L.R.T.L.R.R.T.s.L.T.R.R.T.R.R.R.R.R.R.R.R.R.R.R.R.R.R.E.R.R.R.R.R.R.R.R.R.R.",
"R.R.R.R.R.R.R.R.R.R.R.R.R.R.R.R.R.R.R.R.R.R.R.R.L.R.L.R.R.L.R.T.R.T.R.R.R.R.R.R.T.R.R.R.R.R.R.R.R.R.R.R.R.R.R.R.R.R.R.R.R.E.R.R.",
"R.R.R.R.R.E.R.R.R.R.R.R.R.R.R.R.R.R.R.R.R.R.R.R.R.R.R.R.L.R.R.R.T.R.R.R.R.R.R.R.T.R.R.T.R.R.R.R.R.R.R.R.R.R.R.R.R.R.R.R.R.R.R.R.",
"R.R.R.R.R.R.R.R.R.R.R.R.R.R.R.R.R.E.R.R.R.R.R.R.R.R.R.R.R.R.R.E.R.R.R.R.R.R.R.R.R.R.R.E.R.R.R.R.R.R.R.R.R.R.R.R.R.R.R.R.R.R.R.R.",
"R.R.R.R.R.R.R.R.R.R.R.R.R.R.R.R.R.R.R.R.R.R.R.R.R.R.R.R.R.R.R.R.R.R.R.R.R.R.R.R.R.R.R.R.R.R.R.R.R.R.T.E.R.R.R.R.R.R.R.R.R.R.R.R.",
"R.R.R.R.R.R.R.R.R.R.R.R.R.R.R.R.R.R.R.R.R.R.R.R.R.R.R.R.R.R.R.R.R.R.R.R.R.R.R.R.R.R.R.R.R.R.R.R.R.R.R.R.R.R.W.R.R.R.R.R.R.R.R.R.",
"R.R.R.R.R.R.R.R.R.R.R.R.R.R.R.R.R.R.R.R.R.R.R.R.R.R.R.R.R.R.R.R.R.R.R.R.R.R.R.R.T.T.E.R.R.R.R.R.R.R.R.R.R.R.L.R.R.R.R.R.R.R.R.R."
};
