/* XPM */
static char *result[] = {
/* columns rows colors chars-per-pixel */
"64 64 250 2 ",
"   c #2D341A",
".  c #2C4B1A",
"X  c #364A1C",
"o  c #2D5615",
"O  c #3A571C",
"+  c #366910",
"@  c #3C641C",
"#  c #3C4721",
"$  c #3A5722",
"%  c #3E6222",
"&  c #4C561D",
"*  c #44581D",
"=  c #43631D",
"-  c #436B1D",
";  c #4B6A1C",
":  c #54691D",
">  c #4C731E",
",  c #49761C",
"<  c #53741D",
"1  c #567A1D",
"2  c #676D1D",
"3  c #64781E",
"4  c #445C22",
"5  c #465925",
"6  c #4C5028",
"7  c #525C27",
"8  c #655B28",
"9  c #486527",
"0  c #4C6424",
"q  c #456A24",
"w  c #4B6C24",
"e  c #4A6B2A",
"r  c #536423",
"t  c #536C24",
"y  c #54642B",
"u  c #536C2B",
"i  c #5B6828",
"p  c #4D7222",
"a  c #4A7426",
"s  c #4D7A22",
"d  c #537424",
"f  c #5B7324",
"g  c #547B23",
"h  c #5B7C24",
"j  c #53742B",
"k  c #5B742C",
"l  c #547B2B",
"z  c #5C7C2A",
"x  c #4B6831",
"c  c #576C33",
"v  c #597633",
"b  c #5C7B32",
"n  c #646A28",
"m  c #637425",
"M  c #637D25",
"N  c #63742C",
"B  c #6B7529",
"V  c #637C2B",
"C  c #6A7C2D",
"Z  c #777A2A",
"A  c #737C2C",
"S  c #646A36",
"D  c #746E35",
"F  c #647C33",
"G  c #6B7C33",
"H  c #677838",
"J  c #747B37",
"K  c #6A7843",
"L  c #767A44",
"P  c #74744E",
"I  c #72735B",
"U  c #857B34",
"Y  c #8E7B6F",
"T  c #4D831D",
"R  c #56841C",
"E  c #658A1C",
"W  c #71911D",
"Q  c #5B8324",
"!  c #5D8B23",
"~  c #5C822B",
"^  c #588628",
"/  c #5C8332",
"(  c #5E8536",
")  c #648325",
"_  c #6B8425",
"`  c #648B25",
"'  c #6C8B24",
"]  c #63832B",
"[  c #6B832C",
"{  c #648B2B",
"}  c #6B8B2C",
"|  c #768927",
" . c #73862B",
".. c #738C2C",
"X. c #649225",
"o. c #6B9225",
"O. c #6C932B",
"+. c #6A9929",
"@. c #779625",
"#. c #73932D",
"$. c #7C932B",
"%. c #749C2C",
"&. c #7D9B2C",
"*. c #648434",
"=. c #6C8433",
"-. c #658C33",
";. c #6C8B33",
":. c #65833B",
">. c #6B833A",
",. c #688B3A",
"<. c #748434",
"1. c #798737",
"2. c #738C34",
"3. c #738C3B",
"4. c #7B8B3B",
"5. c #6C9334",
"6. c #6B9638",
"7. c #739334",
"8. c #7B9433",
"9. c #749A34",
"0. c #7C9B33",
"q. c #74953B",
"w. c #7B943B",
"e. c #729B3A",
"r. c #7B9C3C",
"t. c #7EA62A",
"y. c #7AA337",
"u. c #6D8743",
"i. c #788946",
"p. c #799844",
"a. c #73964D",
"s. c #7DA446",
"d. c #7BA454",
"f. c #729C72",
"g. c #898F2D",
"h. c #879A2C",
"j. c #838839",
"k. c #859834",
"l. c #83943A",
"z. c #839B3C",
"x. c #85A22C",
"c. c #88A538",
"v. c #90AF35",
"b. c #96A53A",
"n. c #A4AC33",
"m. c #858A48",
"M. c #879847",
"N. c #969845",
"B. c #848553",
"V. c #968E51",
"C. c #8C9658",
"Z. c #969956",
"A. c #A29754",
"S. c #88A646",
"D. c #96A746",
"F. c #88B346",
"G. c #97B347",
"H. c #88A456",
"J. c #95A855",
"K. c #8EB753",
"L. c #99B557",
"P. c #AAB056",
"I. c #938F6C",
"U. c #9A9869",
"Y. c #998A78",
"T. c #AE9772",
"R. c #9EA666",
"E. c #B2AE74",
"W. c #CD9F64",
"Q. c #CCA376",
"!. c #ADC265",
"~. c #997F84",
"^. c #74AB92",
"/. c #7BBFBB",
"(. c #7EC4CB",
"). c #7CCBD8",
"_. c #7BCDE2",
"`. c #79D2E7",
"'. c #79D3EB",
"]. c #77D7F5",
"[. c #9C8787",
"{. c #9B8D95",
"}. c #A4868B",
"|. c #B4988D",
" X c #A48693",
".X c #A7889A",
"XX c #89AC92",
"oX c #B6AA85",
"OX c #BCB28D",
"+X c #9B92B1",
"@X c #A58AA4",
"#X c #A889A9",
"$X c #A58BB3",
"%X c #A88BB7",
"&X c #A58CBB",
"*X c #A491B3",
"=X c #B196B0",
"-X c #8DABAE",
";X c #86B9B8",
":X c #C7A889",
">X c #C1B48E",
",X c #CAAC95",
"<X c #D3AE98",
"1X c #C7B597",
"2X c #D5B59B",
"3X c #D4B19C",
"4X c #C19FA4",
"5X c #C9B0A9",
"6X c #D6B5A2",
"7X c #D9B6A3",
"8X c #D8BAA8",
"9X c #DCBAAC",
"0X c #D5B7B6",
"qX c #DCBDB3",
"wX c #E1BDAE",
"eX c #E1BEB4",
"rX c #E1BEBB",
"tX c #DFC393",
"yX c #DBC3A9",
"uX c #DDC3B7",
"iX c #E2C1B5",
"pX c #E5C2BB",
"aX c #E7C5BC",
"sX c #A68DC2",
"dX c #A88DC5",
"fX c #A890C5",
"gX c #88B5C6",
"hX c #86C3C8",
"jX c #95C3C8",
"kX c #82C6D4",
"lX c #B1CBC8",
"zX c #DEC0CC",
"xX c #E5C5C2",
"cX c #EAC6C3",
"vX c #E7CAC7",
"bX c #ECC9C6",
"nX c #EECBCB",
"mX c #F1CCCD",
"MX c #EDCED3",
"NX c #F2CED2",
"BX c #F4D1D5",
"VX c #F6D3DB",
"CX c #FAD4DA",
"ZX c #F9D5DE",
"AX c #FAD6E1",
"SX c #FCD9E5",
"DX c #FFDCEB",
"FX c #FFDFF1",
"GX c #FFE1F4",
"HX c #FFE4FA",
/* pixels */
"0 } ,.^ F.*.c.m 4 5 h +.+.8...t 0 7.! ' } Q k +.k.* i N e l S.( + R { > ! 5.7.D.C N.@.' ~ { V : < - Q t 0  .c.] <.y O , ` < M @.",
"l q 9 w -.] r.2.4 q -.k Q ] 8.> ` l.%.R.,X_ O...M C u w.s 6.q.r.*.< ..f , ^ y.7.j.D.G.j.0 <  .| * o @ < E  .V M N N w ` X.m 8.k.",
"j u 8 l.,.l ;.-.4 a t 5 @ c.N K Z.Q , 8XVXd Q Q U.K ' ' - F.p.l z ] S.o.1 f p > _ h.b.g.A | $.x.< . @ +.m 0 e.1.n ] z h } 1 #.$.",
"w C : ;.~ 6.~ l w z 4 k j ' : 4XSXk j ZXxXO.q |.R.@ W [ L M.6.5.d < x.@.$.1.D :  .@.W x.@.M _ 3 @.' h @.1.5 ] { ` ~ ; z 0.| A i ",
"7 J G ~ Q g 6.e.2.q / ~ M U.Z.NXGXP B.GXpX= I.iX] ! E.8XT.6 a / M * 8.x.b.@.Q < | R X.@.@.h q._ B b d [ 0 -.+.^ R T ! l.t f l.J ",
"6 n [ k F O z +.x.Q a a Z.FXmXVXGXOXOXHXuX=.cXP.&.OXmXZ.B O O z &.n 8.#.=.Q x.&.) R 9.S.' V 6.S.*.q < w @ X.! , Q > g S.S.2.O...",
"U >.9 F.q.v 9.M #.o.z n qXDXVXAXDXxX8XGXvXoXaXE oXBXG n Z m 7 w c.J > p R %.+.%.-.q.H.G.| < p.b ; ] Q T h 1 M k f t Q 1.!.S.[ o.",
"] z z l q q a V p q.xXMXAXDXVXnXDXSXVXDXnXpX1XC ZXZ.B m | V.C.1 G.2.- 1 h X.o.{ { -.#.$.o.Q g * X d t.o.4.t n <.1.4.1 ( E  .N.M ",
"w.z.S.w 4 O   ] & U.HXVXBXSXSXpXZXAXVXSXZXSXU.OXiX, , C.uX6X>.; ] 1 R Q 8.8.} o.Q ` X.{ ' ^ , M g 1 c.i.J S * 2 4.D.f M < ' ..m.",
"D.G #.[ i t 9 y.g.qXDXAXvXSXDXbXpXGXbXZXSXSXI.MXU.o E.NXI.*.w p - d z ; g S.%.R ! #.%.W 3 _ ' Q M k.v.3.N l.5 * } D.0.W M M Z 1.",
"D.3.<.J V b e ~ yXVXAXDXnXcXDXSX7XVXnXbXDXVXOXVXJ I.SXB.o ^ d w V f M 0 o s c.O.$.1.E t.m 3 m 5 * >.G.&.C r O . Q 0.g z | m j.Z ",
"p.z d.H.*.c 4 S SXBXnXDXDXiXbXGXbX6XDX6XSXVX8XbXZ.CXU.^ ~ e X w z.f & 5 $ 0 | } k..._ Q X.z c { f ( ;.] =.G u $ b z g ` t N t._ ",
"9.r t 2.6.:.w I.DXDXbXbXDXAX2XmXGX6XvXiXxXVXxX9XyXyX; v { ^ X ; ] k : V 4 f g , +.-.} ) O.] ~ -.p.6.s w v 3.>.s } -.Q c.=.Q x.x.",
"#.B 1.7.s ;.r.1XDXAXSXiXcXGXZX3XMXDX3XcX6XZXMXnXCXZ.m A d < s % @ 2.Z B 4 h 1 1 ` } q.#.Q 0 ^ ;.M.v u X 5 q 5 g } H 0 <.N.M.@.t.",
"v ] ;.S.C V U.DXVXSXSXSX2XiXHXZX3XnXDX7X7XbXSXDXpXl. .A * O ! l = #...< t #.o.z &.x.' z ` - ) D.S.V j 5 } 5 r z.2.N X d +.7.' t.",
"] g =.J } y.yXFXBXpXZXFXSX6X8XDXSX3XcXVX<X6XVXNX1XE y.F p a a { ] ) %.i t m  .] g 9.| h.w.! X.o.Q ,.R ` M.[ #.V &...a +.w k p.F.",
"- Q B i 0 i yXDXSXBX6XcXDXGXiX<XZXFX7XcXmXE.<X9XE.R y.~ w l } o.,.Q 2.j.G j r > ' @.^ } w.V ^ s { z.3  .G.] q d c.7.;.w 9 5.r.-.",
"L.L.i.A t : ,XFXZXSXZX9X6XcXFXVX7XbXGXpXBXpXT.<XM.! y.7.G X u 7.q.p.9.V 0.g.n f x.n h #.e.-.e e ^ z 0.G.0.- * i d ;.i.. z y.3.r.",
"*.-.=.~ a ( uXSXDXDXSXFXBX7X<XpXZXbXaXSXCXCX<XQ.B.^ %.2.j.C =.*.7.D.S.[ _ 3 g #.v.1...[ ;.y.t % { R t.4.l.' ' i q ^ O v D.l.F p.",
"x 9 v c @ L AXBXiXcXBXBXFXGXVX7X7XbXmXmXAXwXrXaXK @ O.h > %.z.i c 2.0.M g g X.s E v.;.] f k * > z ^ o.M v.{ w *.>.5.z 3.S.z.7 f ",
"0 *.p.6 @ C.DXAXNXcX9X,X,XeXBXDXSXmXmXCXmX7XeXmXK 1 } z =.A S.i.u.w q d ( { h Q R h.@...1.Z r h ;.h Q ) [ #.7.c.r.6.y.5.+.N i B ",
"4 k N f ^ D.nXDXDXDXFXAXmXnXiXrXcXVXAXAXbX<XNXCXH.R } d.=.m ] p.,.q : X e =.s O q ) h.$.! Q Q @.) > > 9 w [ o.7.r.s } 0.{ t B n ",
"% $ l q.o.4.nXVXmXNXBXZXDXDXDXDXAXCXNXSXnXrX6XmXR.l 6.p.q.k.g -., Q C c f f * 0 2.v.v.$.E g.d _ ) 1 s q g R @.2.: ` +.v._ 0 H M.",
">.>.{ c.$.Y.GXAXaX7X3X<X3X3X3X3X6XwXNXAXmXAXSXAXE.1 l 4 3.v ( q.l { k t m w.f S.b.< ; m b.b.[ *.q , ! ! 7.E h.S.N <.q.t.o.V H G ",
"4.4.;.S.v.yXDXAXDXDXAXBXBXVXVXAXCXZXSXNXnXbXmXHXmX7 $ l $ X j ! 5.{ p u p.H.G r.,.X . r $.W k.2.^ 1 o...t ; Q q.9.7.' t %.+.p.( ",
"6.p.5.p.K.E.SXSXDXDXDXGXDXZXVXcXrXrXmXNXeXmXpXiXSXT.0 ( 0 X $ p.S.*.( 6.2.<.<.3.a k w * < ..z $ @ , } B 2.; y.a.N [ ) f { t.{ ~ ",
",.3.>.9 a.~ oXNXbXpXuX9X6X5XqXxXCXCXSXpXqXGXmXNXFXCXH w j 5 4 p.e.Q z :.q h +.[ N / ] z ; ) X O O a j H  .> R v.M.X : _ g ' q.Q ",
"C c p.u u s 1XAXVXbXmXBXNXZXFXDXNXbXCXeX7XnXAXAX8XAXqXl.1.5 n 9 ] 7.B 5 c ~ ~ p.F.u.H 6.! G 7 q 0 b 9.v { = . o.h.z _ M * 4 ,.9.",
"1.k p.$ a { 3XGXAXDXSXDXDXGXmX3XeXVXZXVX:XcXDXBXmXAXFX>X] j g ) h u.e l w 3 o.' c./ @ Q a b ~ } 2.M.p.Q r.5.e d x.&.#.7.! O d , ",
"V.y z o.9.l I.FXSXSXDXAXmX7X,XVXFXcXmXNXcXDXVXDXVXVXAXSXi.T j d.^.;X^.;X(.f.h.b.` @.V r b 2.h g o.z.d.i.3.x u j ^ { %.q.7.` &.d ",
"m.G l y.6.x < >XAXvXpX6X7XpXDXDX8XxXDXbXmX9XCXnX6XcXAXGX1X{ ^.kXhX(.kXhX;XkXXXk.C &.$.i 1.&.t = ! q.i.3.C O w ) O.y.! M <.F 6.=.",
"1 f 3.S.>.5 t P.AXVXBXVXFXGXBX2XcXFXAXqX9XAXAXVXDXSXzX0X4X-X].'.`.].'.Y.kXkXkXf.B V : 2 [ N #.i.0 1 Q Q ' p M h.q.+.7 N J b f 4 ",
"m { 4.m.Z.Z.i.3.bXGXDXDXZXpX2XBXHXnXqXAX6XnXeXVX0X#X$X+X%XgX].'.`.'.`.;X).].]._.D.n U { 1 i c.k.;.} w.N ) ` Q | w.S.J N 9 d ;.y ",
"N 8.B F J J.G., i.cXNXmXbXnXSXGXpX3XAXDXNXpXrX=X&XsXsXfX%X;X'.)._.].].].'.;XhXjXL.D.Q Q k.Z <.| k.} i.L y t @ E h.O.) t l +.q.>.",
"*. .N u.p.6.b q ^ U.AXZXSXFXZX7X3XAXFXnXBXMX@X&XfXsXsXsX%X+X).;X).).-X;X].jXE.W.P.l.f f ..[ f ] M.J.:.4 X f { ' [ o.' m 8.w j f ",
"r.A u 9 x ,.9 j R M.ZXGXAXnX3XpXDXDXBX7XxX@X.X%XsXdXfXfXfX&X).]._.;X(.).).^.M.g.N.z < : O.b.k.S.N.Z.J * u / z j 1 ' M | ..< w 1 ",
"p.b ~ e.b v *.u 2.G.C.5XVXBXVXFXDXAX,XbX=X&X@X%XsXsXsXsXsX%X;X_.'.;XgX].XXW ' #.^ @ ~ +.5.z.k.8.g.U E.u.0 ,.6.$ - 1 %.g.0 V f B ",
"K.q j r.H ;.F ( J.S.p.L VXGXDXAXnX3XmX5X$XsX~.&XsXsXsX&XsXsX$X(.`.).).-XH.k.' $.c.7.k.D.y.#.C k.D.m.!.!.H.!.G.J d R @._ & y 4 * ",
"!.*.( ;.z M.9 6.a.v i.x C.yX0XMXnXBXlX+XdX&X$XfXsX&XsXsXdXsXsX+X+X;X-X%XL [ k.k.S.x.c.j.w _ h.0.U U j.Q.M.%.O.] f g .._ & n 7 F ",
"] ( -.;.S.0.9 a.x . K a.+.%.[ rXMXjX).+X3X|.sX&XsXsXsX&X&XsXsX&X&X#XdX%X6Xl.n.c.w._ < w ) f ..M Z 8 : j.N.5.O.r.7.M r t m [ } i ",
"c 9 9 ] 5.C p.F.;.^ ^ z p.a.I.Y.;X(.kX>XtX,XdXdXsX&X.X X$XfX@X X}.$X~.fXDX>Xh. .l.S X F ..M g M ] t $ e m.P.h 0 &.} & m w.D.g.8 ",
"p.0 u z k t.q.z H i.C.Y ~.}..XkX(.(.-XW.W.=X&XdXdXsX&XdXsX&X{.sXsX$X5XDXSXDXE.E L.p.G p.H f f 4.2.y   X b L.F.) @.' 2 g.h.h.g.& ",
"w.$ $ v L R.U.Y Y.-X-XkX-X-XkX].'.-X.XT.|.sX&X%X$X$X X XfX$X@X&X=X0XAXDXSXDXSX3XM.x f #.h V C n D 7 5 L u.b 7.D.b.M g.n.b.R g.G.",
"u 7 Y  X.X~. X@X{.hX;XhX;XkX].kX;X*X&XfXdXfXfX#X X#X%X&X$X$X=X0X9X6XnXDXVXxXSXFXeX8 h F.f ,.) m 6 y F 3.S.<.C %._ &.x.h.n.* E ..",
"} Y.%X X}. X X-XkXkX;X/.(.gX_.).@XdXsX.X X X$XsXsXsX$X=X0XnXSXDXNXnXVXVX9XcXDXAXFXbXP.N b v = m n N 3.o.&.S.F N ] ) 0.-.x.1 ..k ",
"9.}.%X%XdXdXdX-XgX*X+X*X.X X@X{.{.[. X#X%X#X|.Q.T.5XzXBXmXZXVXAXFXeXpXAX9XmXNXqXnXAXSXT.} 9 7 A M z.p.O.7.H J.G.z.c.O.4 g t.k.l.",
"0 [.%X%X%X#X#X#X.X.X X~. X.X#XT.Z.g.n c m.A.P.Q.NXSXaXeXnXmXnXeXnXGXDXDXnXZXcXnXbXrXSXDX6Xi.; C t j p.3.7.B j.V ..B ;.q 5 ' E g ",
"m B.Y.~.#X%X.X.X.X}. X#X#XY m.v.U n B Z V.k.7.4XDX<XiXAXDXnXcXNXeX<XVXBXwXAXDXmXbXmXrXZXFXBXB.n d ,.;.{ r.~ Q N , < M b w.;.[ p ",
"i 5 p.{.dX$X#X#X%X%X#X~.K 0 } k.l.,.<.B V.M.F BXpXbXGXVX7XqXZXAXaXrX3XrXnXDXDXNX9XGXpXpXAXmXDX1XM.u.{ [ l ` #.<._ _ g Q S.a { ' ",
"z s.s.#X&XfXfX%X XY S F j ] y.c.D.1.N n N { m.DXBXDXBX,XvXGXNX3XbXFXpXqX<X9XNXNXZXDXDXpXVX7X9XwXmXU.^ 9 u #.&.1 O o , R ^ , Q ) ",
"L.k.H I.[.Y.I S =.6.H k } v.v.F.K.F.b K H Z V.9XZXZX3XVXGXpX3XAXDXwXCXAXNXcX7X<XeXNXZXDXAXVXbXpX9XSX0XB.=.= F 5 j Q - #.} ] ) ' ",
"v.1.4.O.] 8.p d # q j 2. .R F.K.~ a.d.H.c S i.2.qXbXNXGXpX3XDXDX3XmXDX7XVXDXVXDX9X8X3XcXVXAXFXDXAXZXDXSX,Xc 2 f Q %.^ 6.A =.;.V ",
";.y.9.g.f O 0  .* X 9.<.k ^ 6.a.j ( l j 0 j >.V 6XDXDXBX7XSXDX6XeXHX6XcXFXqXMXAXNXGXNXeX9XiXxXmXmXBXVXcXBXmX,XN.u.>.r s > -.0.` ",
";.7.( g & * *.V * d S.{ 6.v v ( -.% a -.>.c f : E.GXVXpXAXFXeX9XHXaX6XDXAX7XSXNXrXDXpXZXCXAXmXbXBXBXNX3X:X7XbXmXiX3XT.V.1.Z.S.j.",
"r $ ( l a a r.F d b u.F.,.a ( ^ l q ;.j ,.V.2.O >.nXSXVXSXVX8XDXAX3XAXDXnX6XGXiXbXFXeXVXpXVXSXpXnXpXbXaX:X:XwX7XE.Y L @.r 7 : | ",
"v X 9 u.( Q F F +.l u.r.Q l -.@ s ] 2.e :.M.z 9 O.w.1XGXDXnXZXDXqXcXDXDX8XcXGX8XNXDX9XVXbXcXGXpXcX8XpXeXeX3X:XmXCXwX:XOXI.i.B.k.",
"b F c p.a.d.;.V k l ^ r.z q j x V 7.b H =.e 9 M.z.Q F 6XuXVXSXVXcXDXAXAX7XVXFX8XNXFX7XVXZX2XSXSX7XNX,XmX7XnXcX7XmXpX:XU.V.M.p.l.",
"S H [ +.( 5 3.V d 3.e.q.M.3._ l._ M.H 7 S t 5.r.l z ,.,.= 0XHXDXAXAXDXNXeXDXDXqXNXFX9XxXGX8XnXGXpX9XBX,XAX3XcXAXnXZXNX8X,XE.Z.V.",
"m.&./ a.b 6 j { O.M.S.d.,.k.J.4.f -.S # =.r.2.v.g ] >.>.s K 5XoX1XFXSXnXNXSXDXeXBXDXnXwXFXBX6XSXDX<XNXcX,XDXwXeXDXSXCX6X[.R.C.B ",
"F l j F w f u -.{ f S.v q q.L.A.J k ;.k 3.S.P.G.O.p.1.c y.<.>.@ x nXFXZXDXAXDXcXVXDXVXpXSXDXiXnXDXVX7XFXpX7XDXmXbXZXZXNX>Xm.1 o.",
"F v >.u x =.d i.2.3.;.G w.9.V m.J t k i >.4.7.Q [ q.p.u -.:.i.K $ i.E.C.xXFXDXAXSXAXAXbXZXSXZXaXSXDXnXnXFXxXrXDXDXDX8XE.Q.E.1.) ",
"c i X.,.F V J U K 4.i.z.N.S.v 7 F z 6 r b ~ w.k 1.t O - 6./ :.>.H w.0.n 4.1XcX1XxXGXFXSXAXDXGXSXCXDXFXDXCXDXCXnXqXuXuXA.@.N.B C ",
"D c.( w a.J.G y N <.M.e.p.d.;.4 G 7.z S S ;.;.m.3.K u.u.B J.p.1.c H ( e k O.k._ H |.qXuXE.yX8XOXZ.U.1XpXR.m.Y P Q ] r.$.h.l.N f ",
"N.2.H e x d.j C C w.y 2.s.v b ] O e [ N.Z j.-.D M.L.J.:.g M.l.p.b f X * ) h y.,.w C D.4.=.#.f < #.t ) 5.k * 5 1.M [ M.2.$.B [ ' "
};
