/* XPM */
static char *result[] = {
/* columns rows colors chars-per-pixel */
"64 64 252 2 ",
"   c #2A3419",
".  c #2D3C21",
"X  c #2C481A",
"o  c #36441B",
"O  c #344C1C",
"+  c #3B4B1D",
"@  c #2D531A",
"#  c #36551B",
"$  c #3B541C",
"%  c #365F1B",
"&  c #3D5C1C",
"*  c #3D621D",
"=  c #3D691C",
"-  c #3A4A21",
";  c #365321",
":  c #3C5422",
">  c #3C5B23",
",  c #3E6322",
"<  c #44541D",
"1  c #4A541D",
"2  c #435C1E",
"3  c #4A591C",
"4  c #43631D",
"5  c #4C641D",
"6  c #446B1D",
"7  c #4C6C1D",
"8  c #55691E",
"9  c #45721B",
"0  c #4C741D",
"q  c #4D791D",
"w  c #53741E",
"e  c #537B1E",
"r  c #5B781D",
"t  c #676D1D",
"y  c #64771E",
"u  c #424D23",
"i  c #435523",
"p  c #4C5623",
"a  c #445C23",
"s  c #4A5D24",
"d  c #47592A",
"f  c #535B24",
"g  c #525129",
"h  c #525D2A",
"j  c #675B21",
"k  c #456424",
"l  c #4B6324",
"z  c #466A24",
"x  c #4B6C24",
"c  c #466429",
"v  c #4C632B",
"b  c #4B6B2A",
"n  c #536424",
"m  c #5B6425",
"M  c #536C24",
"N  c #5B6C24",
"B  c #53642B",
"V  c #5A652D",
"C  c #536C2B",
"Z  c #5B6C2B",
"A  c #4D7323",
"S  c #497726",
"D  c #4D7A23",
"F  c #4E742A",
"G  c #537424",
"H  c #5A7424",
"J  c #547B23",
"K  c #5B7C24",
"L  c #54732B",
"P  c #5C742C",
"I  c #547B2B",
"U  c #5C7C2B",
"Y  c #4B6833",
"T  c #576A33",
"R  c #567433",
"E  c #5C7532",
"W  c #5C7C32",
"Q  c #5A7B36",
"!  c #62652A",
"~  c #666C28",
"^  c #726C2D",
"/  c #637425",
"(  c #637D25",
")  c #6B7925",
"_  c #63742C",
"`  c #6B742D",
"'  c #637C2B",
"]  c #6A7C2D",
"[  c #757A2A",
"{  c #737C2D",
"}  c #636B33",
"|  c #657334",
" . c #6C7433",
".. c #637C33",
"X. c #6B7C33",
"o. c #65733B",
"O. c #647D3B",
"+. c #6A7D3B",
"@. c #737D34",
"#. c #757939",
"$. c #5C7241",
"%. c #687A44",
"&. c #717741",
"*. c #827B35",
"=. c #4E811D",
"-. c #54831D",
";. c #5C861E",
":. c #648A1D",
">. c #6D901D",
",. c #558425",
"<. c #5C8324",
"1. c #5D8A24",
"2. c #56832A",
"3. c #5C832B",
"4. c #5D8B2C",
"5. c #5C8333",
"6. c #5D8534",
"7. c #648325",
"8. c #6B8425",
"9. c #648C25",
"0. c #6C8B24",
"q. c #63832B",
"w. c #6B842C",
"e. c #648B2B",
"r. c #6B8B2B",
"t. c #738B25",
"y. c #72862D",
"u. c #788529",
"i. c #738C2C",
"p. c #798B2C",
"a. c #649125",
"s. c #6B9225",
"d. c #6C932C",
"f. c #6A982A",
"g. c #739325",
"h. c #799925",
"j. c #73932D",
"k. c #7B932B",
"l. c #749B2C",
"z. c #7C9B2C",
"x. c #648334",
"c. c #6C8333",
"v. c #658B33",
"b. c #6C8C33",
"n. c #65833A",
"m. c #6A843A",
"M. c #648A3B",
"N. c #6B8C3A",
"B. c #748433",
"V. c #7B8533",
"C. c #738C34",
"Z. c #7B8C33",
"A. c #73843B",
"S. c #7B843B",
"D. c #738B3B",
"F. c #7B8C3B",
"G. c #659232",
"H. c #6C9333",
"J. c #6C9B34",
"K. c #6D943B",
"L. c #6A983B",
"P. c #739334",
"I. c #7B9433",
"U. c #749A35",
"Y. c #7C9C34",
"T. c #74953B",
"R. c #7B943B",
"E. c #739B3B",
"W. c #7C9D3C",
"Q. c #7CA526",
"!. c #7CA32D",
"~. c #7BA233",
"^. c #7CA23B",
"/. c #78A438",
"(. c #6C8545",
"). c #6C8C42",
"_. c #788545",
"`. c #738C43",
"'. c #7D8C43",
"]. c #6D9345",
"[. c #749441",
"{. c #7C9443",
"}. c #759B43",
"|. c #7C9C43",
" X c #7A974C",
".X c #7C8D52",
"XX c #7D9B51",
"oX c #7DA443",
"OX c #7CA24C",
"+X c #7BA353",
"@X c #838B29",
"#X c #89972C",
"$X c #859B2D",
"%X c #838838",
"&X c #829434",
"*X c #839B34",
"=X c #83943B",
"-X c #8A9738",
";X c #839A3C",
":X c #8C9C3B",
">X c #959A38",
",X c #A19F32",
"<X c #84A32C",
"1X c #93A42D",
"2X c #84A333",
"3X c #89A834",
"4X c #83A33B",
"5X c #8BA43C",
"6X c #8BAB3C",
"7X c #95A63B",
"8X c #88B53A",
"9X c #94B73A",
"0X c #A0CB3B",
"qX c #858B46",
"wX c #8C8B4C",
"eX c #849442",
"rX c #849B44",
"tX c #8B9B44",
"yX c #889448",
"uX c #829B4A",
"iX c #969948",
"pX c #879A53",
"aX c #959C56",
"sX c #A49551",
"dX c #84A343",
"fX c #8BA443",
"gX c #84AA43",
"hX c #8BAC44",
"jX c #83A54A",
"kX c #88A84B",
"lX c #8CAA4A",
"zX c #93A444",
"xX c #99A747",
"cX c #93AD45",
"vX c #93AB4B",
"bX c #8AB347",
"nX c #96B448",
"mX c #9AB34B",
"MX c #89A655",
"NX c #97A956",
"BX c #8EB753",
"VX c #99B656",
"CX c #A4A946",
"ZX c #A2B74A",
"AX c #A6B858",
"SX c #99A966",
"DX c #97B964",
"FX c #A6B567",
"GX c #B2B56E",
"HX c #9DC747",
"JX c #A3C85B",
"KX c #B2C16A",
/* pixels */
"l r.M.,.bXx.3X_ s i K f.f.I.i.M l j.1.r.r.<.U s.&X< m X.F I rXv.= -.9.0 1.G.T.cX] iXh.0.3.e.' r w 6 <.w l i.:X7.B.h $ q 1.G / k.",
"I z k b v.q.E.C.s z v.U 3.7.U.G b.I.~.U.e ) s.i.w.G C T.J H.E.E.3.w Z.G q ,.U.I.=X>XcX%Xn 0 8.p.< X 9 A :.i.' 7._ _ A 9.a.( k.:X",
"L C j eXM.U r.G.4 A L p 6 2X .p H e.q /.C.0 2.q.b , s.t.G bX[.I U q.6Xs.r L G 0 0.#X>X>X) i.u.<Xw @ % s.( s E.B.! q.U K r.J j.i.",
"x ] 8 P.U K.4.I z I s C M j.P O N b 9 v.U.d.l : M.z h.K # x.E.v.G H $Xg.k.V.` m u.g.g.<Xk.8.0.y s.0.K k.S.i q.r.9.3.7 K Y.u.8.m ",
"f #.X.q.3.e G.E.I.k 5.U X._ q.C.r.B x A 2.z s c.b.a.j.G N u F 4.( < I.<XxXg.7.J t.r a.g.k.K P.7.` | G w.l v.f.2.,.=.e.&XH H &X@.",
"1 } q.' ..$ U l.2XK S D H.' Y.r.q.d. Xq.9 4._ &XfXd.dXqX[ < : K z.~ I.j.r.e Q.z.:.,.J.hX0.q.K.kXx.6 w x = a.1.q ,.q J tXjXC.r.i.",
"*.+.l gXT.R U.( j.s.G 5 8 j.^.<.J 6 4.Y.] 3.r.t.P.a.( ^ ) ] h b 5X{ 0 A -.l.f.z.v.K.MX7Xp.0 W.R 7 q.<.=.J K ( K U 8 <.C.JXlXr.0.",
"U 3.3.I z z F U G G._ *.' {.S.8.2 ! w 7.y.0.s.r ;.9.{ ` u.@..X-.nXF.6 e K s.a.e.e.G.I.h.0.<.K 2 O G !.s.&Xn Z @.#.F.K x.7.u.tX) ",
"R.;XdXC 4 $   7.5  .*X8 rXvXlX|.| ) K H.*X8.K w 0 J A G.L P W l 7.e -.7.P.I.r.s.1.1.f.9.s.J q ' w e *X.X#.V < t F.cXH ( G t.k.qX",
"xXX.j.w.m N l E.*X=Xp N hXCXaXgX..J gXK./.6X/ O % 6 d.q.A N.0 w 4 A U 9 K fXl.-.:.j.l.>.y 8.0.<.( *X9XT.' -Xs < t.zXz.0.( ( { B.",
"vXm.C.#.' Q F 3.d.i.#._.9.U.` / k.6.L.c.S.l.q.M n 7.I.l * I A z U P ( l @ D 3Xd.k.V.1.Q./ y ) a < c.cXz.X.C # X 4.U.K K p./ %X[ ",
";X3.OXMXx.Y v $ P W T...H.4XM.3 r b 0 ;.x.C J N &X7XP v.U b + M *X/ 3 i : l t.r.*Xy.t.<.9.U T e.L x.b.q.c.] C > U U J 9.N ] !.7.",
"E.m M i.L.5.R : C W b.' K w.HXN.7 C.W./.5.- * q 3.T.L P e.,.; 7 7.T n ] s w K 9 f.v.r.7.r.q.5.v.rXK.D x E D.m.D v.H.3.3X] U <X<X",
"d.` F.C.G v.dXjXM.$ ] 6XI.< G <.A l ] H.S * x -.7.C.` ) G w A , = Z.{ ) 3 U J r >.v.[.j.K z 1.b.|.E C O i x d K d.| a y.tXtXg.Q.",
"I ] v.kX` c.T.`.B c T.1X7Xi.<.4.k # B.%X' 4.* h.{ R.p.{ 3 # 1.J 4 j.t.w M k.a.<.z.1X0.K 9.6 9.xXkXq.L s C.: b :Xy.` + G f.b.r.<X",
"q.J c.@.b.gX6Xc.J /.^.7._ J.^.D.N.C B.=XT.3.A 3.C.0.^...A S A 4.e.7.U.m M U w.' J U.r.#X;X,.:.a.7.v.J 9.eX7.j.] z.r.F f.x U W.bX",
"9 U  .Z 5 ~ cX9X~.<XI B ..e.4XZX' A.;X_ M x A U K 9./.3.x U d.d.x.3.b.%X+.C n 0 t.j.2.9.R.' 2.D 4.;X/ y.nXq.z J 3XC.H.l k H.W.v.",
"VXBX#.@.G M C ~.d.9.H.l 5.r.c.MXyXR.XXDX(.F r.0.U a.~.I.X.o C P.P.|.U.q.Y.#X~ H $X~ K j.E.v.L b ,.K Y.ZXz.6 < V G H.`.X 3./.T.;X",
"x.M.c.7.A 4.I U U.U.].J D |.XX).p eX|.MXv c K.e L 2.J.P.S.' B...T.vXfXw.8.y J j.1XZ.i.w.r.~.x * 4.;.Q.F.R.t.t.M z 2.# E xXR.E {.",
"B c R R z 4 I b.H R.L.[.].N.J.x ` :X&XW n.` q.O > 9 s.K q l.4XV C C.Y.( H J a.q :.9Xb.q.H E 4 0 U ,.s.( 6Xe.b ' +.H.q.D.hX:Xh G ",
"x m. Xu s Q oXG . :.z.b.C S 1.G.Y.R.C.l U j.e.G & <.r.U y.y.fX_.`.x A M 6.v.K K -.Q.k.p.Z.@.m ( b.K -.] 0.j.P.6XR.L.4Xf.e._ ! ) ",
"a Z ( H ,.nXbXG X B.y.d.U U f.r.d.7.' ..6 L d.J.J.,.r.XXc./ x.}.M.k w o b r.A * z 7.$Xk.<.<.K s.:.0 G 4 b w.s.P.E.D w.*X9.G  .! ",
", > K T.s.w.` ' <.H V.g.m ~ e.e.f.K ] C.j.x & P.kXU K.}.T.&XJ v.9 <.` T H H < z T.1X1XI.0.#XG 0.7.J 9 z J ,.g.Z.8 0.f.8X7.l  .tX",
"m.m.v.W.-Xh o s fXi.] @.) 1 + 9.J.I 7.] AXs 0 J P.<.H d N.Q 5.P.2.e.P G _ &XH tX6Xr 6 / 1X>Xw.5.z q 4.9.j.:.$XfX` C.U.!.g.' o.x.",
"D.A.b.6XZXuXR i T G.c.|.BXC o 4.( M 7.*XA.n H 7.5Xs & G # - F 4.L.q.A b |.MXX.;Xb.O X n k.t.-XC.2.-.s.0.M 4 q.C.U.H.0.x l.f.E.6.",
"H.{.G.{.NXBX`.C.s z $X%XwXX.P 7 x a.G 3.gXy.l R.7.f C 5.v $ : {.dXv.4.K.D.B.c.D.A R A i r t.U : & D r.~ C.7 ~.|.P w.7.K 9.3Xe.3.",
"v.D.m.c `.6.J.v.M 7 1X=X_ : c 3.P H C.N.bX>.' ' / H > F M a a {.T.2.' x.l K d.w.` 3.q.' 4 7.O & * S I #.i.q ,.8XyXu 8 8.r r.T.<.",
"c.V XXC b I /.M ..<.!.AXjXk ; > N.C.`.m.5.2 R.H 4 j.w.R.D.s ! l 7.P.` d L 2.U oXkXM.n.G.1.c.h 4 b E P.E 4.4 X a.$XU ( y 2 i N.U.",
"V.P  X> z G.eX! pXZXC.W.v.O X $ rXNX{.n.R G q.w._ B.Y.B.C.G I e.' m.k A b q.j.y.2X5.6 q.F W q.e.w.uXrX<.W.P.l G <Xz.j.P.1.& G q ",
"aXV 3.g.H.x.5 o.vXcXgXR.Z X O a _ AXkXK.x.jXL.3.P T.2._ A ,.I P.e.|.N ) a w.-X7X9.h.' l P C.J J 0.;XXX`.D.Y L L <.a.l.T.d.9.l.G ",
"%X .I U.L.b A P.M N }.N G k ' R.b G J.T.jXZXW.v.A I v b ' 4.M H.L.x.` B.+ G *XtX..z.p.N S.z.C 4 1.R.`.D.] % 5 7.d.~.9.( A...N.c.",
"G L N.hXm.p H jXW q.x e.s B S.mXe.2 L {.pX-XdXq.D A & q.l.G.c.T.^.e.r.G 6 4 >XV.` ' 8 t r._ i.'.6 J ,.7.r.A ( *XT.f.s  .X...H a ",
"_ q.=XqXaXiX_.v.' C I 9.B.SX`.A.m.I G.^.b.L U I e.0.Z /.U I H.H C q.<._ H n P cXhX~ @X0.r Z 3X$Xb.b.R./ 7.1.<.u.W.fX#._ k G b.C ",
"_ I._ | #.NXmXD L l e.H.x.{.n.p n.OXnXI A K.I R U I $X4XC a A Q.2XM A w.` X.c.d.VXxX<.,.-X{ B.p.*Xc.qX&.B M 6 ;.*Xs.7.G I f.T.+.",
"x.u._ M.XXK.I z 4.' l U.F x rX XD.G D.).a S.Y.T.W U R.z.E E f.H.C.;XU.G 2 ;X{.r.R.W.G r i.0.H U tXNXn.c O H v.8.y.s.8./ I.M G H ",
"^.@.C b v M.c L 1.5.D I.v.H.7.v.BXb.R L s +.JX].X W P P.T.^.gXb Y hXJ.k 4 0.~.r.1.J M 8 0.5X&XvXiXaX#.+ C 3.' L e 0.( u.i.w 7 J ",
"}.W 3.E.Q R m.C C.vXm.| R.P.c.U T.v.v.G b.mXT.. X A 5.E.v.z VX+.O U W x U.I.r.k.1.z <.j.H.W.&X$X%X%XGX&.V ).L.2 6 w h.#Xl 7.U ~ ",
"kXA I E.+.c.' 5.lXvX{.m.H.l.r.H 3.x.P {.8.w.O   D S G.~.k ; U OX2.x 3.' R.*X0.t.*XT.Y.xX^.g.X.*XCX%XKXGXMXJXcX@.M ;.h.w.u V 5 u ",
"FXx...b.U rXY G.].Q .Xh e.0Xe.D v.O.{.fXm.F : R ..H.j.G z H.2./.e.<.4 2.c.y.$X:XgX2X3X%Xx w.*X&X[ *.%XGXpXh.k.q.H J t.7.f m l ..",
"v.v.v.N.gXY.k OXY X %.].J.|.n._ Q R hXmX Xv ; d O.VXNXY P.v.G.1.b x G 3.i.&X7X5XF.8.w x 7.H u.( [ j n %XiXv.G.W.P.3.n M / y.w.N ",
"Z k k q.H.w.T.bXb.2.3.W H.J.x.P G ) w.Y. Xh O.].6.VX[.5.Y.7.4.J = z 0.J i.t.3Xy.R.P o ..i.( J U ' M a b '.AXJ l k.0.f / &XCX#Xf ",
"`.b C 3._ ~.[.W I ].L.n 5.~.R.V.>.j.=XB.W.DX+XA o.FX1.7 q.z.x ] s # 8.eX] &Xa.0.AX'.+.{.+.M H I.j.B   O P FXbX:.h.t.t @X#X#X@X3 ",
";Xa : Q J 8XjX4.l ).I x r.m.vXFXqX*XzXwXT.O.E e SXpXw.F.c.C.c.W.B.' c.wXZ.#Xp.R.tXV G j.K ] ) ~ } V s &.(.E P.vX7X( k.,X1X;.-XCX",
"C : p F v.n.5.l.|.lX| K -XaXfXNXfX6X{ @.F.1 V Y.yXeXFX^ E.C.p T X.P.F. .'.p.%XZ.^ 1 3.hXP b.<./ g V +.C.dXB.w.l.q.z.1X$X1X< :.s.",
"D.n.(.].v.a U 5.l.cX=X3.OX+.M < e l.S.M c.' 3.] W BXyXr H.b.Z V u b x Z ..9.8.~ p @.vXc.W L 4 H m } C.s.h.dXX._ q.7.Y.v.3XK i.P ",
"T.E W O.C (.v.L mX] qXU x.C ~.) / 3X' N b.K.l / N.|.r.( U s V n e.x.l ( 0.9.p o G mX'.I P.b f ) ) ;X|.H.I.+.NXvX:X4Xs.> U Q.*X=X",
"l c.E.S W kXI 3.C.2.] o l R.cX$X>X%Xm m w.3.b.`.m.bX3X:XG.k 3 ' /.v.b NXmXfX' w C VXb.I P v.M ] C L }.b.N.` %X7.i.` b.x a 0.:.J ",
"_ eX].F N._ I q.Z.b.c.u <.X.V.9X*.~ ` S.wX&XW.v uXBXVXJXB.] ] z.U W vXSXVX5X..] R.D.] [.r.l o _ G M.H.8.W.2.q._ 9 w 7.E F.b.w.A ",
"m d  XR x q.R.` tXpXC v L & C.2X=Xr.c.` iXtXI x.`..XY.mX`.A { F.p N Y.c.| x.- T eX..E T.P.x W v.v.].q.w.U 1.j.i.8.q.<.K gXF e.r.",
"' OXoXx.' y.'.E E.Q : +.U ' ~.3XvXD.| ! | r.K P - T J ' {.v.+ .X'.` G.~.%Xd   f B a N.P.R.r._ K s 4 2.v M l.k.H * # 9 -.4.9 -.7.",
"VX:X+.}.{.yXB d n.].+._ 9.3X9XbXnXkX(.$.o.{ %XX.> K < D b.s.p T oXN.K.4X=X_ + d a a C 7.4XP.N G x I rX_.D.4 ' + G -.9 H.r.3.8.t.",
"8XV.F.H.v.T.L G . b G C.B.-.bXBXq.].+XMXT } qXD.r.C.L v.k ' 7.H Y.bXnXNXv > 2 C n.R ..' R.v.3.A J C.+.C.x.i ` _ K d.<.P.{ w.b.' ",
"b.Y.U.@XH $ l i.< O U.B._ 5.E.].I 5.S I C L x.c.zXw.U.5.+ l 7.C.~.gXK..X| i h K...C 5.H / e c.C.S.y.v.H M ) l.d.).).C A A b.U.9.",
"b.C.5.K 3 4 ..' s A fXe.G.I R ).v., D n.c.T H V G.Y.T.A s M _ $XhX{.v B T C v e.1.a 7 Z.GX;X{ >XeXZ U z x *X7X4 T.[.s t.w.aXkX@X",
"n : 5.D x 0 R...0 ..N.bXN.A 4.2.I z d.L M.wXZ.2 ,.dX|.0.V.wX8.gXXXv L b b F e.U.e.l P w.GXAXtX;Xr.l U K G iXiXw I C n l.m m _ u.",
"R ; c `.M.2...x.d.F (.W.3.I 6., G q.C.v (.uXW a P.E.T.Y.y.-X8.dXE > x.i l 2.].jXN.] r.C.CXCXeXZ C M D 9.0 :X>X*X+ - E q.k 4 P j.",
"I +.V {.OX+Xm.w.2.I 4.R.U z F B ' P.W n.x.C l uXY.3.E T.U _ _ SXSX{.A.E O.T.MX|.;Xw.q.dXxX-XzX8 u . F D k 7. XrXp 3 $ G w e.H.W.",
"o. .q.J.5.d b.' H D.E.R.uXD.q.*X] tX .f } 8 G.T.U ' v.N.k x ' kXMX'.'.(.}.SX%.T.` ( M G j.vX` _ n P , * q |.{._ / 7.K I.@.:X$X#.",
"qXk.3.}.R u G e.b.tXkX+XM.4XNXF.H v.} - m.Y.S.fXK U S.x.J l v.b.d pXNXP c.+.c 4.N d.&Xy.r.#.c.x.7.^.C # q pXwX&.W.w.U c.3 C.i.V ",
"..I F O.M U M q.9.H oXR 9 R.NXsX@.P N.P N.zXZXHXH.|.A.T ^.A.(.c > n.#.( b.' 6 P.&XW.CX,X&X#.h _ Q.f.x. .v.w.b a _.eXuX).2.j.q d.",
"m.T N.Z b c.M _.F.D.C.+.=XU.' qXB.C V B A.S.H.<.w.K.|.C M.v.`.%.v E &XC.P.U G Q.%XyXmXiXZ.' 4 H Y.s.K H U n M x l M P.pX7X7X+.( ",
"T C G.v...q.#.qX%.D.'.-XiXjXW d ] U f n 5.U R.P V.M $ k G.2.m.+.| R.4X| C.F.' r.U C.>X#.8 8.n N B.<.U U e.H.W B w e.qX=X#XiX .7.",
"^ ;X3.b pXpXX.V / c.|.L.}.jXB.a X.U.' } } b.b.qXN.%.(.`.| NXeXB.T +.Q F P I.*Xw.V / B.NXmXcXc.c.T.G e.U.|.P . o <.7.W.u.#X&X` H ",
"iXC.+.b Y +XF q.] F.T A.oXR W q.+ b w.yX[ %Xv.#.yXVXNXx.L fX&X}.U N + 2 7.2.~.v.C m.zX'._.W.P K I.| w.J...h h '.( r.rXZ.h.~ w.r."
};
