/* XPM */
static char *result[] = {
/* columns rows colors chars-per-pixel */
"64 64 254 2 ",
"   c #080406",
".  c #140D0C",
"X  c #19110E",
"o  c #1B1513",
"O  c #1C1412",
"+  c #23180E",
"@  c #251915",
"#  c #241A15",
"$  c #261C19",
"%  c #2A1E19",
"&  c #2D221B",
"*  c #2D2618",
"=  c #33251D",
"-  c #382719",
";  c #35281E",
":  c #3A2B1E",
">  c #333618",
",  c #352922",
"<  c #352924",
"1  c #3C2D22",
"2  c #302929",
"3  c #3E3025",
"4  c #3B3429",
"5  c #412E24",
"6  c #433225",
"7  c #483626",
"8  c #44342A",
"9  c #49372A",
"0  c #473A2A",
"q  c #4D3B2B",
"w  c #5B3D26",
"e  c #513D2C",
"r  c #443B35",
"t  c #4C3D33",
"y  c #523F30",
"u  c #2E4E1A",
"i  c #374B1B",
"p  c #3A551B",
"a  c #3D631C",
"s  c #3C4723",
"d  c #3B5622",
"f  c #3E6424",
"g  c #44571D",
"h  c #4B571D",
"j  c #47671D",
"k  c #446C1D",
"l  c #54681E",
"z  c #49761C",
"x  c #4C741D",
"c  c #53741E",
"v  c #557B1E",
"b  c #65711C",
"n  c #454A27",
"m  c #594922",
"M  c #55412E",
"N  c #59432F",
"B  c #445C23",
"V  c #485927",
"C  c #525C27",
"Z  c #4B4439",
"A  c #544232",
"S  c #5B4532",
"D  c #5E4835",
"F  c #574A3B",
"G  c #4B5432",
"H  c #58573A",
"J  c #725B27",
"K  c #624A35",
"L  c #644D39",
"P  c #684D39",
"I  c #65523B",
"U  c #6B523B",
"Y  c #71563D",
"T  c #466625",
"R  c #4B6324",
"E  c #4B6B24",
"W  c #4B6B2A",
"Q  c #596725",
"!  c #536C24",
"~  c #54642B",
"^  c #536C2A",
"/  c #5B6C2B",
"(  c #4D7323",
")  c #4D7726",
"_  c #547423",
"`  c #5A7424",
"'  c #547B23",
"]  c #5B7C24",
"[  c #53742B",
"{  c #5C742B",
"}  c #537B2A",
"|  c #5C7C2B",
" . c #4D6934",
".. c #586B36",
"X. c #577635",
"o. c #5D7532",
"O. c #5D7B33",
"+. c #656A28",
"@. c #637D25",
"#. c #63742B",
"$. c #6B742D",
"%. c #637C2B",
"&. c #687928",
"*. c #737C2C",
"=. c #616835",
"-. c #647334",
";. c #637D33",
":. c #6B7D33",
">. c #677A39",
",. c #747B37",
"<. c #564C47",
"1. c #554E4B",
"2. c #5C5645",
"3. c #635444",
"4. c #675946",
"5. c #735A43",
"6. c #765D46",
"7. c #665C55",
"8. c #5E7240",
"9. c #686648",
"0. c #75674A",
"q. c #6A7746",
"w. c #72764A",
"e. c #6B6953",
"r. c #766956",
"t. c #6C7753",
"y. c #787857",
"u. c #6E6866",
"i. c #766D67",
"p. c #7A7566",
"a. c #7C7875",
"s. c #9C761D",
"d. c #856F2E",
"f. c #96772A",
"g. c #987B37",
"h. c #A27E29",
"j. c #887451",
"k. c #897A68",
"l. c #4E811D",
"z. c #58851D",
"x. c #688E1D",
"c. c #5C8325",
"v. c #5C832B",
"b. c #5B8828",
"n. c #5C8333",
"m. c #5D8634",
"M. c #648425",
"N. c #6A8424",
"B. c #648C25",
"V. c #6C8B24",
"C. c #64842C",
"Z. c #6B842C",
"A. c #648B2B",
"S. c #6B8C2C",
"D. c #748829",
"F. c #748C2C",
"G. c #689527",
"H. c #6C932C",
"J. c #73942D",
"K. c #7B942B",
"L. c #779828",
"P. c #648334",
"I. c #6B8433",
"U. c #648B33",
"Y. c #6C8C33",
"T. c #64863A",
"R. c #6C833C",
"E. c #6B8C3A",
"W. c #788636",
"Q. c #738C34",
"!. c #738B3B",
"~. c #7B8B3C",
"^. c #6C9333",
"/. c #6A9538",
"(. c #739333",
"). c #7A9433",
"_. c #739B34",
"`. c #7B9C33",
"'. c #74953C",
"]. c #7C943B",
"[. c #739B3B",
"{. c #7C9C3C",
"}. c #7DA529",
"|. c #7AA338",
" X c #6C8844",
".X c #778846",
"XX c #6E9444",
"oX c #799644",
"OX c #7A8657",
"+X c #7C9454",
"@X c #7DA545",
"#X c #7BA455",
"$X c #899A2C",
"%X c #838938",
"&X c #8C9231",
"*X c #849839",
"=X c #A9832B",
"-X c #A78830",
";X c #8AAB33",
":X c #87A638",
">X c #95A83D",
",X c #A8A62F",
"<X c #838A45",
"1X c #879846",
"2X c #839C4A",
"3X c #969947",
"4X c #838959",
"5X c #879A56",
"6X c #959755",
"7X c #A99150",
"8X c #87A646",
"9X c #95A846",
"0X c #91B445",
"qX c #8AA653",
"wX c #96A956",
"eX c #97B556",
"rX c #A3B14B",
"tX c #858A62",
"yX c #92896A",
"uX c #8C8D71",
"iX c #AC996B",
"pX c #99AA64",
"aX c #B3AA6F",
"sX c #A2C456",
"dX c #8C8885",
"fX c #958D87",
"gX c #9B9389",
"hX c #9D9996",
"jX c #A69A8B",
"kX c #A39D98",
"lX c #B5A98D",
"zX c #A7A29A",
"xX c #B2AEA9",
"cX c #BAB8B4",
"vX c #C2B38E",
"bX c #C2BBB1",
"nX c #D2C8AD",
"mX c #DACDAF",
"MX c #C4C2BC",
"NX c #B4BBC1",
"BX c #C1BFC1",
"VX c #BDC5C8",
"CX c #CCCECD",
"ZX c #D7DADA",
"AX c #E4DCCD",
"SX c #E8E7DE",
"DX c #D4DEE2",
"FX c #DAE3E8",
"GX c #DBECF4",
"HX c #DEF1FC",
"JX c #E6E9EA",
"KX c #E8EFF1",
"LX c #E8F4F9",
"PX c #F5F9FA",
/* pixels */
"R S.E.l.0Xv.:X#.B B ' L.G.(.F.! C J.B.A.S.c.| G.&Xg Q -.) } 8Xm.a z.B.z b.U._.9X&.>XK.N.v.C.@.c c k c.l j W.:XZ.W.C p z B._ @.K.",
"} T T W T.A.{.Q.B E Y.` b.v._._ S.).}.[.v @.H.F.M._ ^ ].) U.'.[.v.c Q._ z c.|.).*X3X9X%XR v &.K.g u k c N.D.@.@.#.{ ( b.B.@.K.*X",
"[ ^ J 1XT.} ^.U.g ( ^ V a :X:.V _ A.v |.Q.! c.C.E f H.V._ 0XXX} v.C.>XG.v ! ( x N.$X>X$X*.D.K.$Xl u a G.&.B [.W.+.C.| ] S.v J.D.",
"E %.Q H.v./.v.} ( } B { ! Q.#.i ` ) f m._.H.T d T.E L.] p P.|.E._ c $XL.$XW.$.Q D.L.V.$XL.@.N.@.L.V.v L.W.B c.A.B.v.l ] *XD.D.Q ",
"C ,.I.v.c.( ^.|.~.T n.c.Z.#.C.Y.A.~ E ( b.E V I.^.B.)._ +.i ) b.@.g ).;X9XL.c.c V.z.x.L.L.] (.M.&.o._ Z.R U.H.b.l.v b.*X_ ` *X*.",
"m / Z.| P.p | H.$Xz.) ) Q.%.`.S.Z.J.oXP.E c.&.*X8XH.8X<X*.g d | `.+.K.J.Z.v $X}.M.c._.8XV.C./.qXI.k c ( a G.b.x c.z ] 8X8XY.S.F.",
"d.T.R 8X'.X._.@.H.G._ R ! J.|.c.' k b.`.v.v.V.V.J.G.@.+.*.$.C  .:X*.k ( z.L.G._.Y./.qX>XD.c {.o.x %.c.l.' v @.| ] ! M.W.eX8XZ.G.",
"m.v.v.} T E ( | _ ^.%.d.%.~.<XN.g Q ` M.F.N.F.v z.V.*.$.D.*.<Xl.9X~.k v ] B.G.G.A.U.).L.V.c.' g i ) }.V.~.! #.*.,.~.v E.V.D.3X&.",
"].*X8X^ B p > M.l $.&Xl oX9XqX{.-.*.v ^.:X@.] c z _ ( ^.[ { O.E M.v z.c.K.).S.G.z.B.G.B.V.v z v._ v :X.X,.=.n b ~.9X` @.c V.D.<X",
"9X:.J.Z.Q ! T {.`.].C / 0X9XwX8X%.' 8X/.@X;X&.u p k H.C.( E.c x k ( ] x ' 8X_.z.x.J.L.x.@.D.V.c.@.}.>XoX#.*Xl p F.9X`.V.@.@.*.W.",
"9XR.E.,.%.X.W m.H.S.,..XA._.$.b K.m./.Y.W.L.C.! ~ M.`.R p } _ R | { %.R u z :XJ.K.W.B.}.` b b B g I.0XK.&.^ p u b.`.' @.D.$.%X*.",
"oXv.@XqXI. .R p { ;.'.;.^.:XT.h ` E ( z.P.^ ' Q *X>X{ U.v.W i E *X+.h B d R D.S.*XD.V.c.G.%.X.C.[ T.I.C.Z.:.^ d v.} ' B.Q %.}.N.",
"[.Q l Q.^.m.X.d ^ O.Y.&.' Z.sXU.k Q.|.|.m.s a z z.'.^ / A.v p j c.#.l @.V ` } z H.U.S.M.S.C.n.U.1X/.( E o.!.R.) U.Y.C.:XZ.c.$X;X",
"J.$.W.J._ E.8X@XE.g %.:X&Xg x c.( R :.Q.) a E m.!.'.C.*.| { X. ...q.0.tX..] z.v x.H.oXJ.] k b.Y.oX| [ i B T V ' S.-.j Z.3X1Xx.}.",
"O.%.E.8X%.;.'..X~ d '.;X>XQ.c.b.T p W.,.| b.a qXyXp.w.0.e.7.3.y t <.A 2.9..XY.A.L.;Xx.%.A.k N.>X8X;.[ C S.B Q *XQ.#.s ' H.^.V.;X",
"C.] I.:.H.8X>XA.' @X|.M.#._.T.-.E.^ D.1X8XE. XtXtX9.A 7 w e : 3.hXi.k.F 9 1 8 4 n H C ,.2XXXB.G.c.U.v B.1XZ.(.C.K.S.) G.E | |.8X",
"k c.$./ j +.9X;X|.;X' R | XXG ,.o..X1XG Z H Z 2 6 e N P U K 7 k.bXk.y A S S 9 = , 8 H w.t.p. Xz b.*X@.Z.0XZ.E v :XQ.Y.R T ^.{.U.",
"eXeX.X*.Q ^ [ :XG.B.Y.R m.w.4.pXtXy.r , 9 3 e U Y P e 6 9 A 7 gXk.xXj.- 1 5 6 6 9 D S I 5.A 2.q.m.I.J.rX`.k g ..` S.+Xu v.|.!.{.",
"T.U.I.c.k U.c.} _._.XX.Xq.e 2.K y % @ 1 7 q A D y y y y N w 6.cXP kXiXY q 9 9 q e S M ; 1 0 @ 0 OXT.}.].1XV.V.y.8.' t.w.9X].>.{.",
"~ T X. .E j } !./ {.+X0.P % 7 6 & e K N P q * & ; 1 - i.zXi.fXgXgXvXf.d.e 8 6 8 1 6 M q 3 : 1 # 8 H ` N.;XB.E y. X/.t. X:X1XC _ ",
"W I.oXn T n.E.9.B w.4.q % 5 U e y P P K ; 7.$ # % % @ Z MXmXAXnXnX7X=Xd.O o % % % = 9 A P y 5 9 $ 3 Z n W..XoXw. X@Xt.R.H.#.Q $.",
"B / @.{ b.8XH q.e.r.M ; 1 S S e Y K & .   kXhX# % @ % @ 5 f.=Xh.s.h.d.- O # o O O . . o = y D S 3 & ; 1 9 4.0.q t.OX3.5X^._ $.+.",
"f d ' 2X2XR Z 4Xj.P 1 q q e 6 S 6 X X % % dXxXk.X @ @ % @ J -Xh.h.d.= @ i.1., < 2 & $ # X O 1 e K q q 7 1 3 S : F k.I qXM.R -.3X",
"R.I.H.5X4XH 2.e.K = 7 6 6 1 7 1 . # & & + fXj.CXj.5 r % X % h.=Xh.w <.5 xXbX8 r <.r r 5 < @ # < 7 K U K S 9 3.U 1 e K L.G.@.q.;.",
"!.!.I.4X4XA e.D : 3 3 , 3 1 1 # % $ & 1 < cX6.gXiXd.gX7.. % f.=Xf.5.zXfXk.bX7.4 t r 4 r < @ O O % 6 5.S 1 7 6 5.q 7 q t.}.G.oXm.",
"/.oXX.4.8 L e 6 , 7 1 M ; , = O O # $ . y jX3.lXj.Y gXxX7.6.h.h.f.k.zXbXhXgXk.3.5 , 2 4 8 < % O . O 9 S 1 M ; : : D F p.uX0Xb.b.",
"T.!...Z 6 P q ; = M q 6 o # & # @ X a.i.jXlXbXbXs.g.xXGXBXk.h.h.f.iXZXCXbXzXd.f.m % & $ < 1 < $ .   O 5 : e 3 1 ; 6 F r...{.'.b.",
"%.o.w.8 0.e q : 3 7 q & o X < , = X u.KXSXmXaX7Xf.jXGXHXZXCXvXiXj.SXPXjXCXlXj.7Xd.< % & % = % & o . o 5 6 S 1 $ q 9 4.t.G B E.`.",
"W.>.9.2 0.K N q D e 7 , o . 2 & # @ O 3.g.g.s.f.j.JXGXGXLXPXSXAXbXPXJXg.g.=X5.j.f.& . X O $ % % o . % 1 D q 3 1 q * 2.9.q.j E z ",
"6X/ H , 7 S U 1 S U 7 1 : O o o O X # O J =Xh.s.2.KXGXHXJXPXPXPXPXPXZXg.h.=Xh.=XU o o % # o O # o X 4 8 U : ; N S = 0 Z oXB.J._ ",
"%X:.X.6 6 * I 7 9 e P - 3 o   u.k.Z 2 O : f.h.d.4 DXFXDXDXFXKXKXSXZXZX7X=X=X=Xf.o   # # # % = , o $ 1 8 D , 3 K M 1 1 2.4X%.^.I.",
"_ ` OXL M 3 q N 6 t K N 6 X   dXGXcXdX. . J =Xd.3.DXDXDXGXDXCXMXbXbXzXjXh.=X-X- r 4   1.r , , = o 1 1 y e - q K = % 8 9.:.T.;.B ",
"#.C.1Xp.q 5 P 5.q : S P U : . k.CXVXDXi.k.j.s.d.yXLXDXDXHXDXcXFXxXCXfXdXj.h.h.9 CXCXu.HXVX4 @ % < y q S 9 3 U 9 * 6 t 9.9.OX.XW ",
"$.K.:.OXI : M Y Y 1 S y P 4.8 u.u.NXLXbXkXd.f.f.xXPXGXGXLXcXgXLXDXHXZXCXaX7Xg.ZXPXHXLXHXDX2 . < y P K P ; e Y 7 y y 1 2.OX^.'.T.",
"P.D.-.+Xt.e A N P N K K ; 7 e t 7.xXNXBXCXjX7XaXPXLXHXHXPXdXi.LXGXGXHXPXmXbXaXPXPXLXHXCXxX$ 2 q e S K q % S S 6 ; & 2.OX].R _ ` ",
"{.*.^ W ..y ; D K N e U K ; 1 D 7.1.r.iXjXfXzXbXJXZXNXCXLX1.1.LXGXGXKXPXPXPXPXPXKXZXcXdXfX4 q 5 e e 6 e 7 S q 9 1 F 4XW.V._ x ' ",
"oXn.v./.e.2.- K Y K S 7 M D 0 1 S y Z S e F 1.k.xXzXu.kXBX2 r JXGXKXPXPXPXJXbXhXuXi.1.1.F 1 = 6 = , Y 5.Y Y K e 0 3.4X6XQ C.] +.",
"qX( ) qXtXoX2.6 S K y P N 6 7 7 5 5 , 5 S 0.6.i.jXk.dXhXr.= < cXCXDXBXxXk.1.8 8 1 4 3.5.A 1 6 9 N e e S N 7 6 = < OX:XD.n Q E n ",
"eXP.n.oX;.1XH 7 5 : e e N D P I U P K q 9 M K t r , 1 ; : y F 3.k.hX7.t 8 5 y y q 5.5.9 6 q 7 M y q e K e = % s G | V.@.h +.R :.",
"I.T.A.E.8X=.5 e 6 5 q 5 7 A N S e y e 7 7 ; 1 : : e N K K y K L 3.r q 3.3.3.K y D U D q e 9 : 1 q 5 5 6 = ; e 4XoX| Q ! #.Z.N./ ",
"-.T W C.OXr.3.7 ; q 9 1 1 5 9 7 e q D P S q - 6 q N Y U 6.5.U 5 5 < e K S M D L N q q 9 = ; 6 N M 3 : r r * 6 4.oXJ.h &.*X>X&XC ",
"oXR W C.q.2X0.9 8 & = * < 6 e 1 - = - S U 5.Y A q 5 1 q K D 5 5 3.P S P K 1 3 1 6 q 5 6 A S A L D q 6 r w.t.< 0.3XV.l &X$X$X&Xh ",
"oXB d O.' ;Xw.y 6 9 K 6 q q e S % X % < 1 S U Y 6.e e U Y y e j.j.5.U 1 3 : 9 S K N N M : & = - * 1 3 8 Z G q.4X9X@.$X,X$Xz.&XrX",
"/ d n ) m.R.e.r.y.j.D 7 A e e ; # $ = = ; 1 ; 5 7 D L 9 1 1 S K w K q 6 & 9 e 1 1 6 6 6 6 M D q : 7 U j.OXH N.oX XK.$X$X,Xp N.V.",
"!.T. XXXA. .p.t.5XyX4.6 7 7 q % & # = 9 = 1 q # & 6 & 3 - e U D < @ 5 q ; = q N 1 % , S K q I Y K S L y.qX8X;.%.A.@.`.H.;Xv F.` ",
"'.8.O.n.^  XOXX.pX!.9.9 3 q 7 ; # o 5 1 # 9 S % o = 1 q 9 & ; 9 & @ % = @ % ; 6 q : % * 9 5 = 3 A A 3.y.1X:.wX9X*X:XH.d c.}.*X<X",
"R C.XX) O.8X} m.!.O.r.e.4.D q ; 8 3 1 % % ; 9 % o o & = = & o # 8 1 % 6 ; = q 1 # ; q 6 2.8.> * Z t.tXtX+X$.%XZ.Q.$.Y.E B V.x.v ",
"+.1XXX) E.#.c.C.].E..X~ y.4.: F F & & 1 * ; = ; < & 1 q 1 # = = & < 5 1 6 $ 1 ; 1 ; = 1 F ;.4 ..R R.XXI.{.| v.{ x c @.O.~.Y.A.( ",
"Q V +X} ! ;.].$.1XqXE V OX3.t r.N : 5 6 1 6 = 1 4 4 = L q % 1 q % % 9 1 q 1 < , 8 A F y 4.y.;.[ Y.XXC.*.} b.K.D.Z.C.' c.8X) A.S.",
";.@X@XP.%.D..Xo.[.O.V ;. Xy.r.4Xy.F 7 N = & G n t 8 = L K 1 Z p.e % 9 e N D ; q 7 H <.y.y.4X#.] B f b.W ^ L.K.v a p z z.b.z v M.",
"eX:X>.XXoX1X .V ;.XX>.-.A.qXwXqXyXI I Z * 2 w.H H 2.8 y P L <.>.0.1 1 M M 0.Z 3 F H 2.y.5X+X{ E E } oX.X!.j %.n E z.z H.S.C.M.V.",
";XW.~.(.P.).[ _ s f [ Q.Z.c.0XeXtXw.y.Z 1 4.y.~ w.0.9.q S yX X_ oX3.6 6 S 4.y.n e.O.O.q.<XZ.v.E ' Q.:.Q.;.g #.%.c.H.c.Y.*.Z.Y.%.",
"Q.*X_.&Xl p R F.n u [.Y.#.n./.+XOXOX8.7.9.t.q.{ 9Xy..X=.S k.I.F.|.4.4.0 t 3.t.5X.X[ n.] ] c.Z.W.w.D.E._ ! &.L.H.E.XX^ ( ( Z._.B.",
"Y.(.m.] h j ;.%.h _ :XE./.} X.XX+XX.t. XE.q.q.Q H.`.4Xq.5.e.:.$X1X..2.n 2.7.X.XXE.d j ~.aX*X*.>X*X#.| E E $X;Xj XXoXB V.I.wX8X%X",
"R d n.) E z ].;.( P. X;XE.) b.m. X .OX[ T.6X~.g ' @X2XoX4XyXY.8X+XF  X2.8.t.OX[.B.W %.Z.aXrX1X*XS.B %.c.' 6X-Xl ' ~ ~ L.Q Q +.D.",
"X.p V XXT.v.O.P.H.)  X{.c.} v.f ' Y.~.W >.oX| B (.[.oX`.!.6XZ.8XX.H  X8.X.m.5XqXY.#.S.Q.rXrX1X/ ^ ! ( b.x >X1X|.p s O.C.g j ` `.",
"O.;./ oXoX#X!.%.v.} b.`.%.T )  .%.Q.n.I.P.^ R 2X].C.{ !.| %.&.pXpXOX.X| >.'.qXoX1XZ.C.:X9X1X9Xl i > [ ) j C.2X:XC g p _ c U.(.*X",
"-.-.C._.m.V Y.%.[ !.[.'.2X!.Z.*XZ.1X-.C -.R ^.'.v.v.Y.E.T W | 8XqX.X.X XoXpXq.[.&.@.! _ J.9X$.+.~ { a j z oXoX&.&.@.] Q.*.*X`.,.",
".XK.n.XXX.s c A.H.1XqX#X X:X9X.X` Y.=.i R.`.W.0X' ] ,.T._ R I.E.B 5XwX{ Z.>.T m.` H.*XY.D.,.I.T.A.|.[ u z 3X4X9.].Z.%.I.B Q.F.Q ",
"R.| [ ;.^ C.Q C.B.` 8X[ k _.wX7X,.{ Y.| !.9XrX0X(.oX.X/ |.!. XW f n.,.$.Y.P.k H.*X*X3X,X*X,.C { }.H.;.>.U.I.! B  X1X1XXX] L.v H.",
";.o.E.^ R E.! ~.W.!.Q.:.]._.#.<X,.^ / ~ R.W.'.c.S._.oX^ E.T. X>.T o.*X!.(.v._ L.%X1XwX9X~.%.j ` _.H.] ` | R _ E R / (.qX>X8X:.@.",
"..Q U.T.P.Z.,.OXq.!.<X1X3X8XO.V I.] C C n.v.).{ W.R p E /.v.R.>.-.~.:X-.Q.~.%.J.| Q.&Xd.l N.l Q Q.c.] | C.'.O.~ c A..X&X$X3X-.*.",
",.*Xv.( 4X8X:.~ #.Z.@X/.XXqXQ.B :.'.>.-.=.Y.I.<X!.q. X X>.qX].W./ >.n.W o._.`.Z.^ +.W.wX0X9XR.:.(._ A._.|.{ 4 i c.M.].D.$X%X#.` ",
"3XQ.>.W  .#X[ P.&.].~ Q.@XX.O.C.i E Z.&X,.%XI.,.1XeXwXT.' 1X*XoX| { i g M.| }.Y.^ :.9X1X.X].| ' ).-.I._.O.C R .X@.Z.1X).L.$.N.S."
};
