/* XPM */
static char *result[] = {
/* columns rows colors chars-per-pixel */
"64 64 250 2 ",
"   c #2B3419",
".  c #313F20",
"X  c #683B2A",
"o  c #7F3E3D",
"O  c #2C4919",
"+  c #37491B",
"@  c #2D531A",
"#  c #3B561B",
"$  c #366C11",
"%  c #3D621B",
"&  c #3B4921",
"*  c #3B5722",
"=  c #3E6423",
"-  c #4B541D",
";  c #45581E",
":  c #44641D",
">  c #446C1C",
",  c #4C6A1D",
"<  c #57671E",
"1  c #4A761C",
"2  c #4C741D",
"3  c #53741E",
"4  c #557B1E",
"5  c #69701C",
"6  c #424C22",
"7  c #475726",
"8  c #445C24",
"9  c #4A5C24",
"0  c #55542D",
"q  c #535B28",
"w  c #6B4737",
"e  c #744433",
"r  c #734F34",
"t  c #744C3C",
"y  c #7A4B3A",
"u  c #446323",
"i  c #4C6324",
"p  c #466A24",
"a  c #4B6B24",
"s  c #4A632B",
"d  c #4B6B2A",
"f  c #586426",
"g  c #536C24",
"h  c #5B6C24",
"j  c #53632B",
"k  c #546C2B",
"l  c #5B6C2B",
"z  c #4D7323",
"x  c #4D7A23",
"c  c #4D762A",
"v  c #537424",
"b  c #5A7425",
"n  c #547B23",
"m  c #5B7C24",
"M  c #54732B",
"N  c #5C742C",
"B  c #537B2B",
"V  c #5C7C2B",
"C  c #4D6833",
"Z  c #576B33",
"A  c #557433",
"S  c #5C7532",
"D  c #5C7C32",
"F  c #597C36",
"G  c #656A29",
"H  c #677625",
"J  c #637D25",
"K  c #63742B",
"L  c #6B742D",
"P  c #637C2B",
"I  c #6A7C2D",
"U  c #737B2C",
"Y  c #656A33",
"T  c #7A6939",
"R  c #657334",
"E  c #637C33",
"W  c #6B7C33",
"Q  c #687939",
"!  c #737D34",
"~  c #757A3A",
"^  c #5C5143",
"/  c #67544D",
"(  c #7A5848",
")  c #6C5A54",
"_  c #6D5A57",
"`  c #715E56",
"'  c #725E59",
"]  c #5C7241",
"[  c #6B7946",
"{  c #72704C",
"}  c #75625B",
"|  c #79665D",
" . c #786959",
".. c #7A6762",
"X. c #B63A11",
"o. c #C13E11",
"O. c #B2431D",
"+. c #904D33",
"@. c #B34C28",
"#. c #B04F2B",
"$. c #8D7833",
"%. c #C8471A",
"&. c #D34717",
"*. c #C64C21",
"=. c #8F5945",
"-. c #A85E41",
";. c #836554",
":. c #8C6C5C",
">. c #8D735B",
",. c #B16C50",
"<. c #85746A",
"1. c #8F766B",
"2. c #B07C63",
"3. c #57841D",
"4. c #568A1D",
"5. c #65891D",
"6. c #6C921C",
"7. c #4F8021",
"8. c #5C8424",
"9. c #5C832B",
"0. c #5B8828",
"q. c #5C8333",
"w. c #5C8435",
"e. c #648325",
"r. c #6A8325",
"t. c #648C25",
"y. c #6C8B24",
"u. c #64832B",
"i. c #6B842C",
"p. c #648B2B",
"a. c #6B8B2B",
"s. c #72852C",
"d. c #758928",
"f. c #738C2D",
"g. c #699527",
"h. c #6C932C",
"j. c #73932D",
"k. c #799728",
"l. c #749B2B",
"z. c #648334",
"x. c #6B8333",
"c. c #658B33",
"v. c #6C8B33",
"b. c #64863B",
"n. c #6B833B",
"m. c #6B8D3A",
"M. c #748433",
"N. c #798737",
"B. c #738C34",
"V. c #738B3B",
"C. c #7B8C3C",
"Z. c #689735",
"A. c #6C9434",
"S. c #6C943C",
"D. c #739434",
"F. c #7A9433",
"G. c #749B35",
"H. c #7B9C33",
"J. c #74953B",
"K. c #7C943B",
"L. c #739B3B",
"P. c #7B9C3C",
"I. c #7DA42B",
"U. c #7BA338",
"Y. c #6C8A43",
"T. c #788945",
"R. c #6D9345",
"E. c #7C9443",
"W. c #789845",
"Q. c #7C8C51",
"!. c #7EA546",
"~. c #7BA454",
"^. c #889A2C",
"/. c #848A39",
"(. c #8C9231",
"). c #83943C",
"_. c #859938",
"`. c #83A32C",
"'. c #87A638",
"]. c #94A83D",
"[. c #8EB137",
"{. c #A5A331",
"}. c #848A45",
"|. c #879746",
" X c #839B44",
".X c #959A48",
"XX c #8A8559",
"oX c #919854",
"OX c #A59254",
"+X c #83A243",
"@X c #87A747",
"#X c #95A847",
"$X c #89B447",
"%X c #96B448",
"&X c #86A456",
"*X c #96A957",
"=X c #8EB753",
"-X c #98B557",
";X c #A3B248",
":X c #A6B959",
">X c #98946A",
",X c #9A8577",
"<X c #B58A6E",
"1X c #A58A79",
"2X c #A89479",
"3X c #99A867",
"4X c #ADAC71",
"5X c #A2C457",
"6X c #A38E81",
"7X c #AA9585",
"8X c #B49683",
"9X c #B39C8C",
"0X c #B8AC87",
"qX c #BAA493",
"wX c #BBA493",
"eX c #C99D85",
"rX c #C9B98D",
"tX c #C6AB99",
"yX c #C4AC9A",
"uX c #CFBC93",
"iX c #C9B19E",
"pX c #CDB4A1",
"aX c #D0B7A3",
"sX c #D4BAA6",
"dX c #D7BBA7",
"fX c #D4B7A9",
"gX c #D6BCA9",
"hX c #D9BEAA",
"jX c #CFC794",
"kX c #E0D39C",
"lX c #D7C2A9",
"zX c #DDC2AD",
"xX c #DDC4B2",
"cX c #E1C5AD",
"vX c #E2C6B2",
"bX c #E8CCB7",
"nX c #ECD0B6",
"mX c #EED1BB",
"MX c #F3D4BD",
"NX c #F4D9BE",
"BX c #EED6C1",
"VX c #F5D7C1",
"CX c #F6D9C2",
"ZX c #FADBC4",
"AX c #F7DECA",
"SX c #FFE3CB",
"DX c #FFE8CF",
"FX c #FEE4D3",
"GX c #FFEAD1",
"HX c #FFF1DB",
/* pixels */
"i v.c.7.$Xu.'.N 9 7 n l.g.B.j.g i D.t.p.v.8.V g.(.; f R z B  Xw.% 4.t.1 0.p.J.#XP ].k.r.u.0.P 3 3 > 8.3 i B._.e.M.j # 1 t.v b k.",
"B p u k z.p.P.D.8 p v.m 9.e.D.v i.F.I.G.3 r.h.f.e.v k K.c Z.J.U.u.3 f.v 1 0.U.F./.].#X/.i v U f.; O > 2 5.s.u.J L K z 0.6.J F._.",
"M k G ).b.D v.h.; x k 7 > '.L 7 n p.1 U.f.v V u.a = g.y.v $XW.B V p.].g.m g z 2 d.^.].(.U d.d.^.3 @ % g.H i L.M.G u.P m a.4 f.k.",
"a H f B.V Z.0.c a B 9 M g D.N + g d z c.G.h.p * b.p k.m # z.L.c.v v ^.j.k./.L < d.d.6.`.d.5.d.5.y.y.b k.N.; 9.p.0.9., m _.d.U f ",
"q ~ W 9.0.v Z.L.C.u w.8.i.K u.B.a.j a z 8.a 8 M.A.t.F.n G . c 0.m ; F.`.#Xk.8.4 y.3.t.k.k.m D.J I R n I i c.l.0.3.4 t._.v b _.! ",
"- K u.P z.# V l.`.n x x v.P H.a.p.f.E.E > 0.K _.+Xh.+X}.U ; # V H.G F.j.i.4 `.k.e.3.G.@Xd.u.S.@Xz.> 3 2 % t.0.1 7.2 m +X@Xv.a.f.",
"$.E s @XJ.A G.J h.h.v i g j.U.0.n > p.H.z.9.y.y.F.g.J L U L q d '.U 1 z 4 I.g.H.v.S.=X].d.2 W.E 2 P 0.7.B m J V V g 0.B.:X@Xi.y.",
"D 9.9.B u p c P v A.b $.K C.}.r.: f 3 J s.y.a.4 4.y.U G d.U |.x %XC.> 4 m t.t.g.p.c.B.k.y.8.n ; + v I.y.(.a l U ~ C.n c.r.d..XJ ",
"P._.+Xk 8 #   e.< L (.< W.%X#XW.R U 4 Z.'.J J 3 2 n 2 Z.M N D , J 3 3.e.F.F.y.g.8.0.g.t.y.4 x m n 4 `.Q.~ G 6 5 /.$XH m 3 d.f./.",
"#XW j.i.f h s U.H.K.9 l %X].oX@XR n '.S.!.[.K @ # > h.u.z m.a v > 3 m z n @Xl.3.5.j.l.6.J y.y.8.J _.[.V.P ).< 6 s.#XH.y.J J U N.",
"#Xn.B.~ P F d 9.h.f.~ T.t.G.W G k.w.Z.M.N.l.u.h f e.F.i % B z p u.N P u @ 2 '.h.k.N.t.I.J 5 H 7 ; x.#X`.E g @ @ 0.H.n m d.K /.U ",
" X9.!.&Xz.C s # K D S.E h.'.m.; m a z 4.E g B < _.].l c.9.d & g _.b - 7 * i d.a._.d.y.8.t.V Z p.N q.v.u.z.W l * V V n t.h P I.r.",
"L.f < D.S.w.A * M V B.H B i.%XA., B.W.U.w.& % 1 8.J.v N p.n @ , e.l q r.9 b m 1 h.c.a.e.a.p.9.c.E.A.x a S V.n.2 c.m.8.].W V `.`.",
"a.L N.j.z v.+X@Xb.; P '.F.- 3 p.x a u.B.x % , 7.9.B.I H v 3 n = % B.U H 9 m n 3.5.a.E.j.m > 0.v. XA M + 7 a 7 B g.R : s._..Xj.I.",
"D P c.&XI E J.T.j 8 J.'.].j.8.0.u + d.~ V 0.% k.s.K.N.U 8 # 0.c % j.d.3 g j.t.m k.`.6.V p.> t.#X+Xz.M 9 B.# j _.M.K + v g.A.y.`.",
"u.8.i.! v.+X[.c.n !.U.u.H A.!.V.T.Q E..XE.c.v n.N.r.P.K v z V L.J.v.H.R K M.K.E D J.f.(.C.e.t.a.e.v.n t. Xi.j.u.k.f.c g.d V P.$X",
"$ P R l ; G ].[.`.U.V i E c.'.:XNXNXMXNX,X}  ...| y +.y y ;.mXBXCXnXlXCXMXVXvX .|  . .) y y t t x._.m s.%Xp.p B '.f.Z.a u A.P.c.",
"-X-XN.! b k M '.g.t.v.i w.a.M.3XhXhXhXzX1.' } | ' ^ w ( w ( sXlXhXaXqXhXhXzXaX} } } } / t t t t K V H.;Xl.> - j v D.T.O V U.J. X",
"z.b.v.V 1 w.B 9.G.G.R.n 7.[ .. .;.} yXvXlXzXqXaXhXhXfX:.} ' | ` ` | }  .<.zXhXhXaXqXzXgXzXyX` }  . .K.K.).j.y.h u 0.# S #X).S E.",
"j p A A p : B i.b P.S.R.S.Q.....} / aXMXmXNXyXxXBXBXBX<.} ..` / / ` ' / <.bXmXMXvXyXmXmXSXlX........! J '.p.i x.n.v.V V.@X).j v ",
"d z.E.6 i F +Xh O H H.a.d B z.Q.8X6XyXtXqXiXyXyXtX,.,.=.+.;.7X6X6X6X,X7X7XpXyXqXiXqXpX2X,.-.+.+.~ R J e.a.j.D.'.P.S.'.h.g.K f L ",
"8 N K N 0.$X$Xn O ! s.l.V e.4. XDXDXSXMXsXAXSXDXZX@.&.%.&.#.AXDXGXSXvXGXSXSXMXsXSXSXHXeXo.&.&.&.5 1 2 i a i.y.D.L.x p.U.y.v U G ",
"u * V G.g.i.L P e.b d.k.f L Q T.0X9XaXaXtXdXyX2X2X+.+.-.,.2.aXpX9X7X,X9XqXaXpXyXsX9X8X1.+.+.,.,.OX}.F > B 3.g.F.< t.g.[.r.i Y |.",
"n.x.c.H._.0 + 7 +XB.I s.5 / <.| ' _ fXVXbXZX1XX y y X 8XFXMXVXsX) ' } _ <.mXmXMXmX=.X y y t vXAXMXZX3X3.D.6.^.|.K N.D.`.g.P Q z.",
"V.N.v.'.:XE.Z 7 l Z.x.W.%X[ }  .| ) yXzXgXbX,Xw ( t w 1XvXsXvXyX} } } ' <.sXhXhXhX;.t ( e t iXzXlXcX*X5.k > 8.J.G.J.y.a l.g.W.c.",
"S.E.Z.W.-X$XV.V.8 p ^./.}.Q N G @.@.#.O.2.bXhXzXpXwXhXdXzXqXaXhXhXlX,.O.#.@.@.wXxXsXzXqXpXhXhXzXQ.1 B.H B., H.W.K J r.b p.I.p.9.",
"c.V.n.s R.z.A.c.g , '.(.K * u L *.*.O.X.2.CXmXMXvXyXVXmXVXyXzXMXCXAX2.%.*.%.X.yXVXmXVXyXzXVXmXMXY.$ v ~ f.1 8.[.|.6 < 5.n p.J.8.",
"W Z W.k k B L.g E 8.`.:X@Xq 0 0 +.+.2.<X8XpX9XyXyXyXyX9XpXwXiXwX:.1.+.e =.<X<XwXyX9XiXwXyXwXwXpX4X2X&XS t.; O t.^.V e.J ; 7 v.G.",
"N.N W.8 p Z.).Y &X;XB.U.c.0 =.e t w vXGXDXGXzXCXDXDXZXhXGXSXDXzXe e y e :.FXGXGXVXdXGXSXGXbXMXGXFXFX4X7.P.A.s M `.H.j.D.0.% z 2 ",
"oXj V g.A.E : Q %X#X@XK.f 6 w T >.>.tXdXqX9X,X7X9X8X2X,X8X9XfXyX:.:.;.:.1.hXaX9X7X1X9X9X8X1X1X8X0XjX3XY.J.C M n 0.t.l.J.l.e.k.v ",
"/.W B P.S.d 2 D.g f L.g h p V oXVXZXMXMX1./ } } _ w e e X ( mXVXZXMXgXAXVXMXvX_ ` ' ' ^ e e e X H G.Y.Y.I # , e.j.l.t.J N.E A.n.",
"b N v.@Xn.8 N @XD u.a p.9 j W :XzXdXlXzX,X' ..} } w t t y ( gXhXhXaXqXhXhXzXpX} | | ../ w ( t t f 4 n 0.y.a J '.J.h.9 L Q V N 8 ",
"K p./.}.oX.XT.0.P k B p.V.XX . . .' yXcXdXzXqXaXlXhXgX<.)  .} ) ` | } } <.hXzXlXaXqXcXsXhXyX_ }  . .T.m u.p.8.d.K.@X[ K i n B.k ",
"L F.K R ~ *X-Xx k i t.A.b.XX....| _ dXVXMXMXiXvXVXCXBX<.....} ) ) | | ) <.mXMXVXvXiXMXMXAXhX} ......XX[ i g % 5._.g.e.g B g.J.Q ",
"c.I L b. XR.D p 0.E a G.c a }.oXwXqXpXaXwXsXiXpXpX,.,.#.+.=.9XqX9X9X1XqXwXdXpXyXsXtXhX8X-.,.+.#.XXoXQ 9 + V p.y.r.6.y.H F.i v b ",
"'.! M d s b.u B 0.9.c F.c.D.3.E.SXDXSXVXhXSXAXFXCXO.&.&.&.#.AXDXDXSXvXGXDXAXMXsXSXAXHXeXo.&.&.&.$..X~ # l V V M 4 y.H d.d.v 2 n ",
"R.w.V L.F A x.j j.%XE R J.B.~ [ 2X6XyXyXqXiX9X1X1X+.+.+.,.2.wXyX6X6X,X6X7XiXyXqXpX6X2X:.+.+.,.,.OX<XrXQ i m.Z.* > 3 k.(.i u.m G ",
"$Xa M L.Q v.E w.*X#XQ.b.g.[ <...} ) aXMXmXCX1XX w ( X 7XFXVXVXpX) _ ' ) <.bXmXmXbX( X y y ^ xXAXNXNXkX:X*X5X%X~ g 4.k.y.- j i 6 ",
"5Xz.z.m.9.|.s Z.R.F Q.C t.*X . . .' yXcXhXbX1XX ( ( w 1XvXsXcXiX} } ..' <.sXhXhXhX;.y ( y w tXcXcXcXOX4XoXl.j.u.b 4 j.J - G i W ",
"z.c.p.m.+XH.u !.C O [ Y.S.'.E G #.#.#.O.2.vXhXhXpXwXhXgXvXqXpXhXgXlX,.O.@.@.O.tXcXfXzX9XaXhXdXvXOX5 l |.|.a.h.P.A.e.i f J i.i.h ",
"Y s s u.Z.J P.$XA.8.9.w.J.h.E L %.*.*.X.<XAXMXMXvXaXVXMXMXyXvXMXCXAX2.%.*.%.@.tXCXMXVXtXvXVXmXVX*X# * i }.:XV , F.y.- H _.#X(.< ",
"R.s k 9.K U.R.D A R.Z.i 9.C.T T +.y <XeXeXhXqXpXaXiXpXwXdXiXdXyX:.;.+.e =.eXeXyXpXwXdXiXaXyXyXhXrX0X^ O S -X$Xe.k.d.5 (.^.^.$.- ",
"P.7 # S n [.@X9.i Y.B a Z.$.o ( t t cXGXSXGXhXVXDXDXZXzXGXSXSXvXe e y e >.DXFXFXCXhXGXSXGXmXmXDXAXHX>XR T.S D.#X].J k.{.^.3.^.;X",
"l * 7 c w.n.q.l.P.@XQ b _.XXY r >.>.qXiX7X7X,X6X7X1X1X1.2X6XiXwX:.:.;.:.1.yXyX7X6X,X7X1X1X1X1.2X>X2XQ.V.+XM.I l.y.k.^.^.{.; 5.a.",
"n.Y.Y.R.p.* 9.z.l.#X).u.+X[ v E VXZXmXBX1.) } _ ) X X e e ( vXMXZXBXlXAXVXmXxX/ _ ' ' ^ X e X e - < v.g.k.+XW N u.e.H.h.[.4 f.V ",
"J.S q.z.A Y.z.M %XP /.q.w.k D./.dXdXhXhX1.} } } ' / ( y w ( hXlXdXpXqXlXhXzXfX}  .} | / t t w ( T '.W.j.D.W *X%X_.'.h.* 7.I._.}.",
"i x.S.d F @XB 9.M.q.L + g [ <. .| ' iXvXxXvXqXhXvXhXhX..' '  .) ' | ' _ <.hXvXxXfXqXbXzXvXiX' .. . .T.v.J.L /.P s.L v.d i y.5.4 ",
"G |.R.c m.K 9.u.F.v.x.6 u.Q { XX( { 0XuXuXjX4X9XjXjXkX>X{ { ;.{ / [ XX>.XXjX0XrXrX2X0XjXjX>X^ { { >.n.p.J.9.u.N 1 4 J D V.i.a.z ",
"h * Q.F g u.K.L  X&XM q c : B.'.).i.u.G (._.n V b.T.L.%XV.z I F.7 h U.v.Q p.O C ).P M v.p., V v.w.R.p.J B t.j.f.i.e.3.8.+Xc t.a.",
"V +X!.c.P s.E.Z W.S * Q V P H.'.%XV.E G Y v.m K 6 Z n u.E.c.6 Q.T.H v.H./.0   q j * m.F.K.f.N m u = 0.d g l.k.b : @ > 3.0.z 3.e.",
"-X_.Q W.W.|.j 7 b.Y.Q R p.[.[.$X%X&XY.] Q ! /.P # 9.7 v v.h.7 Z +XS.A.'.).K + 7 * u A e.'.J.h v a 9. X[ N.p P 6 v 4.1 A.a.9.e.y.",
"[.N.C.A.z.J.M v & u n B.s.7.[.=Xu.R.~.&XZ Y }.T.a.B.N 0.: I e.v F.$X%X*Xs * u k Y.A D P K.z.B 2 n B.! B.z.& L K m h.8.v.U M.A.K ",
"v._.G.^.< # i f.- + G.s.S 0.J.R.M w.c M s M z.x.@XM.G.9.& s p.f.U.$Xm.}.R 6 j v.K l 9.b 5 3.x.N.[ s.c.h k H k.g.m.R.j z x v.H.t.",
"a.J.w.n ; ; P P 8 v +Xc.Z.A F b.c.= x c.B.Z b l h.H.V.v ; g K ^.@XP.C j Z M s p.0.7 , D.4X XU ].).K V p , '.[.: Y.W.u y.I oX@X/.",
"i 7 w.n z 1 K.b.2 E Y.$Xm.z w.9.B p f.A n.oXN.; B !.W.g.d..Xr.@X&Xs M d d d z.G.p.s N i.4X;X|._.a.i K 8.v oX{.3 B k j k.f f H d.",
"A @ s Y.b.9.E E h.c Y.L.0.V 0.= x u.B.d Q W.D 8 D.G.P.H.N./.r.+XS # z.* d 9.S.@Xm.P a.B.;X;X|.l k g x t., ].}._.+ 6 K p.: : N j.",
"B Q G E.W.~.v.P V 9.0.P.V p c j P F.D z.x.d i +XP.u.N J.V K H 3X3XT.n.R Q L.&XW.).i.u. X#X_.#X< + . c c : p.W._.9 - ; 3 3 p.A.).",
"R Q p.Z.w.7 v.P M m.L.K.|.V.p.).e.|.R q Y g A.J.B V v.Y.u p z.@X&XE.}.Y.W.3X[ J.I J v n j.#XR G g R % : 2 W.W.J J J B F.! _.H.~ ",
"}.F.9.S.F 6 g a.a.|.@X~.b.'.*XC.b m.Y & n.H.M.$XB e.~ z.n i v.b.7 &X*XN v.Q u w.b g.).i.f.~ x.z.e.U.k @ 2 .XXX{ _.i.P z.; F.f.f ",
"E V A b.s P g p.p.b +XA p D.-XOX~ N v.S V.#X;X%Xj.W.N.Z U.V.n.d * b.~ H c.P 1 h./._.#X{.).~ q J I.h.z.R c.v.d 8 Y.|.|.Y.m j.1 l.",
"Q S m.k s v.k V.N.B.v.! ).D.P }.M.g l f n.N.A.8.i.J.W.k c.b.Y.[ s S _.B.D.9.v I.C.|.;X.XF.P : b H.g.m N V q v z i k D.@X[.#XW J ",
"Z k p.n.Q p.W XX[ V.}. X.X@XV 7 W 9.9 q D V K.K M.g # > Z.9.n.Q R K._.R N.C.J a.V B.).$.< r.g h M.8.8.M p.A.D q , p.}./.(..XQ J ",
"T _.9.d XX@XW j N M.+XS.W.&XV.8 W D.D Y Y v.v.}.n.[ T.Y.R *XE.M.k W b.d N F.H.i.k G ~ *X%X#Xn.I B.b a.G.!.b . + u.t._.f.k.(.G H ",
"#XB.b.d C ~.M p.K K.j m.U.A D u.+ a i..XU /.v.Q |.-X*Xb.b +X).W.V N + # p.m U.v.k M.#XE.T.K.N m H.R p.A.Q 9 q T.J i. XK.k.G i.a."
};
