/* XPM */
static char *result[] = {
/* columns rows colors chars-per-pixel */
"64 64 209 2 ",
"   c #1E542E",
".  c #20562E",
"X  c #235A2F",
"o  c #225D32",
"O  c #246234",
"+  c #296432",
"@  c #266937",
"#  c #2C6B36",
"$  c #266139",
"%  c #2C6E39",
"&  c #306F38",
"*  c #2A7636",
"=  c #2A743A",
"-  c #2D7C3C",
";  c #347736",
":  c #397C36",
">  c #337439",
",  c #36793B",
"<  c #397E3C",
"1  c #2C6D42",
"2  c #2F7346",
"3  c #2F7F40",
"4  c #307547",
"5  c #317749",
"6  c #347B4C",
"7  c #2F823E",
"8  c #3A8637",
"9  c #30833F",
"0  c #3D833D",
"q  c #37883F",
"w  c #3B8B3D",
"e  c #5A9F2F",
"r  c #458C35",
"t  c #40873E",
"y  c #428A3E",
"u  c #598534",
"i  c #548C36",
"p  c #5B8D36",
"a  c #54843A",
"s  c #528C3E",
"d  c #5B8C3A",
"f  c #469536",
"g  c #4B963E",
"h  c #4D9A3E",
"j  c #569336",
"k  c #559B34",
"l  c #599D34",
"z  c #53953B",
"x  c #5A9539",
"c  c #539C3A",
"v  c #5A993C",
"b  c #649437",
"n  c #63953B",
"m  c #4CA03B",
"M  c #56A036",
"N  c #5DA434",
"B  c #5FA835",
"V  c #56A23A",
"C  c #5CA43C",
"Z  c #5CAA3C",
"A  c #60A635",
"S  c #62AA35",
"D  c #61A73B",
"F  c #63AC3B",
"G  c #6AB537",
"H  c #6DB936",
"J  c #66B13C",
"K  c #68B43C",
"L  c #6EBE3B",
"P  c #73C339",
"I  c #318540",
"U  c #348A43",
"Y  c #3D8B40",
"T  c #37804F",
"R  c #368D49",
"E  c #388D4C",
"W  c #379049",
"Q  c #39914C",
"!  c #398453",
"~  c #3C8A55",
"^  c #3E8D58",
"/  c #3C9651",
"(  c #3D9852",
")  c #3F9259",
"_  c #448E40",
"`  c #469242",
"'  c #4A9642",
"]  c #4C9A43",
"[  c #4E9E49",
"{  c #519241",
"}  c #539C44",
"|  c #5A9749",
" . c #5D9C4C",
".. c #408F57",
"X. c #418E58",
"o. c #41935B",
"O. c #429D5A",
"+. c #499E5C",
"@. c #5F9E56",
"#. c #618E4B",
"$. c #649642",
"%. c #639B45",
"&. c #63974D",
"*. c #629B4D",
"=. c #629652",
"-. c #629C52",
";. c #4FA046",
":. c #4FA14C",
">. c #52A144",
",. c #5BA344",
"<. c #5EAA45",
"1. c #51A34E",
"2. c #5BA54C",
"3. c #57A94C",
"4. c #5EAB4C",
"5. c #5FB14F",
"6. c #4FA350",
"7. c #45A35D",
"8. c #4EA55B",
"9. c #51A552",
"0. c #5BA654",
"q. c #53A955",
"w. c #5DAD53",
"e. c #5FA259",
"r. c #54AC5A",
"t. c #5CAD59",
"y. c #5EB254",
"u. c #55B05F",
"i. c #5EB45B",
"p. c #5FB85E",
"a. c #61A544",
"s. c #62AD44",
"d. c #63A14F",
"f. c #61AE4B",
"g. c #65B344",
"h. c #68B642",
"j. c #6ABB43",
"k. c #63B34C",
"l. c #67B94C",
"z. c #69BC4C",
"x. c #62A453",
"c. c #62AB54",
"v. c #61A359",
"b. c #62AB5B",
"n. c #62B553",
"m. c #65BA54",
"M. c #68BE52",
"N. c #61B55B",
"B. c #63BB5C",
"V. c #68BE5C",
"C. c #469B63",
"Z. c #469C63",
"A. c #47A362",
"S. c #49A264",
"D. c #4CAC65",
"F. c #4BA569",
"G. c #4EAB6D",
"H. c #5AA264",
"J. c #50AD6F",
"K. c #4FB16B",
"L. c #56B363",
"P. c #5AB665",
"I. c #5FBA64",
"U. c #55B56C",
"Y. c #5BBA6B",
"T. c #4FAC70",
"R. c #50AE71",
"E. c #53B272",
"W. c #56B877",
"Q. c #5CBE71",
"!. c #57BB79",
"~. c #59BD7A",
"^. c #62AE62",
"/. c #63AC69",
"(. c #62B362",
"). c #62BC63",
"_. c #61B76D",
"`. c #61BD6B",
"'. c #63B570",
"]. c #63BD79",
"[. c #6DC147",
"{. c #6CC24C",
"}. c #73CA47",
"|. c #72CA4C",
" X c #6BC353",
".X c #66C15D",
"XX c #69C45B",
"oX c #6CC95C",
"OX c #5DC175",
"+X c #5DC47C",
"@X c #65C264",
"#X c #69C661",
"$X c #6BCB64",
"%X c #63C36B",
"&X c #66C86C",
"*X c #68CA6C",
"=X c #62C574",
"-X c #65C975",
";X c #61C57A",
":X c #63CA7D",
">X c #5DC681",
",X c #5FC983",
"<X c #65C780",
"1X c #63CE85",
"2X c #63CF88",
"3X c #64D086",
"4X c #64D189",
"5X c #67D790",
"6X c #6BDC92",
/* pixels */
"- O 7 o , # # > , > > o _ # < >.] [ 6.] ] ' :.] ] ] ] ] } ] ] [ ] ] >., # `   o.2 6 ! 5 G.5 Z.o F.)   - 7 7 7 7 7 7 7 7 I 7 - - ",
"= = I + 0 > > > & t > 0 # ' # _ ] ] ] ] :.r.r.] ] ] ] ] ] ] ] ] ] ] ] # _ ] . +.6 ) 6 ~ ^ T.2 F.  I = o 7 I 7 I I 7 I 7 7 7 = O ",
"- 7 I @ _ < < < > _ , _ t > ] > ] ] ] ] ] :.h ] ] ] ] ] ] ] ] ] ] ] 6.+.] ] o r.! R.2 R.1 2X6 S.E o I = @ 7 I 7 7 7 I 7 I I 7 - ",
"I 7 I % Y 0 _ 0 _ < ] 0 } Y ` ' ' ] ] ] ] ] [ 6.] ] ] [ ] ] ] ] ] ] ] Q.q.' # L.o.~.~ W.! T.K.o R = @ I = = 7 7 I I 7 - = @ O O ",
"7 7 9 - U y ' y ' _ ] ' ' ] ` ] ] ] ] ] ] ] :.q.] ] ] ] ] ] ] ] ] ] h :.Q.] : Y.G.~.T.F.+X~ W * 9 w ; 8 f 7 I R 7 - I q w _ 0 & ",
"I 7 9 7 I ' ] g ] ] ] :.[ ] ] ] ] ] ] ] ] ] ] ] ] ] ] ] [ ] ] 9.:.] ] g Y.L.y OX+X~.>XF.6X) * w 8 f f k e m ( ( 7.K.' y < > > # ",
"7 7 I I - D.OXr.[ ' ] 9.>.[ ] ] ] ] ] ] ] ] ] ] ] ] ] ] ] ] ] L.+X] ] ] 1.+X1.1X3X,X4X>X4XD.w ] Z m Z h B [.%X,X5XOX' ' _ < > # ",
"I 7 7 7 - 7.5X4X1XOXY.U.q.r.g ] ' h ] ] ] ] ] ] ] ] ] ] ] ] ] ] +Xq.] ] g Q.1X4X4X4X4X4X4X:X@X@XXX$Xl.5.|.3.Q.2X4Xr.` _ < 0 > & ",
"7 I I 7 I 7.4X4X4X4X4X4X,X1XP.P.r.q.:.;.] ] ] ] :.] ] ] ] ] ] h q.Q.] ] h L.5X4X4X4X2X4X3X=X.XB.XXoXz.oX2.} %X3X1X:.] ' _ % > > ",
"7 7 7 7 7 Q +X4X4X4X1X3X4X4X4X5X4X4X3X4XOX] 6.Y.q.] g r.q.] ] ] h Y.6.g ] +X4X4X4X3X4X4X1X@Xm.N.V. XB.t.2.l.&X3XOX] ' _ , ` t > ",
"7 I 7 = - I K.4X2X4X2X4X2X4X4X4X3X4X4X4X4XOXL.] ] ] h q.OX] ] ] h r.U.] OX4X4X3X2X3X4X1X:X.Xm.).B. Xt.0.n.N.=X4XY.] ] ] ] , > > ",
"7 7 O = 7 - O.4X4X3X4X4X2X4X4X4X2X2X4X3X4X4X;.h c M Z c Y.q.] ] ] :.+X:X4X3X4X4X4X4X4X4X;X.Xn.B.B.m.w.n.n.B.:X4XY.1.] ' 0 ' 0 o ",
"7 o = 9 - - / 4X4X3X4X4X4X4X4X2X2X4X2X4X3X:X5.k V N 5.Z k.5.h ] ] L.4X4X4X4X3X3X1X4X3X4X%X.Xp.y.).(.n.n.k.y.:X,X9.[ ] ] ] 0 # _ ",
"  = 7 @ = - W 4X4X3X4X4X4X4X4X3X4X4X4X3X%X%X.X<.M B ,.g.N f.V q.OX4X4X3X:X+X-X-X-X3X3X3X=XM.).n.N.N.n.f.f.).4X<Xr.:.] ] < < ' # ",
") - o = I 7 W 2X4X4X4X4X4X2X3X4X3X4X3X=X.Xy.p.@Xl.g.K Z Z  X$X3X4X4X1X-X@X@X#X#X&X-X-X=X@Xn.i.I.N.b.i.s.l.-X4XL.g ] ] ` ` ] % < ",
"S.  E R - - W 2X4X3X4X4X4X2X4X4X4X1X-Xm..Xm.p.I. X X X{.}.{.oX1X4X3X%XB.@X.XXX#XoX XB.).B.B.4.).b.N.k.l.z.:X4Xr.' ] ] ] ' > _ >.",
"$ G.S.o = 7 / 3X4X2X4X4X4X4X1X4X1X&X@Xg.).).N.B.l.c.i.2.} 0.Q.4X:XB.).m.B.B.oXoXl.4..X@Xl.n.w.m.c.c.k.J B.4X4X9.] ] ] ] _ ] ] ] ",
"Z.6 ! R.W * I 2X4X4X4X3X4X4X4X4X%Xm.B.k.i.i.N.n.i.t.0.2.s.n.-X<X@XM.n.B.).M.{.{.h.}.|.{.l.m.i.i.x.f.k.g.%X4X3X:.] ] ] ] ] ] ] [ ",
"T E.,XG.~ ( 7.4X4X3X4X4X1X4X4X=XV.g.i.N.I.i.b.N.n.m.k.l.B.:X:X%Xn..XN.p.B.z.m.B.z.F 4.n.g.k.n.y.*.y.l.s.;X4X1X[ ] ] ] ] ] ] ] :.",
"F.! 1 ) ,X6X4X4X4X2X4X4X4X4X:Xm.m.k.w.n.B.c.c.k.<.s.f.k.=X:XV.M.f.I.).N.m.B.t.0.,.C s.g.J g.l.b.v.w.D m.3X4X1X[ ] ] ] ] ] ] ] ] ",
"6 ~ R.E.G.G.+X4X2X4X4X1X4X:X@Xg.N.n.n.N.v.B.V.n.n.y.I.=X:X@Xk..Xf.i.p.B.(._.m.k.g.h. Xz.S L j.c.@.<.J B.4X4XOX] ] ] ] ] ] [ 6.] ",
"! ! 5 ^ E.,X4X,X3X4X4X4X1X).z.s.i.N.n.*.2.<.f.g.K @X1X1X).M.g.(.N.B.N.(.).B.n.k.j. XoXs.H H <.%.,.y.g.@X4XOX] ] ] ] ] ] ] [ u.] ",
"6 ) E.!.~.,X4X4X2X4X4X4X=Xk.m.4.B.n.&.f.l.k.g.z.-X3X4X%Xk.m.4.w.B.^.^.).n.s.F F g.oXM.j.H j 2.*.2.n.l.i.6.L.:.] ] ] ] :.[ h u.:.",
"4 6 ~ o.R.,X4X4X4X4X4X1Xn.m.n.4.N.=.0.} ,.F M.:X4X4X:Xl.f.B.f.n.b.x.N.N.m.s.s.n.B. XM.M.j j s.*.(.m.F g ] [ Y.[ ] ] ] q.:.] ] ] ",
"^ Z.r.L.L.OX1X4X2X4X4X%Xk.N.n.w.&.4.4.C F k.:X4X4X1XV.g.c.B.n.x.-.5.s.g.g.z.M.N.(.z.@X0.l F s.-.(.<.k ] ] ' r.:.] ] ] ] ] ] ] ] ",
"  . o # ; r q.2X5X4X2Xl.<.).n.#.b.B.n.l.%X4X4X4X3XY.z.k.w..Xd.| 2.2.s.s.n.).B.i.).m.(.w.D F s.d.B.,.k ] ] ] ] ] ] ] ] ] ] ] ] ] ",
"' ] ' ' ] L.+XOXP.+X3Xl.4.).&.0.w.s.J @X3X4X4X4X;Xy.M.4.i.c. .i.2.Z s.`.;XM.M.i.i.).b.n.F D f.x.I.<.Z q.:.g h ] ] ] ] ] ] ] ] ] ",
"% t ] q.OXY.:.] g ] P.B.N.-.d.).n.z.).1X4X4X4X4XB.l.B.y.v.$.w.s.F g.`.3X:Xm.m.i.y.N.m.n.f.C N.-.).g.1.[ ] q.r.] ] ] ] ] ] [ ] ] ",
"< # S.OX:.g ] ] ] ' g ).x.-.I.N.l.`.4X4X4X4X4X4Xl.w.).d.=.p.y.g. X:X4X3X@Xm.N.B.y.b.n.f.f.c.N.v.i.C ] r.Q.+Xr.] ] ] ] ] ] ] ] [ ",
">.} 6.] h ] ] g ] q.t.N.-.I.n.l.@X1X1X4X4X4X4X1Xk.i.N.=.n.<.s.n.,X4X4X:XB.M.5.i.N.v.k.k.l.).P.v.Y.;XY.P.r.] ] ] } ] ] ] ] ] ] ] ",
"] ] ] ] ] ] h q.Q.U.3.u 2.4.k.&X3X3X4X3X4X4X4X<Xn.I.-.w.i.N.B.:X4X3X4X1XM.l.n.n.N.c.n.l.l.1XOX0.2X1X] g ] ] ] ] ] ] ] ] ] [ ] ] ",
"] ] ] ] ] :.OX+X9.g i j g P.3X4X4X4X4X4X4X2X4X=X@Xv.b.i.l.M.:X4X3X4X4X<Xm.g.i.N.x.f.k.F B.3X<X'.4X4Xr.] ] ] ] h ] L.1.] ] ] ] ] ",
"] ] ] ] ] 6.L.] ] { ' ] ] r.4X4X3X4X4X1X4X4X4X=Xb.b.N.l..X-X2X4X4X2X4X:Xn.l.w.i.x.0.w.F @X4X<X].4X4X;X' h ] h 9.+XOX;.] ] ] ] ] ",
"] ] ] ] ] ] h ] ' { ] ] g :.3X4X2X2X4X4X2X3X5X_.%.p.N.@X:X4X4X3X3X4X4X-Xl.n.i.w.x.w.s.g.1X4X1X;X5X2X3XP.>.3.y.@Xq.h ] ] ] ] ] ] ",
"] [ ] ] ] ] ] ] { g [ r.Y.OX1X4X4X4X4X4X4X4X1X/.;X2X4X4X4X4X4X4X4X4X4XOXl.k.i.t.$.<.<.V.1X4X1X1X4X<X=X&XB.k.g.V V V ] h ] :.] ;.",
"] ] ] ] ] ] ] ] ] r.+XQ.r.] L.4X:X1X:X:X-X=X^.;X1X;X:X:X1X3X3X4X4X1X4X;Xk.f.c.c.2.n.g.B.2X4X4X1X1X&Xm.B.B.B M S B M c :.OXS.% , ",
"] ] ] [ ] ] ] ] ] r.q.g c >.n.B.V.m.m.m.l.k.N.B.m.@X.X#X@X-X:X:X1X4X4X;Xk.4.y.%.b.l.s.%X4X4X4X:XB.).m.N..Xz.B B k Z m.%Xr.] 0 # ",
"] ] ] ] ] ] ] ] ] ] g C F A F n.g.k.g.s.n.n.f.n.M.B.V.B..X#X%X;X1X4X1X%Xs.<.l.$.2.k.s.;X4X4X:X).M.n.B.). X{.j.J L }.[.,.] ] ] ] ",
"] ] ] ] ] ] ] ] ] ] l N l k ,.y.y.w.f.w.n.4.I.).i.i.i.B.m.V.B.*X-X:X%Xm.g.D s.%.k.g.g.1X4X;X@Xn.@Xy.I.n.z.N.).m.2.z r : > + X   ",
"] ] ] ] ] ] ] } >.V M c k k 4.N.i.c.k.k.n.Y.Y.P.w.4.n.M..XoXoX$XXX).).l.F s.f.%.D A l.:X-XN. Xf.N.(.B.m.`.I.0.2.3.w.Y.L.r.8.+...",
"] >.] 1.9.' z z v %.u u p | d.-.=.f.N.b.v.(.^.c.c..XoXM. X.X X{.{.l.n.B.g.g.g.b D F [.$X@Xg.B.5.N.(.(.(.).m.I.y.i.+X>XG.o.T 5 2 ",
":.L.' ' } { s d j { 2.k f.n.w.w.0.4.k.w.c.4.N.).m.N.I.I.#X Xn.G L j.n.I.k.G a.b F F l.M.M.s.N.N.B.N.(.).i.y.V..X%X+XW.W.W.E.o.6 ",
"] L.[ ] ] ] ] ] c l 4.w.n.k.s.f.k.f.s.f.k.n.k.m.n.l.y.0.t.g.K J F <.i.N.M.d.a.d l C ,.4.m.4.w.B.^.^.).i.0.3.t.).:X4X1XE.~ 5 5 6 ",
"] 6.[ ] ] ] ] ] [ ).m.V.V.m.m.l.l.l.l.G J F g.j.<.y.B.N.2.v J P j.M.p.(.(.t.,.d l s.J l.m.4.N.b.0.y.y.m.j.@X:X1X4X>XF.F.E.E.^ T ",
"] ] ] ] ] ] ] ] [ 4X4X1X:X1X1X:X:X:X:X-X).)..X#XV.f.B.n.s.D z s.z.B.N.(.N.B.f.n 4.l.g.i.B.n.x.e.n.k.k.z.#X3X4X4X4X4X6X>Xo.5 o.G.",
":.] ] ] ] ] ] ] 1.1X4X4X4X4X4X4X4X4X4X4X4X4X4X1X1X;X=XB.h.g.,.3.N.N.0.m.f.k.a.a.k.l.<.t..X*.@.y.w.g.k.`.2X4X4X4X3X7.o.~ R.2XF.1 ",
"] ] ] ] ] ] ] ] 9.1X4X1X4X4X4X3X3X3X4X1X4X4X3X4X4X1X=Xz.n.n.c.n.b.b.p.<.s.<.0.t.l.m.4.B.x.@.i.4.g.l.%X1X4X1X4X4X3XI * W R.5 5 C.",
"] ;.' ` ] ] ] h q.4X4X4X4X4X4X3X4X4X4X4X1X4X1X4X4X=Xm.h.w.N.m.x.d.z.z. Xh..X'.m.n.B.y.x.n 4.4.g.g.;X4X4X4X4X3X4X2X/ 7 = o S.Z.o ",
";.y , ' ] ] ] ] r.4X2X3X4X4X4X4X4X4X4X4X4X4X4X4X1XN.m.f.b.B.d.0.n.n.l.z.XX1X1Xg.i.B.*.=.p.f.F m.-X4X4X2X4X4X4X4X,XQ - = W R   Z.",
"< # ] ` ' ] ] g L.5X3X4X4X4X4X4X4X4X4X4X4X3X4X4X%Xg.V.<.N.x.x.<.C S s.w.;XL.r.s.i.N.&.y.4.k.B.1X4X4X3X4X3X4X2X4X3XR 7 I = o I ) ",
"# ] , 0 ] ] ;.q.+X4X4X4X4X4X4X4X4X4X3X4X3X4X4X<Xk.k.B.y.*.| w.,.C l u.] r.1.g l 2.=.w.i.l..X,X4X1X3X4X4X4X4X3X4X3XW - @ $ I =   ",
"y # y ] ] ] ] 1.2X4X4X4X4X4X4X4X4X4X4X4X4X3X4X*Xg.w.).*.x.n.N e N g P.r.:.q.g c u 0.i.l.M.:X4X4X4X4X2X4X4X4X4X4X4X/ - - I =   - ",
"o 0 ` < ' } :.U.4X4X3X4X4X4X4X4X4X4X4X4X4X4X4X%Xf.p.c.&.i.w.S B c ' r.Q.] [ g i i c z.V.:X4X4X4X4X4X4X4X3X4X4X4X4X( - I = o - I ",
"> % > ] ] ] ] Y.4X1X4X4X4X4X4X4X4X4X4X4X4X4X2X).m.b.*.y.l F C g ] ] ] +X9.] x u V 3.y.3X4X4X4X4X1X4X4X4X4X4X4X4X5XK.7 - = I I 7 ",
"> 0 _ < _ ] ] +X4X4X4X4X4X3X3X4X4X4X3X4X2X4X1XI.).=.t.g e <.P.] ] ] g r.r.g a r.Y.:.] +X4X1X3X4X4X4X4X4X3X4X4X4X4X+X/ 7 I 7 7 7 ",
", > > y ' ' 6.3X4X4X3X4X3X4X4X4X4X4X4X4X4X4X<X).-.(.y.N B g OX9.] ] ] ] ' s ] :.] ] ] ] ] :.:.:.r.L.<X,X4X4X4X4X4X2X7.R I 7 I 7 ",
"= > , 0 _ g L.4X4X4X4X5X4X3X2X3X4X,X4X4X4X4X3Xx.t.y.C c ] g r.OX] ] ] ] { ] ] ] ] ] ] ] ] ] ] ] ' g r.q.Y.Y.OX1X4X5X7.7 7 7 7 7 ",
"# , 0 ` ] ] +X4X,X>XD.7.7./ W W W 7 A.4X>X4X].v.I.} OX:.] ] ] +Xu.g ] ] ] ] ] ] ] ] ] ] ] ] ] ] ] [ [ [ q.] ] [ r.OXD.7 7 7 7 7 ",
"# > < y ' ' D.7.O.Q I - - - 7 - I * O.6XG.;XH.,XOXy P.Y.g ] ] [ 1.] ] ] ] ] ] ] ] ] ] ] ] ] ] ] ] ] ] ] 1.] ] ] g ] ' 7 7 I I 7 ",
"> 0 ` Y I I - - R 7 7 I - = 7 - = Q ^ <XF.S.E.E.L.: ] OX:.] ] ] ] ] ] ] ] ] ] ] q.:.] ] ] ] ] ] ] ' ] ' ' ] y ] Y ] ` I 7 7 7 7 ",
"+ O @ = - 7 I I 7 7 = = 7 @ - U O E.J.o.E.X.!.C.L.# ] q.Q.] ] ] ] ] ] [ ] ] ] ] :.] ] ] ] ] ] ` ' ` 0 } < } < ` < y t Y = 7 7 7 ",
", I I I 7 I I 7 I I 7 O = 7 o E Z.! 1X1 E.4 R.~ r.o ] ] +.6.] ] ] ] ] ] ] ] ] ] ' ] :.] ] ] ] ] , ] , w ` , _ > < 0 < _ @ 7 9 7 ",
"O = I - 7 7 7 I 7 7 I - o = 3   F.5 R.~ X.5 o.6 7.  } 0 % >.] ] ] ] ] ] } ] ] ] [ u.r.:.] ] ' ] _ % ' # t # t > , > > y O I = - ",
"- - - I 7 7 7 7 7 I 7 7 -   C.Z.$ C.6 J.6 6 5 4 o.  ' # , >.] ] ] [ ] ] ] ] ] ] ] :.] ] ] 9.[ ] } < # _ O > > , % # % > O - O - "
};
