/* XPM */
static char *result[] = {
/* columns rows colors chars-per-pixel */
"64 64 250 2 ",
"   c #1A1507",
".  c #341308",
"X  c #11270F",
"o  c #182109",
"O  c #2C2C10",
"+  c #293515",
"@  c #353B18",
"#  c #343821",
"$  c #590201",
"%  c #520E0D",
"&  c #6A0201",
"*  c #790101",
"=  c #4B2E0E",
"-  c #60221E",
";  c #4E3529",
":  c #6D3B33",
">  c #2C4719",
",  c #39471B",
"<  c #344B1B",
"1  c #2D531A",
"2  c #375519",
"3  c #3C541C",
"4  c #3E5C1B",
"5  c #3D631D",
"6  c #3B4921",
"7  c #3A5422",
"8  c #3C5B23",
"9  c #3E6323",
"0  c #434D19",
"q  c #4E5A15",
"w  c #44541D",
"e  c #435B1D",
"r  c #4B591C",
"t  c #44641D",
"y  c #4D641E",
"u  c #446B1C",
"i  c #4C6C1D",
"p  c #55681D",
"a  c #4A761C",
"s  c #4C741E",
"d  c #53741E",
"f  c #537C1E",
"g  c #5A791D",
"h  c #65741D",
"j  c #434B24",
"k  c #554D2D",
"l  c #475726",
"z  c #445C23",
"x  c #4A5D24",
"c  c #535B27",
"v  c #715138",
"b  c #456424",
"n  c #4B6324",
"m  c #456A23",
"M  c #4B6C24",
"N  c #456529",
"B  c #4C632B",
"V  c #4B6B2A",
"C  c #536425",
"Z  c #5B6425",
"A  c #536C24",
"S  c #5B6C24",
"D  c #53632B",
"F  c #5A652D",
"G  c #536C2B",
"H  c #5B6C2B",
"J  c #4D7323",
"K  c #497726",
"L  c #4D7A23",
"P  c #4E752A",
"I  c #547424",
"U  c #5B7424",
"Y  c #547B23",
"T  c #5B7C24",
"R  c #54732B",
"E  c #5C742C",
"W  c #547B2B",
"Q  c #5C7C2B",
"!  c #4D6B33",
"~  c #576B33",
"^  c #557433",
"/  c #5C7532",
"(  c #5C7C32",
")  c #597B35",
"_  c #646928",
"`  c #637425",
"'  c #637D25",
"]  c #6B7925",
"[  c #63742C",
"{  c #6B742C",
"}  c #637C2B",
"|  c #6A7C2D",
" . c #757A2A",
".. c #737C2C",
"X. c #636C33",
"o. c #726A38",
"O. c #657334",
"+. c #637C33",
"@. c #6B7C33",
"#. c #677939",
"$. c #737D34",
"%. c #75793A",
"&. c #725245",
"*. c #6E7646",
"=. c #606355",
"-. c #890200",
";. c #970000",
":. c #A40000",
">. c #AE0000",
",. c #B50000",
"<. c #BC0000",
"1. c #C40100",
"2. c #CB0000",
"3. c #D30101",
"4. c #D90100",
"5. c #D70C0C",
"6. c #DA1414",
"7. c #E60F0F",
"8. c #ED2929",
"9. c #F02B2B",
"0. c #827B35",
"q. c #895549",
"w. c #916756",
"e. c #A86E5F",
"r. c #9A7464",
"t. c #B07466",
"y. c #CB7968",
"u. c #4E811D",
"i. c #57841D",
"p. c #65891D",
"a. c #6D901D",
"s. c #568327",
"d. c #5C8424",
"f. c #5D8A24",
"g. c #5C832B",
"h. c #5D8B2C",
"j. c #5C8333",
"k. c #5D8536",
"l. c #648325",
"z. c #6B8425",
"x. c #648C25",
"c. c #6C8C24",
"v. c #64832B",
"b. c #6B842C",
"n. c #648B2B",
"m. c #6B8C2B",
"M. c #768827",
"N. c #72862C",
"B. c #738C2C",
"V. c #649225",
"C. c #6B9225",
"Z. c #69972A",
"A. c #6C932C",
"S. c #769625",
"D. c #73932D",
"F. c #7B942B",
"G. c #749B2C",
"H. c #7C9B2C",
"J. c #648334",
"K. c #6C8333",
"L. c #658B33",
"P. c #6C8B33",
"I. c #65833A",
"U. c #6A843B",
"Y. c #648A3B",
"T. c #6B8C3A",
"R. c #748433",
"E. c #738C34",
"W. c #7B8D33",
"Q. c #788439",
"!. c #738B3B",
"~. c #7B8C3C",
"^. c #6C9333",
"/. c #699734",
"(. c #6C943C",
"). c #739334",
"_. c #7B9433",
"`. c #739A34",
"'. c #7B9C34",
"]. c #74953B",
"[. c #7C943B",
"{. c #749B3B",
"}. c #7C9D3C",
"|. c #7DA52B",
" X c #7AA335",
".X c #7CA23B",
"XX c #6C8943",
"oX c #798944",
"OX c #6D9445",
"+X c #749441",
"@X c #7C9443",
"#X c #7C9C43",
"$X c #789948",
"%X c #7D9651",
"&X c #7DA444",
"*X c #7AA453",
"=X c #889A2C",
"-X c #838838",
";X c #829434",
":X c #8E9332",
">X c #829B34",
",X c #88973A",
"<X c #839A3C",
"1X c #83A32C",
"2X c #88A638",
"3X c #94A83D",
"4X c #90B036",
"5X c #A4A831",
"6X c #B2D13C",
"7X c #858B45",
"8X c #879746",
"9X c #849B44",
"0X c #969948",
"qX c #8F9852",
"wX c #84A343",
"eX c #88A847",
"rX c #93A444",
"tX c #96AA47",
"yX c #8AB346",
"uX c #97B448",
"iX c #88A555",
"pX c #96A956",
"aX c #8EB753",
"sX c #98B656",
"dX c #A4A946",
"fX c #A2B74A",
"gX c #A7B858",
"hX c #A08F68",
"jX c #B38671",
"kX c #98A966",
"lX c #AEB56C",
"zX c #CC8A77",
"xX c #D58977",
"cX c #E2967F",
"vX c #A9C55A",
"bX c #ABC35E",
"nX c #928782",
"mX c #A89289",
"MX c #B0B0AF",
"NX c #D99986",
"BX c #E39985",
"VX c #D7A28A",
"CX c #EBA58C",
"ZX c #F2A88D",
"AX c #EFAA91",
"SX c #F4A792",
"DX c #F2AC92",
"FX c #FAB498",
"GX c #D3D8D8",
"HX c #EDF3F5",
/* pixels */
"n P.L.s.yXJ.2XE x z Y G.Z.E.D.A n D.V.x.m.} Q C.;Xw _ | J W wXk.5 i.x.s f.L.{.tX| rXS.c.v.x.E g d u d.d b E.<Xv.R.D 3 s x.I T F.",
"W m b V L.v.}.E.z m P.T g.l.`.I P._. X`.d l.A.E.l.I G ].L ^.].}.g.d E.I a f.`.F.-XrXtX-Xn I M.M.e > u s p.B.l.] [ [ J f.V.` _.:X",
"R G Z ,XY.Q P.n.e K A l 5 2X{ l T v.f .XB.I T v.V 9 m.c.I aX+XW g.v.rXC.T G J s z.=X3X:X] M.F.=Xi < 5 C.] x {.R._ v.Q T m.I C.F.",
"V ] Z E.Q /.h.W M Q x G I ).E , I R 5 v.`.A.m 7 L.m S.T 2 ( .XL.I d 1XS.F.W.{ Z M.S.M.1XF.l.z.' S.c.Y F.Q.e v.n.x.g.i T '.M.N.Z ",
"c $.K.Q v.f /.{._.N j.T b.[ v.P.m.B M J d.M z R.).h.F.I H 0 K h.' w _.1X3XS.d.Y M.i.V.S.S.T `.' { ( I b.n L.Z.g.s.u.n._.U H >X$.",
"r X.v.Q J.2 Q G.1XT K Y E.} '.m.b.A.$XJ.u h.[ >X2XG.9X8X .w 7 Q H._ _.D.b.T 1XH.l.i./.2Xc.J.T.eXJ.u I J 5 V.d.f i.a Y rXwX).m.B.",
"0.U.n eX].^ `.' A.A.U y y )..Xd.T u h.'.+.g.m.c.).V.` _ ] ] D N 2X$.i J i.G.C.G.P.(.iXuXM.d 9X( i v.d.u.Y T l.W T C g.E.bXeXb.C.",
"} Q Q W N m P Q I ^.` %.| @X-Xz.e Z d l.N.c.c.g i.c.$.{ R.$.7Xs.uX~.a d T V.V.A.n.L.F.S.c.d.Y e < I |.c.;XC H ..Q.~.g J.l.M.8X] ",
"[.<X9XM z 3 + l.r | ;Xp }.yXeX#XO.] T ^.>X] T d a d i /.R E ( M l.d i.d._._.c.A.f.x.V.x.c.f L T Y f 2XoX%.X.0 h -XtXU ' I c.B.7X",
"tX@._.N.Z A B }.<X;Xc H tXdXqXeXO.Y yX/.&X4XE < 4 m A.v.J T.s d u s T J Y wXG.i.f.D.G.a.' M.c.T ' >X3X+X` ,Xc w m.rXH.c.' l. .W.",
"tXU.E.$.} ) P g.A.B.%.oXx.`.$.` F.k./.K.!.G.g.S C l._.b 4 W J m g.E ] b 1 Y 2XD.F.W.V.|.` g ] z w K.3X|.@.V 1 > h.`.Y ' M.{ -X .",
"}.g.*XiXJ.! B 3 E ( (.+.^.2XT.w g V J f.+.A Y S >X3XE L.g.V 6 A >XS r l 7 n c.m.>XM.z.d.x.Q ~ x.E j.U.v.K.b.G 8 Q Q Y x.S } G.z.",
"{.C S E./.k.^ 7 G +.B.[ Y b.vXA.i E.}. Xj.6 5 a g.].I E n.Y < i v.H c z.x I Y a A.L.A.l.c.J.j.L.#X^.L M / !.U.f L.P.v.2Xb.d.1X1X",
"D.{ Q.B.J P.wXeXY.3 } 2XW.w s d.J M } ).K 5 M i.v.E.[ ] I d L 9 m E. .} z Q f g x.m.].D.T m f.P.9X^ P , z n l W A.O.t N.8X0XC.|.",
"( +.L.eX| +.].oXD N ].4X3XB.d.h.N < R.-X} h.5 S...[.W. .x 2 h.Y 5 F.c.g S D.C.Q H.=Xc.T n.u x.rXeX+.R x m.z C <XE.` < I A.P.B.1X",
"v.Y K.R.L.eX4XJ.Y .X.Xl.[ /..X!.T.A R.[.[.g.J g.E.c..X+.J a K n.v.l.G.Z A U b.l.Y `.C.:X<Xi.V.c.d.P.f n.9Xb.D.} H.E.P Z.M Q }.yX",
"u d.O.H y _ tX4X1X1XW n +.n.2XuX+.!.<XQ A A J T Q V. Xv.V W n.A.I.d.E.-X@.A C s z.D.s.x.[.Q g.L h.<X` M.uXg.m Y 2X).(.b b /.}.L.",
"sXaXQ.$.U C R  XA.x.(.n j.P.$.eX0X[.*XkXXXV m.A.T V. XE.| , G ).`.#X`.v._.:X` U 1X{ T F.}.L.R N d.T '.uXH.i w F I P.oX> v. X!.<X",
"J.Y.K.' J h.Y g.`.`.OXW L #X*XXXl 8X9XiXB B (.d R g.G.E.Q.} K.J.].rXrXv.z.' g G.z.k X.c T .XM 9 h.d.1X[.<Xc.c.S M s.2 / rX<X( @X",
"D N ^ ^ m t W P.U ].(.].+XT./.M _ ,X>X( +.| v.< 2 K A.T d G.2XF ~ E.`.' U Y V.5 w.CXDXNXv n u s T d.V.' 2Xn.V J.@.(.} (.eX,Xc I ",
"M I.@Xj n ) eXA , ' H.^.G K f.^.'._.!.N g.B.n.P 4 d.m.Q N.b.rX~.XXR J I j.P.u &.NXhXzXVXmX; r } P.T d.l.m.D.D.2X{./.2X/.A.[ Z { ",
"z E ` E s.yXuXI > $.b.A.Q Q V.L.A.' } } t W ^.Z.(.f.n.*X@.` J.OXk.< 3 @ V ^.3 e.MXHX=.MXGX# t S.l.s d t M b.C.].}.L b.'.x.I $._ ",
"9 7 W '.A.b.[ } d.U W.M.Z { A.n.Z.d.} _.D.M t ^.eXQ (.+X{.<XT U p =X5Xh r U # r.MXGX=.nXMX; 3 c.d.f K b Y i.S.E.Z x.Z.4Xz.n O.8X",
"U.U.n.}.,Xc , z eXB.] $.` r , x.`.W } | gXx s T ^.d.U l H D A a.6X=Xq h c ~ 6 w.w.=.&.=.w.e.e Y.m a x.x.E.p.=XwX[ E.`.|.C.g.o.J.",
"~.!.P.2XsX8X~ l G ^.J.#XaXG < h.] A l.>XQ.D T l.2XB m J O = O 5X=XO O q o O.J.k t.MXHXGXnXw.S ).d.f C.c.A t d.].).).z.M G.Z.{.J.",
"(.@XL.#XsXaX!.E.x m ;X-X8X%.H i m V.I g.wXB.x }.l., + @ o   = a.  3 0 o o } -Xw zXmXMXhXVXq.4 z 5 L m.{ E.i  X$XE b.z.T A. Xx.g.",
"L.XXU.N XXk.).L.A i 4X:XH 7 N W ^ T !.T.yXa.} E . & :.,.<.:.= o -.,.,.,.;.. J c BXDXzXCXFXk + 8 8 K R #.E.a i.4X8X3 p l.g m.].d.",
"K.G 8XG G s.{.A ( g.1XfXeX9 7 8 P.E.!.U.( e !.O :.7.3.2.1.4.-.$ 3.<.1.3.3.2.. &.FXAXFXFXNX; B N B Q )./ x.t > V.=XQ ] ' e z T.`.",
"R.E $Xz m /.@X_ qXsX^.}.P.1 > 3 9XpX$XI.^ T < -.7.9.6.2.1.,.,.,.,.1.2.3.4.:.- CXDXSXAXFXw.< n.b.b.8X#Xd.}.).B R |.H.D.).d.4 I a ",
"0XF g.C./.+.x O.uX3XeX[.F > 6 z E gXeX(.J.&X= 3.9.9.8.2.2.2.2.2.2.2.3.1.* : VXDXAXAXAXSX; +.d.Y A.<X%XoX!.! I R d.x.|.].A.x.G.I ",
"7X@.W `.(.V s `.A Z +XS A m } <XV I /.{.eX#X$ 7.9.8.8.2.2.2.2.2.2.1.* : jXFXFXAXSXAXFXe., 2XG 5 f.[.XX!.b.2 i l.^.`.v.' !.+.T.K.",
"I E !.eXU.l U eX( v.J n.x D Q.uXn.e R 7XpXB & 7.9.9.8.1.2.2.2.2.2.& jXFXFXAXAXAXAXFXNX@ ' | F.oXu f s.x.z.J ' ,X`.Z.x { @.} E z ",
"E n.-X7XqXqXoXn.} G W n.R.kXoXQ.U.Q L. X`.> * 7.9.9.5.2.2.2.2.3.:.q.FXSXAXAXSXAXFXBX; u l.H 2X=XP.m.].` v.x.d.M.<XwXQ./ z Y P.G ",
"[ _.| O.%.pXuXK R n x.^.I.@XJ.z I.*XyXW W 9 * 4.6.5.2.2.2.2.2.3.;.q.BXAXDXDXDXDXt.# t l.:X .R.B.'.R.8X*.C A u i.>XD.l.d W A.{.@.",
"J.N.[ U.8X+XW m h.Q b `.P m 9X%XE.I ~.XXz ~ & 4.1.1.2.2.2.2.2.3.;.: y.y.xXxXxXv + v.T d c.N.U Q qXsX#.N < E n.z.z.C.z.` W.A G U ",
"<X$.R N ! Y.N W f.J.W F.L.).T m.pX^.^ W C I.O 2.3.2.2.2.2.2.2.2.2.$ v t.t.q.. o V.Y S p A.2X;XtX0X0X%., G g.Q R g c.l. .B.d s Y ",
"#X( s.{.k.^ +.G P.tXJ.+.].E.E.Q ].L.Y.Y M w.j ;.3.1.2.2.2.2.2.2.2.>.& - - $ . n V.5 g.D.P.<X>X;X-X-XVX(.A Y./.9 i f S.;Xn v.T _ ",
"eXK R }.#.K.J.+.tXpX%XI./.Z.m.R h.J.) c w.SXjX% 3.2.2.2.2.2.2.2.2.1.>.;.;.,.. c.2X).'.tX.XS.| >XdX-XlXlXiXvXtX%.I i.S.z.0 F n l ",
"gXJ.j.P.} 9XB h.OXk.oXB n.6Xx.W k.I.E e.FXDXBX; ,.4.3.3.2.2.2.2.2.2.1.,.1.;.@ 3X<X2X2X-XJ } >X>X .0.0.lX8XG.D.v.U Y S.] C Z x +.",
"I.L.L.T.eX'.N *X! > *.XX/.#XJ.E ) ) o.xXDXZXZXq.& ,.;.>.<.3.2.2.2.2.2.2.4.-.U 5X!.M.d J l.U B.`  .Z Z -X0XL.A..X).T C C ` b.N.S ",
"/ N n v.^.z.].aXP.d.h.( /.^.+.O.T S 0.BXSXAXSXCXzXt.r.q.: * 2.2.2.2.2.2.4.& T ;X~.H , +.W.T T T } G 8 A ~.lXg.n S.D.r _ ;XdX:Xc ",
"+Xn V l.Q '.].( ^ OX/.C g..X[.R.a.A.q.y.SXSXAXAXFXFXFXFXFXr.* 4.1.2.2.1.2.$ f x.sX@X@.@X#.A U _._.c + 3 E sXyXl.S.c.h =X=X=X0.q ",
"}.z 8 ) W 4XeXg.n XXW M P.E.pXgX7X2XZ q.ZXDXAXAXAXAXSXCXFXxX- 1.4.4.3.4.-.o r x / j M D.T ] | _ o.c z *.XXO.`.rX3X` =X5X=Xi.:XdX",
"F 7 l ! h.J.j.`.#XeX@.T ,XqXeXpXrX>X, # t.CXFXDXAXAXDXSXcXt.    $ & -.$   0 c 0 = O , ).Q P.d.` k F +.!.wXR.| G.b.F.1X=X5X4 p.A.",
"!.I.XXOXL.8 g.j.G.tX,Xv.eX#.A w f F.O.> @ q.t.xXSXSXBXy.y.&.o # X X X X , 3 0 0 + c Q.+.Q ^ t U S X.E.C.S.wX@.[ g.l.'.P.4Xg B.Q ",
"]./ j.I.~ XXJ.R uX@.oXQ k.G '.] ` 2X} S b.G O ; k : q.: : o , , b z < r p i , @ s sX8XY ^.V c ] l.}.#XA.).@.pXuX,X2XA.8 Y |.>X-X",
"n K.+XK ) eXW g.E.s.| 6 B [.yX=X3X0.Z Z b.v.G.+XQ ( A } V z e ' `.J.B sXuXtX} d E sXP.) E J.A ] G R #XP.].{ -Xv.M.{ P.M z c.l.Y ",
"_ 8XXXP T.[ s.v.W.P.+.0 g.| ).5X0._ { %.0X[.}.N qXaXvXbXW.' | H.Q ( tXkXsX2X+.} ~.!.} $Xm.y < O.I L.L.v.}.W g.E a g ' ) ~.m.m.L ",
"S 7 %X^ M } [.{ 9XiXG B R e E.2X[.P.K.{ 0X8XE J.XXoX}.uXoXJ ] Q.l S '.J.#.Y.6 ~ 8X} / !.).M ( L.P.OXv.b.Q f.D.R.m.l.g d.wXK n.m.",
"Q iX&Xv.| N.@X~ #X/ z #.R v. X2XtXE.| _ X.P.T U j ~ Y Q @XL.j %XoX[ ^.'.-Xl O c D z T.`._.A.` T x t s.V A G.F.g 5 2 a u.h.a i.l.",
"sX,X@.$X#X8XD l ) +X#./ n.4X4XyXuXiX*.) O...-X@.8 d.l J L.A.l ~ wXT.(.2X<XE , x 8 z ^ l.wX`.S I M s.9X*.E.m +.j A i.a ).m.g.l.c.",
"yXW.~.^.J.].R I 6 N I E.b.s.4XaXL.OX*XiX~ X.oX@Xb.E.R n.t | l.U '.yXuXpXD 8 8 G I.^ +.} ~.J.Q i Y E.%.).J.j [ ` s.A.d.P...R.P.} ",
"m.>X`.=XS , n B.w < `.N.E g.{.OXR k.K R D R I.K.tXb./.g.6 D b.B. X2XOX7X/ j D ).| ~ g.U ` g @.Q.oX..L.U A ] S.A.XXXXG I s m.`.l.",
"P.).j.Y r t J.} r I wXL./.^ ) k.L.9 L L.T.G U F Z.}.].I r A [ 1XeX@XB G ~ R B n.d.z y _.lX<XN.3X9XH Q N m >X4Xt ].+Xx c.@.pXeX-X",
"n z k.Y m s }.+.I ( U.yXY.J h.j.W m E.R U.qXW.e Y &X#Xc.W.:X| wX%XB ^ V V V J.{.v.V Q b.lXgX9X<Xm.y Q d.T 0X:Xp Y G D G.Z Z ` M.",
"^ < N XXY.g.+.+.A.W XX}.h.T j.9 Y v.E.V #.$X( z ).{.{.'.N.7Xm.wX) 3 J.8 V g.(.wX(.` m.E.dXdX8XU G A J f.d 8X0X2X3 6 Q g.n t E D.",
"W #.F #X%X*XT.} s.W h._.Q J P D } ).j.@.K.V n 9X}.v.E ].Q ` } kXkX@X!./ #.{.iX$X[.b.v.wXtX,XrXp < @ K W t v.8XwXx w 3 I d n.D.<X",
"O.@.v./.k.z P.| R !.{.[.%X!.b._.b.8XO.c O.p ^.[.Y Q P.XXb V } eXiX7XoXXX+XkX*.].| ] A I G.tX{ X.C / 5 t s &X@X] ` ' Y _.$.<X_.%.",
"7X_.s.$X^ j I n.m.8XeX*XXX<XpX~.U L.X.6 U.}.R.yXY v.U.@.Y n P.L.x iXpXE P.#.N h.U A.-XN.B.Q.U.J.n.2XG < a qX7X=.<Xm.( P.e E.B.S ",
"+.Q ^ +.V ' A v.n.U eX^ u ].gX0X%.E P.E T.rXfXuX).#X!.~ .XQ.XXN 9 ) %.{ P.} u ).;X<XtX5X-X%.c U |.A.J.O.L.m.V z oX7X8XXXd.D.f A.",
"#./ T.G B P.G oX!.!.K.@.[.`.[ 7XR.A H H Q.Q.).d.b.].+XG Y.J.XX*.N / ;X!.).v.J |.-X8XsX0XW.} r U `.A.T R Q D I J n A ).iX3XrX+.' ",
"~ G n.K.+.v.%.7X*.~.oX,X0XeX( x @.Q l c j.g.].H R.A w m /.g.U.#.O.~.2XO.R.~.' m.Q E.:X0.d z.A A E.d.d.U v.^.( c d n.7X-X:X0XO.z.",
"o.<Xj.J 7XiX@.F ` !.&X{.{.iX!.z @.{.+.{ X.P.P.7XT.*.XXXXO.pX@XQ.~ @.+.P ( _.>Xb.H _ R.pXtXtX!.| !.U m.`.&X` # , d.v.<XM.=X;X[ ` ",
"rXE.#.V ! *XP v.} ~.F K.&X^ ) v., M b.7X$.-XL.%.8XsXpXJ.T 9X;X$XQ I < e l.Y  XP.G U.rXoXoX}.E Y '.O.n.^.+.x B oX' b.wX~.S._ b.c."
};
